<svg class="h-12" width="144" height="60" viewBox="0 0 144 60" fill="none" xmlns="http://www.w3.org/2000/svg"> <path fill-rule="evenodd" clip-rule="evenodd" d="M16.1356 14.521C16.3104 14.5504 16.4759 14.5783 16.6334 14.6026V14.7999H12.3373V14.5773C12.6531 14.5483 12.9591 14.4521 13.2347 14.295C13.3919 14.2142 13.5376 14.1126 13.6678 13.993C13.8427 13.7862 13.998 13.5636 14.1315 13.328C14.4243 12.8261 14.6872 12.3074 14.9187 11.7745C15.2001 11.1437 15.5161 10.4248 15.8665 9.61791L16.9448 7.12696C17.3132 6.27435 17.6786 5.41442 18.0412 4.54719C18.4037 3.67997 18.7463 2.86993 19.069 2.11709L18.8678 1.67416C19.101 1.57172 19.3217 1.44297 19.5257 1.29043C19.7101 1.15097 19.8822 0.99581 20.0399 0.826669C20.175 0.680783 20.2997 0.525634 20.4132 0.362356C20.5129 0.214346 20.5891 0.094288 20.644 0H20.8057C21.223 1.1161 21.6197 2.17447 21.9958 3.17509C22.3718 4.17571 22.7314 5.14033 23.0746 6.06896C23.4163 6.99576 23.7487 7.89278 24.0718 8.76C24.3948 9.62723 24.7173 10.4842 25.0393 11.331C25.187 11.7502 25.3247 12.0974 25.4526 12.3725C25.5805 12.6477 25.7251 12.9602 25.8863 13.3099C25.9408 13.4077 26.0013 13.5022 26.0672 13.5928C26.1765 13.7435 26.3017 13.882 26.4405 14.0061C26.6122 14.1581 26.8056 14.2835 27.0144 14.3783C27.2682 14.4922 27.5422 14.5541 27.8202 14.5603V14.8021H21.9344V14.6004C22.0324 14.5925 22.13 14.5791 22.2266 14.5603C22.3925 14.5299 22.5548 14.4827 22.7112 14.4195C22.8753 14.3536 23.0257 14.2577 23.1546 14.1366C23.2176 14.0772 23.2671 14.0051 23.2999 13.925C23.3328 13.8451 23.3487 13.7592 23.3465 13.6728C23.3325 13.4707 23.2958 13.2708 23.2369 13.077C23.1631 12.8021 23.0587 12.4663 22.9239 12.0694C22.7912 11.6725 22.637 11.2325 22.4612 10.7494C22.2854 10.2662 22.097 9.76208 21.896 9.23692H16.5326C16.3325 9.74783 16.1373 10.2368 15.9488 10.6989C15.7602 11.161 15.5721 11.6292 15.3847 12.1001C15.1625 12.5859 15.0195 13.1041 14.9609 13.635C14.9581 13.7142 14.9708 13.7931 14.9985 13.8673C15.0261 13.9415 15.0681 14.0096 15.1221 14.0675C15.2388 14.1892 15.3796 14.2854 15.5354 14.3498C15.7093 14.4261 15.892 14.4804 16.0792 14.5116L16.1356 14.521ZM18.3679 4.78346C18.1398 5.32141 17.8879 5.92936 17.6119 6.60728H17.6136C17.3384 7.28593 17.0378 8.02233 16.7118 8.81647H21.7321C21.5041 8.21182 21.2711 7.60717 21.0365 7.00197C20.8648 6.5591 20.6951 6.12886 20.5306 5.71145L20.5304 5.71106L20.3518 5.25765C20.1325 4.70014 19.9313 4.18869 19.7488 3.72602C19.5671 3.26116 19.4158 2.88126 19.2949 2.58634C19.217 2.76066 19.0975 3.03694 18.9429 3.413C18.7876 3.78869 18.5959 4.24551 18.3679 4.78346ZM69.5219 14.4118C68.5768 14.119 67.7067 13.6239 66.9723 12.9607C66.2731 12.3104 65.7298 11.5104 65.3831 10.6205C65.0012 9.63387 64.8131 8.58283 64.8289 7.52494C64.8406 6.65913 64.9937 5.80104 65.2823 4.98465C65.4645 4.47036 65.701 3.97695 65.9878 3.51278C66.3064 2.99571 66.6893 2.5212 67.1275 2.10065C67.8137 1.44271 68.6221 0.925545 69.5071 0.578343C70.6021 0.168649 71.7657 -0.0262183 72.9344 0.00439466C73.6527 -0.00513974 74.3698 0.065837 75.0723 0.215995C75.6044 0.330958 76.127 0.485984 76.6357 0.679756C76.9737 0.806561 77.3004 0.961317 77.6126 1.14242C77.7324 1.22724 77.8611 1.29875 77.9963 1.35567C78.021 1.35567 78.0945 1.27398 78.2156 1.11282C78.337 0.951652 78.4846 0.756688 78.6585 0.527912H78.8416V4.92381H78.5993C78.4536 4.32571 78.2299 3.74938 77.9338 3.20963C77.6768 2.72689 77.358 2.27965 76.9855 1.87919C76.5185 1.39734 75.9551 1.01944 75.3322 0.770203C74.6154 0.47945 73.8476 0.335547 73.0742 0.34701C72.2365 0.334691 71.4099 0.539407 70.6748 0.941243C69.9637 1.33724 69.3454 1.88033 68.8608 2.53426C68.3474 3.2285 67.9579 4.00633 67.7096 4.83335C67.4381 5.71832 67.3019 6.63927 67.3056 7.56496C67.2955 8.53606 67.4247 9.5036 67.6894 10.438C67.9142 11.2446 68.2906 12.0011 68.7983 12.6669C69.2721 13.2765 69.8791 13.7697 70.5728 14.1086C71.3223 14.462 72.1432 14.6378 72.9717 14.6223C73.5891 14.6275 74.2018 14.5145 74.7768 14.2895C75.3201 14.0793 75.7823 13.7014 76.0963 13.2107C76.2371 12.9204 76.3196 12.6053 76.3392 12.2832C76.393 11.8284 76.4201 11.3707 76.4203 10.9127C76.4224 10.4883 76.3984 10.0641 76.3485 9.64258C76.3159 9.29705 76.1711 8.97168 75.9363 8.71615C75.4902 8.30893 74.9066 8.08565 74.3027 8.09122V7.88894H80.2088V8.09122C79.9549 8.12367 79.7049 8.18095 79.4622 8.26225C79.2245 8.32656 79.0173 8.47299 78.8773 8.67558C78.7673 8.88698 78.7121 9.12257 78.7167 9.36081C78.7024 9.67054 78.6964 9.97972 78.6964 10.2889V13.2326C78.4767 13.3873 78.2437 13.5222 78.0002 13.6356C77.0124 14.1242 75.9657 14.4833 74.8859 14.704C74.249 14.8375 73.6 14.9049 72.9492 14.9052C71.7879 14.9228 70.6311 14.7563 69.5219 14.4118ZM1.79459 1.11337C1.89148 1.22607 1.95774 1.3618 1.987 1.50751C2.03663 1.70551 2.07037 1.90715 2.08787 2.11052C2.10706 2.32979 2.12131 2.56661 2.12789 2.81494C2.13446 3.06327 2.1372 3.30831 2.1372 3.55115V8.64927C2.1372 9.05383 2.1341 9.44779 2.12789 9.83116C2.12167 10.2145 2.11473 10.5672 2.10706 10.8892C2.10103 11.2115 2.09719 11.4669 2.09719 11.6566C2.09719 11.8715 2.09116 12.0952 2.07746 12.3216C2.06375 12.548 2.0462 12.765 2.02702 12.9673C2.00947 13.1507 1.97888 13.3326 1.93547 13.5117C1.90941 13.6432 1.85456 13.7673 1.77486 13.8751C1.58314 14.1014 1.33133 14.2688 1.04851 14.3581C0.734122 14.4677 0.410473 14.5488 0.0815103 14.6004V14.8021H6.53475V14.6004C6.08697 14.5999 5.64529 14.4965 5.24377 14.2983C4.99584 14.177 4.7813 13.9969 4.61883 13.7737C4.47581 13.5432 4.39988 13.2775 4.39956 13.0062C4.38586 12.6976 4.3716 12.3287 4.35899 11.8984C4.35899 11.6687 4.35571 11.4598 4.34913 11.2619C4.34256 11.064 4.33872 10.8568 4.33872 10.6271V8.73205H5.42741C5.84458 8.73205 6.27107 8.71451 6.70797 8.68217C7.14487 8.64982 7.57794 8.59829 8.00937 8.53196C8.42083 8.46873 8.8255 8.36724 9.21811 8.22881C9.59201 8.08878 9.94997 7.90943 10.286 7.69378C10.631 7.47699 10.9406 7.20855 11.2042 6.89782C11.4728 6.57817 11.6875 6.21695 11.8401 5.82831C12.0062 5.39822 12.088 4.94022 12.0813 4.47923C12.0997 3.73761 11.896 3.00741 11.4964 2.38242C11.1279 1.81003 10.6221 1.33891 10.025 1.01196C9.42657 0.677853 8.76941 0.461965 8.0894 0.376062C7.30716 0.283285 6.5199 0.239342 5.7322 0.244494H4.82331C4.4743 0.244494 4.10153 0.247973 3.70501 0.254916C3.30849 0.26186 2.90868 0.26533 2.50558 0.26533C2.10157 0.26533 1.72936 0.268619 1.38619 0.274649C1.04303 0.280679 0.74372 0.285063 0.489362 0.285063H0.00421262V0.486249C0.367111 0.541068 0.706621 0.605204 1.02274 0.678661C1.31774 0.743029 1.58663 0.894467 1.79459 1.11337ZM4.33598 5.87272C4.33598 5.22696 4.33945 4.56804 4.34639 3.89596C4.35297 3.22498 4.36229 2.65267 4.37599 2.18343C4.39024 1.8737 4.4034 1.63525 4.4171 1.46695C4.43081 1.29866 4.44342 1.16709 4.45712 1.0728C4.4676 0.994626 4.48448 0.917445 4.50756 0.842022C4.52928 0.772564 4.54613 0.701672 4.55799 0.62987C4.65228 0.616165 4.77726 0.59917 4.9313 0.578887C5.14979 0.555843 5.36945 0.545779 5.58912 0.548741C5.96683 0.548346 6.34407 0.575459 6.71784 0.62987C7.24545 0.703708 7.75062 0.891697 8.19815 1.18074C8.64568 1.46978 9.02481 1.85293 9.30911 2.30348C9.70865 2.92145 9.91549 3.64423 9.90335 4.38001C9.91287 5.19506 9.67363 5.99364 9.21756 6.66922C8.74086 7.36257 8.04632 7.87691 7.24409 8.13069C6.80833 8.28277 6.35394 8.37498 5.89337 8.40478C5.40932 8.43877 4.89074 8.45522 4.34036 8.45522L4.33598 5.87272ZM33.6728 14.2901C34.0723 14.495 34.5147 14.6021 34.9637 14.6026L34.9698 14.7994H28.5165V14.5976C28.8459 14.5462 29.1699 14.4651 29.4846 14.3553C29.7673 14.2658 30.0189 14.0982 30.2104 13.8718C30.2901 13.7641 30.3453 13.6402 30.3721 13.5089C30.4153 13.3297 30.4454 13.1476 30.462 12.964C30.4829 12.7623 30.4988 12.5474 30.5136 12.3188C30.5264 12.0904 30.5328 11.8688 30.5328 11.6539C30.5331 11.4646 30.5366 11.2087 30.5432 10.8864C30.5494 10.5644 30.556 10.2118 30.5629 9.82841C30.5699 9.44505 30.5733 9.05109 30.5733 8.64653V3.54841C30.5726 3.30575 30.5691 3.06034 30.5629 2.8122C30.5567 2.56405 30.5434 2.32924 30.5229 2.10778C30.5059 1.90434 30.4722 1.70266 30.422 1.50478C30.3931 1.35926 30.3274 1.22357 30.2312 1.11063C30.0485 0.908824 29.8152 0.759504 29.5553 0.678108C29.2539 0.592687 28.9469 0.528395 28.6366 0.485696V0.284518H29.4638C29.9199 0.284518 30.4374 0.280126 31.0163 0.274096C31.5951 0.268066 32.1718 0.264778 32.7502 0.264778H34.1617C35.0619 0.264412 35.8618 0.291088 36.5617 0.344811C37.231 0.390578 37.8833 0.576206 38.4765 0.889708C39.0512 1.18432 39.5434 1.61769 39.9084 2.15054C40.2903 2.7479 40.4805 3.44781 40.4533 4.15634C40.4597 4.61784 40.3662 5.07526 40.1792 5.4972C40.0016 5.88747 39.7554 6.24268 39.4523 6.54589C39.1404 6.85646 38.7836 7.11832 38.3937 7.32266C37.9868 7.53987 37.562 7.72198 37.1241 7.86701V7.92786C37.373 8.06516 37.5978 8.24217 37.7896 8.45192C38.0145 8.69382 38.2232 8.95019 38.4146 9.21939C38.7639 9.73029 39.1435 10.2814 39.5531 10.8727C39.9628 11.464 40.3292 11.9883 40.6523 12.4455C41.0447 13.0364 41.5357 13.5556 42.1038 13.9804C42.5996 14.3129 43.1654 14.5268 43.7572 14.6053V14.8048H39.6249C39.5043 14.681 39.4183 14.5916 39.3635 14.5307C39.3087 14.4699 39.2478 14.3986 39.1826 14.3186C39.091 14.2062 39.0065 14.0883 38.9293 13.9656C38.8288 13.8113 38.6709 13.5796 38.4557 13.2705C38.2008 12.8933 37.9766 12.5529 37.7809 12.2514C37.5852 11.9499 37.3889 11.6489 37.1855 11.3546C36.9821 11.0602 36.764 10.7609 36.5277 10.4572C36.2931 10.1542 36.0142 9.8149 35.6912 9.43921C35.4215 9.12842 35.1282 8.83885 34.8141 8.57307C34.5315 8.32014 34.1875 8.14585 33.8164 8.06765C33.6243 8.02274 33.4285 7.99594 33.2315 7.98761C33.1103 7.98761 32.9552 7.98048 32.7677 7.96678V10.2467C32.7673 10.8906 32.7743 11.4344 32.7885 11.8781C32.8011 12.3095 32.8138 12.679 32.8286 12.9882C32.8296 13.2593 32.9054 13.5249 33.0478 13.7556C33.2114 13.9802 33.4255 14.1633 33.6728 14.2901ZM32.7754 3.77481C32.7692 4.36685 32.7661 4.93824 32.7661 5.48898V7.70804C33.2809 7.71052 33.7956 7.68692 34.3081 7.63732C34.7777 7.59279 35.2408 7.49513 35.6884 7.34623C36.0864 7.22828 36.4617 7.04407 36.7985 6.80134C37.0933 6.58821 37.3489 6.32557 37.5539 6.02511C37.7481 5.73783 37.8947 5.42111 37.9881 5.08716C38.0823 4.74577 38.1297 4.39318 38.129 4.03904C38.1397 3.40428 37.9646 2.78023 37.6252 2.24373C37.2614 1.69736 36.7514 1.26426 36.1533 0.993865C35.8283 0.845266 35.4862 0.737191 35.1348 0.672077C34.7658 0.603189 34.3912 0.569421 34.0159 0.571216C33.7331 0.571216 33.5039 0.578344 33.3296 0.591501C33.1553 0.604657 33.0204 0.617812 32.9267 0.631517C32.9135 0.7121 32.8998 0.782812 32.8861 0.843661C32.871 0.91983 32.8611 0.996939 32.8565 1.07445C32.8494 1.16874 32.8423 1.3003 32.8362 1.46859C32.8322 1.58192 32.8259 1.72707 32.8182 1.90438L32.8181 1.90652L32.8061 2.18507C32.7918 2.65286 32.7816 3.18277 32.7754 3.77481ZM50.9119 14.6026C50.7774 14.5894 50.6195 14.566 50.4383 14.5324C50.2507 14.4972 50.0656 14.45 49.8841 14.391C49.7012 14.3329 49.5253 14.2549 49.3594 14.1585C49.2078 14.074 49.0768 13.957 48.9757 13.8159C48.8215 13.588 48.7308 13.3231 48.7131 13.0485C48.6733 12.7119 48.6464 12.3488 48.6325 11.9592C48.6194 11.5155 48.6128 10.9845 48.6128 10.3662V8.37244C48.6396 8.2909 48.6764 8.21301 48.7224 8.14055C48.75 8.11324 48.7834 8.09244 48.82 8.0797C48.8568 8.06806 48.8957 8.06451 48.934 8.06929C49.0571 8.08093 49.1735 8.13034 49.2673 8.21072C49.5238 8.43421 49.763 8.67684 49.9827 8.93651C50.816 9.85016 51.62 10.7541 52.3947 11.6484C53.1695 12.5427 53.9861 13.4872 54.8446 14.482C54.9086 14.5611 54.9823 14.632 55.0639 14.693C55.1216 14.7342 55.1824 14.7709 55.2459 14.8026H59.781V14.6053C59.439 14.5837 59.0991 14.5366 58.7641 14.4644C58.5209 14.4149 58.2816 14.3477 58.0482 14.2632C57.9608 14.2203 57.8795 14.1659 57.8064 14.1015C57.6847 14.008 57.5435 13.897 57.3827 13.7688C57.2182 13.6421 57.0538 13.4974 56.8778 13.3357C56.7133 13.1843 56.5586 13.0226 56.4146 12.8517C55.8492 12.2198 55.2612 11.562 54.6505 10.8782C54.0398 10.1944 53.4653 9.5492 52.927 8.94255C52.3887 8.33735 51.9248 7.80963 51.5352 7.35939C51.146 6.90988 50.8971 6.6166 50.7886 6.4823C51.0177 6.24 51.2699 5.98143 51.5451 5.70661C51.8202 5.43179 52.1025 5.14618 52.392 4.84979C52.6814 4.55377 52.9738 4.25794 53.2691 3.96229C53.5644 3.66663 53.8533 3.39126 54.1358 3.13617C54.8133 2.50365 55.5272 1.91115 56.2737 1.3617C56.8746 0.890267 57.592 0.590387 58.3497 0.493916V0.292738H52.9446V0.493916C53.2747 0.541073 53.5911 0.657858 53.8726 0.836531C54.0082 0.930172 54.117 1.05752 54.1884 1.20601C54.2594 1.35457 54.2895 1.5194 54.2756 1.68348C54.2596 1.96028 54.1645 2.22667 54.0015 2.45094C53.815 2.74032 53.6094 3.01686 53.3859 3.2787C53.0635 3.62807 52.6798 4.03775 52.2347 4.50773C51.7895 4.97771 51.3426 5.43453 50.8938 5.87819C50.4432 6.32113 50.0132 6.72094 49.6039 7.07762C49.2975 7.35415 48.9704 7.60686 48.6254 7.83357V4.70892C48.6254 4.35917 48.6292 4.05109 48.6347 3.78139C48.6396 3.5438 48.6499 3.29174 48.6609 3.02372L48.6654 2.91416C48.6584 2.46804 48.73 2.02417 48.877 1.6029C48.9775 1.3325 49.1434 1.09123 49.36 0.900671C49.5463 0.747663 49.7679 0.643644 50.0047 0.598072C50.2469 0.551659 50.496 0.515115 50.7518 0.488437V0.286707H44.5025V0.488437C44.8197 0.520115 45.1312 0.59385 45.429 0.707708C45.6971 0.814298 45.9334 0.98795 46.1153 1.21204C46.2922 1.48923 46.3872 1.81075 46.3894 2.13957C46.423 2.56934 46.4398 3.03969 46.4398 3.5506V9.84103C46.4398 10.2171 46.4365 10.5668 46.4299 10.8903C46.4228 11.2126 46.4195 11.4669 46.4195 11.6577C46.4195 11.8726 46.4162 12.0963 46.4096 12.3336C46.4031 12.571 46.3894 12.7897 46.3691 12.998C46.3523 13.1847 46.3221 13.3699 46.2786 13.5522C46.2519 13.6837 46.1967 13.8078 46.1169 13.9157C45.9257 14.1235 45.6825 14.2765 45.4125 14.3592C45.0977 14.4688 44.7737 14.5499 44.4444 14.6015V14.8032H50.9174L50.9119 14.6026ZM87.3866 14.2901C87.7861 14.4951 88.2286 14.6022 88.6776 14.6026L88.682 14.7994H82.2293V14.5976C82.5584 14.546 82.8822 14.4649 83.1968 14.3553C83.4793 14.2656 83.7307 14.098 83.9221 13.8718C84.003 13.7645 84.0592 13.6405 84.0866 13.5089C84.1296 13.3297 84.1599 13.1476 84.177 12.964C84.1967 12.7623 84.2148 12.5474 84.2274 12.3188C84.241 12.0904 84.2477 11.8688 84.2477 11.6539C84.2477 11.4642 84.2505 11.2087 84.2581 10.8864C84.2647 10.5644 84.2713 10.2118 84.2779 9.82841C84.2845 9.44505 84.2877 9.05109 84.2877 8.64653V3.54841C84.2877 3.30556 84.285 3.06052 84.2779 2.8122C84.2707 2.56387 84.2581 2.32705 84.2373 2.10778C84.2204 1.90429 84.1865 1.70259 84.1359 1.50478C84.1079 1.35906 84.0423 1.22319 83.9457 1.11063C83.7631 0.908598 83.5297 0.759235 83.2698 0.678108C82.9687 0.592744 82.6621 0.528452 82.3521 0.485696V0.284518H83.1782C83.6347 0.283787 84.1521 0.280309 84.7307 0.274096C85.3092 0.267883 85.8875 0.264778 86.4657 0.264778H87.8767C88.7776 0.264412 89.5774 0.291088 90.2761 0.344811C90.9457 0.390276 91.5982 0.57592 92.1915 0.889708C92.766 1.18449 93.2579 1.61783 93.6228 2.15054C94.0052 2.74772 94.1956 3.44772 94.1682 4.15634C94.1744 4.61781 94.0809 5.07518 93.8941 5.4972C93.717 5.88756 93.4709 6.2428 93.1678 6.54589C92.856 6.85634 92.4994 7.11818 92.1098 7.32266C91.7024 7.53938 91.2775 7.72147 90.8396 7.86701V7.92786C91.0882 8.06518 91.3126 8.2422 91.5041 8.45192C91.7295 8.69326 91.9383 8.94968 92.129 9.21939C92.4809 9.73029 92.861 10.2814 93.2692 10.8727C93.6774 11.464 94.0429 11.9883 94.3656 12.4455C94.7579 13.0363 95.2487 13.5555 95.8166 13.9804C96.3127 14.3128 96.8786 14.5266 97.4705 14.6053V14.8048H93.3377L93.284 14.7497C93.1906 14.654 93.1206 14.5822 93.0757 14.5307C93.0225 14.4699 92.9611 14.3986 92.8948 14.3186C92.8038 14.2058 92.7192 14.0879 92.6415 13.9656C92.5407 13.811 92.3839 13.5796 92.169 13.2705C91.9124 12.8933 91.6882 12.5529 91.4931 12.2514C91.2979 11.9499 91.1006 11.6489 90.8978 11.3546C90.6949 11.0602 90.4757 10.7609 90.2399 10.4572C90.0042 10.1542 89.7257 9.8149 89.4045 9.43921C89.1342 9.12899 88.841 8.83947 88.5274 8.57307C88.2451 8.32005 87.9012 8.14574 87.5302 8.06765C87.3382 8.02271 87.1424 7.9959 86.9453 7.98761C86.8231 7.98761 86.6696 7.98048 86.481 7.96678V10.2467C86.481 10.8906 86.4878 11.4344 86.5013 11.8781C86.5152 12.309 86.5287 12.679 86.5419 12.9882C86.5424 13.2594 86.6183 13.5251 86.7611 13.7556C86.9247 13.9805 87.139 14.1636 87.3866 14.2901ZM86.4893 3.77481C86.4819 4.36685 86.4783 4.93824 86.4783 5.48898V7.70804C86.9932 7.71056 87.5078 7.68696 88.0203 7.63732C88.4907 7.59274 88.9545 7.49508 89.4029 7.34623C89.7999 7.22792 90.1742 7.04373 90.5102 6.80134C90.8055 6.58853 91.0615 6.32586 91.2667 6.02511C91.4613 5.73808 91.6079 5.42129 91.7008 5.08716C91.7959 4.74597 91.8432 4.39323 91.8412 4.03904C91.8522 3.40424 91.6771 2.78011 91.3374 2.24373C90.9742 1.69688 90.464 1.26365 89.8655 0.993865C89.5408 0.845351 89.1991 0.737278 88.8481 0.672077C88.479 0.603213 88.1042 0.569446 87.7287 0.571216C87.4458 0.571582 87.2174 0.578344 87.0435 0.591501C86.8695 0.604657 86.735 0.617995 86.64 0.631517C86.6263 0.7121 86.6126 0.782812 86.6 0.843661C86.584 0.919715 86.5737 0.996863 86.5693 1.07445C86.5622 1.16874 86.555 1.3003 86.549 1.46859C86.5432 1.63634 86.5331 1.87517 86.5188 2.18507C86.5064 2.65286 86.4966 3.18277 86.4893 3.77481ZM111.439 10.9527L111.22 10.893C110.926 11.4068 110.599 11.9012 110.242 12.3731C109.955 12.7533 109.627 13.1013 109.265 13.4108C108.95 13.6812 108.596 13.903 108.216 14.0686C107.836 14.2279 107.435 14.3334 107.026 14.3822C106.637 14.4355 106.264 14.4692 105.907 14.4831C105.55 14.4957 105.258 14.5028 105.03 14.5028C104.53 14.5052 104.031 14.4648 103.538 14.3822C103.207 14.3652 102.897 14.2208 102.67 13.9793C102.528 13.7153 102.448 13.4218 102.439 13.1219C102.405 12.7385 102.381 12.3318 102.368 11.9016C102.368 11.7673 102.365 11.6029 102.359 11.4083C102.352 11.2137 102.348 11.0087 102.348 10.7938V8.37408C102.343 8.09793 102.357 7.82176 102.389 7.54742H103.316C103.451 7.54742 103.585 7.5507 103.72 7.55673C103.833 7.56181 103.969 7.57077 104.13 7.58132L104.223 7.58743C104.585 7.60475 104.943 7.67874 105.282 7.80671C105.565 7.91649 105.828 8.07349 106.058 8.27102C106.349 8.57018 106.584 8.91811 106.753 9.29887C106.963 9.72437 107.128 10.1702 107.247 10.6293H107.49V4.28023H107.248C107.176 4.62428 107.084 4.96412 106.974 5.29821C106.882 5.5828 106.746 5.85133 106.571 6.09418C106.393 6.33085 106.17 6.52953 105.914 6.67854C105.6 6.85783 105.26 6.98729 104.906 7.06227C104.689 7.10855 104.469 7.13897 104.248 7.15327C103.986 7.17356 103.725 7.19055 103.462 7.2037C103.198 7.21686 102.968 7.22453 102.767 7.22453H102.363V7.00197C102.363 6.88137 102.36 6.70979 102.354 6.48887C102.347 6.26795 102.343 5.98071 102.343 5.63151V4.33999C102.343 3.45375 102.353 2.67442 102.373 2.00198C102.393 1.32954 102.417 0.885867 102.444 0.670978C102.662 0.634815 102.881 0.611028 103.102 0.59972C103.403 0.580534 103.697 0.570661 103.979 0.570661C104.733 0.56313 105.487 0.603411 106.236 0.691263C106.671 0.728288 107.098 0.823049 107.508 0.973034C108.711 1.66086 109.755 2.59484 110.573 3.71396L110.775 3.61309L109.404 0.285059H98.2762V0.486245C98.5748 0.527409 98.8708 0.584688 99.1632 0.657829C99.413 0.73155 99.6366 0.874924 99.8079 1.07116C99.9049 1.18379 99.9711 1.31955 100 1.4653C100.05 1.66715 100.084 1.87264 100.101 2.07982C100.121 2.30786 100.135 2.55126 100.141 2.80562C100.148 3.05998 100.151 3.3094 100.151 3.55169V8.64982C100.151 9.05365 100.148 9.44724 100.141 9.8306C100.136 10.1247 100.13 10.4002 100.125 10.6582L100.125 10.6642L100.125 10.6678L100.125 10.673L100.125 10.676L100.12 10.8891C100.114 11.212 100.11 11.4669 100.11 11.6566C100.11 11.872 100.104 12.0908 100.091 12.3144C100.078 12.5273 100.055 12.7394 100.019 12.9498C99.9866 13.1526 99.9498 13.3302 99.9098 13.4843C99.8825 13.6124 99.8277 13.733 99.7492 13.8378C99.5523 14.0584 99.3071 14.2304 99.0327 14.3405C98.7322 14.4656 98.4176 14.5539 98.0959 14.6037V14.8054H110.435L111.439 10.9527ZM126.06 10.8919L126.28 10.9522L125.273 14.8076H112.934V14.6059C113.255 14.5561 113.57 14.4677 113.871 14.3427C114.145 14.2327 114.39 14.0606 114.587 13.84C114.666 13.7352 114.721 13.6146 114.748 13.4865C114.788 13.3324 114.824 13.1548 114.858 12.952C114.892 12.7416 114.916 12.5295 114.928 12.3166C114.941 12.0937 114.948 11.8744 114.948 11.6588C114.948 11.4691 114.952 11.2137 114.958 10.8913C114.966 10.569 114.973 10.2162 114.979 9.8328C114.985 9.44944 114.988 9.05584 114.988 8.65201V3.55388C114.988 3.31159 114.985 3.06217 114.979 2.80781C114.972 2.55345 114.958 2.31005 114.939 2.08201C114.922 1.8748 114.888 1.66929 114.838 1.46749C114.809 1.32198 114.743 1.18633 114.647 1.07335C114.475 0.877177 114.251 0.733847 114 0.66002C113.708 0.58688 113.412 0.529601 113.114 0.488436V0.28725H124.242L125.613 3.61528L125.411 3.71615C124.594 2.59668 123.549 1.66262 122.345 0.975225C121.936 0.825237 121.509 0.730475 121.075 0.693453C120.325 0.605446 119.571 0.564985 118.817 0.572308C118.534 0.572308 118.242 0.581628 117.94 0.600815C117.719 0.611944 117.499 0.636109 117.282 0.673177C117.255 0.8877 117.231 1.331 117.211 2.00307C117.191 2.67515 117.181 3.45466 117.181 4.34162V5.63315C117.181 5.98234 117.185 6.26905 117.191 6.48997C117.198 6.71088 117.201 6.88301 117.201 7.00361V7.22289H117.605C117.807 7.22289 118.038 7.21631 118.3 7.20315C118.562 7.18999 118.825 7.17246 119.087 7.15272C119.308 7.13812 119.528 7.10771 119.745 7.06172C120.098 6.98683 120.438 6.85737 120.752 6.67799C121.009 6.52904 121.232 6.32991 121.41 6.09253C121.585 5.85022 121.721 5.58203 121.814 5.29766C121.923 4.96331 122.015 4.62331 122.088 4.27913H122.33V10.6277H122.088C121.97 10.1683 121.804 9.72245 121.594 9.29722C121.424 8.91655 121.189 8.56866 120.899 8.26938C120.668 8.07164 120.406 7.91462 120.122 7.80506C119.783 7.67652 119.425 7.60251 119.063 7.58579C118.862 7.57154 118.693 7.56112 118.56 7.55509C118.426 7.54906 118.29 7.54577 118.157 7.54577H117.229C117.197 7.82013 117.184 8.0963 117.189 8.37244V10.796C117.189 11.0103 117.192 11.2159 117.199 11.4105C117.206 11.6051 117.209 11.769 117.209 11.9038C117.225 12.3353 117.246 12.7404 117.28 13.1241C117.289 13.4238 117.368 13.7172 117.511 13.9809C117.737 14.2229 118.048 14.3676 118.378 14.3844C118.871 14.4674 119.37 14.508 119.87 14.5055C120.098 14.5055 120.39 14.4979 120.747 14.4858C121.103 14.4719 121.476 14.4381 121.865 14.3844C122.274 14.336 122.675 14.2306 123.055 14.0714C123.436 13.9058 123.79 13.6841 124.104 13.4135C124.467 13.1025 124.794 12.7533 125.082 12.372C125.439 11.9001 125.766 11.4057 126.06 10.8919ZM132.571 14.6009C132.122 14.562 131.682 14.4498 131.269 14.2687C130.964 14.1241 130.718 13.8783 130.574 13.5731C130.412 13.1827 130.327 12.7652 130.322 12.3429C130.288 11.7926 130.272 11.1744 130.272 10.4884V1.98004C131.185 3.0015 132.052 3.98951 132.872 4.94409C133.692 5.89866 134.529 6.87662 135.383 7.87797C136.236 8.87932 137.133 9.93147 138.074 11.0344C139.015 12.1374 140.057 13.3468 141.199 14.6629C141.289 14.7745 141.419 14.8467 141.562 14.864C141.589 14.8665 141.616 14.8631 141.642 14.8542C141.668 14.8455 141.692 14.8317 141.713 14.8136C141.73 14.7966 141.743 14.776 141.752 14.7533C141.76 14.7307 141.764 14.7067 141.764 14.6826V13.3735C141.764 12.8893 141.76 12.402 141.753 11.9115C141.746 11.4211 141.743 10.9405 141.743 10.4698V9.17827C141.743 8.27742 141.753 7.43412 141.773 6.64839C141.793 5.86266 141.817 5.18017 141.844 4.60092C141.871 3.98257 141.898 3.40131 141.924 2.85714C141.921 2.47673 141.983 2.09864 142.107 1.73885C142.24 1.38299 142.483 1.07907 142.801 0.87162C143.17 0.661811 143.578 0.531112 143.999 0.487884V0.286154H138.999V0.487884C139.523 0.540354 140.029 0.708898 140.479 0.981256C140.811 1.20195 141.062 1.52407 141.196 1.89947C141.318 2.27353 141.379 2.66483 141.377 3.05833C141.39 3.5495 141.397 4.06351 141.396 4.60037V11.456L131.843 0.286706H127.75V0.488436C127.978 0.518135 128.203 0.56189 128.425 0.619452C128.66 0.679738 128.883 0.782262 129.083 0.922051C129.298 1.07686 129.477 1.27639 129.608 1.50697C129.77 1.80237 129.866 2.12894 129.89 2.46464C129.903 2.85385 129.91 3.18386 129.91 3.45138V5.91054C129.91 6.81066 129.903 7.65413 129.89 8.44096C129.877 9.22779 129.857 9.91009 129.829 10.4879C129.803 11.2553 129.762 11.9132 129.708 12.4613C129.688 12.9011 129.564 13.3298 129.345 13.7118C129.165 14.0009 128.895 14.2236 128.578 14.3466C128.267 14.4711 127.942 14.5557 127.61 14.5982V14.7999H132.571L132.571 14.6009ZM21.1723 27.6779C21.8515 27.7645 22.5077 27.9809 23.1052 28.3154C23.7028 28.6423 24.2088 29.1139 24.577 29.687C24.9753 30.3114 25.1776 31.0407 25.1581 31.781C25.1642 32.2414 25.0819 32.6986 24.9158 33.1279C24.7641 33.5167 24.5496 33.878 24.281 34.1974C24.018 34.5075 23.7089 34.7752 23.3645 34.9912C23.0294 35.2081 22.6714 35.3875 22.2971 35.5262C21.9046 35.6657 21.4994 35.7665 21.0873 35.8272C20.6608 35.8941 20.2239 35.9467 19.7908 35.9801C19.3578 36.0136 18.9291 36.0284 18.5125 36.0284H17.4265V37.9224C17.4265 38.1493 17.4282 38.3664 17.4347 38.5599C17.4413 38.7534 17.4457 38.9634 17.4457 39.1887C17.4579 39.5901 17.472 39.9359 17.4841 40.2312L17.4868 40.2987C17.4863 40.5692 17.5623 40.8343 17.7061 41.0634C17.8678 41.2877 18.0827 41.4682 18.3316 41.5886C18.7337 41.7852 19.175 41.8886 19.6225 41.8912V42.0896H13.1764V41.8879C13.5054 41.8372 13.8291 41.7567 14.1434 41.6473C14.4257 41.5574 14.6771 41.3903 14.8692 41.1649C14.9468 41.0566 15.0011 40.9334 15.0288 40.8031C15.072 40.6238 15.1022 40.4417 15.1192 40.2582C15.1406 40.0581 15.157 39.8443 15.1696 39.614C15.1822 39.3838 15.1888 39.1673 15.1888 38.948C15.1888 38.7572 15.1932 38.5034 15.1998 38.1805L15.2025 38.0464C15.2084 37.7613 15.2147 37.4554 15.219 37.1242C15.2239 36.7405 15.2283 36.3474 15.2283 35.945V30.853C15.2283 30.6085 15.2272 30.3645 15.219 30.1151C15.2107 29.8657 15.1998 29.6332 15.1779 29.414C15.1617 29.2097 15.1288 29.0071 15.0797 28.8082C15.0497 28.6623 14.9833 28.5264 14.8868 28.413C14.6768 28.1957 14.4073 28.0453 14.1122 27.9805C13.7953 27.907 13.4566 27.8456 13.0953 27.7908V27.5891H13.5788C13.8326 27.5891 14.1292 27.5852 14.4718 27.5786C14.8144 27.5721 15.1866 27.5688 15.5912 27.5688C15.9958 27.5688 16.3932 27.5677 16.7895 27.5589C17.1859 27.5501 17.5575 27.5501 17.9084 27.5501H18.8151C19.6027 27.5439 20.3899 27.5866 21.1723 27.6779ZM20.3226 35.4226C21.1251 35.1698 21.8199 34.6555 22.296 33.9617V33.9628C22.7534 33.2888 22.9946 32.4914 22.9873 31.6769C22.9977 30.9416 22.7904 30.2197 22.3914 29.602C22.1066 29.1524 21.7276 28.7701 21.2804 28.4815C20.8333 28.1929 20.3288 28.0049 19.8018 27.9306C19.429 27.8743 19.0523 27.8472 18.6753 27.8495C18.4556 27.8466 18.236 27.8561 18.0175 27.878L17.7982 27.9087L17.6458 27.9306C17.6347 28.0016 17.6186 28.0718 17.5975 28.1405C17.5726 28.2161 17.5543 28.2937 17.5427 28.3724C17.529 28.4683 17.5159 28.5983 17.5033 28.766C17.4907 28.9338 17.4775 29.1706 17.4621 29.4787C17.4484 29.9495 17.4402 30.5229 17.4336 31.1939C17.4263 31.8642 17.4227 32.522 17.4227 33.1674V35.7439C17.9742 35.7439 18.4894 35.7274 18.9729 35.6934C19.4333 35.6671 19.8877 35.5759 20.3226 35.4226ZM41.0161 41.2931C40.8765 41.1704 40.7515 41.0321 40.6433 40.8809C40.5762 40.7907 40.5156 40.6958 40.4619 40.5969L40.3478 40.3488C40.2323 40.0976 40.1268 39.8681 40.0288 39.6617C39.8995 39.3893 39.7624 39.0412 39.6166 38.6202C39.2943 37.776 38.9717 36.9206 38.649 36.0541L38.4668 35.5648L38.4666 35.5645L38.4661 35.5632L38.4654 35.5614C38.2004 34.8503 37.9275 34.1181 37.6535 33.3647C37.3883 32.6354 37.1066 31.8871 36.8156 31.1146C36.7361 30.9035 36.656 30.6906 36.5753 30.4758C36.1992 29.4748 35.8029 28.4174 35.3857 27.304H35.2256C35.1708 27.3983 35.0952 27.5194 34.9937 27.6675C34.8805 27.8297 34.7563 27.9841 34.6221 28.1296C34.4654 28.2994 34.2933 28.4543 34.1079 28.5922C33.9052 28.7443 33.686 28.873 33.4544 28.976L33.6556 29.42C33.3315 30.1699 32.9887 30.9787 32.6272 31.8463C32.266 32.7129 31.8987 33.5687 31.5309 34.4227C31.3054 34.9462 31.0829 35.4597 30.8642 35.9643L30.8642 35.9644L30.8642 35.9644L30.8641 35.9645L30.8641 35.9645L30.8636 35.9656L30.861 35.9716L30.8603 35.9733C30.7235 36.2889 30.5883 36.6011 30.4548 36.9099C30.1067 37.7151 29.7904 38.4338 29.5081 39.0642C29.278 39.5962 29.0166 40.114 28.7253 40.615C28.5909 40.8501 28.4355 41.0725 28.2609 41.2794C28.1295 41.3979 27.9834 41.4991 27.8262 41.5804C27.5521 41.7369 27.2476 41.8326 26.9332 41.8611V42.0803H31.2233V41.8786C31.0479 41.855 30.8615 41.8238 30.6691 41.7892C30.4823 41.758 30.2998 41.705 30.1253 41.6314C29.9695 41.567 29.8293 41.47 29.7142 41.3469C29.6593 41.2886 29.6161 41.2203 29.587 41.1457C29.5595 41.0714 29.5474 40.9923 29.5514 40.9132C29.6109 40.3848 29.7528 39.8689 29.9718 39.3844L30.5365 37.9854C30.7239 37.5227 30.9202 37.0332 31.1197 36.5239H36.4777C36.6576 36.9983 36.8259 37.4547 36.9886 37.896L36.9886 37.8961L36.9896 37.8987L36.9897 37.899L37.0401 38.0358C37.2188 38.5204 37.369 38.9557 37.5033 39.3515C37.6376 39.7473 37.744 40.086 37.8163 40.359C37.8753 40.5521 37.912 40.7513 37.926 40.9527C37.9306 41.0398 37.9146 41.1267 37.8794 41.2065C37.8473 41.2864 37.7979 41.3581 37.7347 41.4165C37.607 41.5389 37.456 41.6344 37.2906 41.6972C37.1353 41.7626 36.9731 41.8106 36.8071 41.8402C36.7114 41.8602 36.6143 41.8732 36.5166 41.8792V42.0809H42.3981V41.8402C42.1194 41.8352 41.8446 41.7735 41.5906 41.6588C41.3819 41.5662 41.1883 41.443 41.0161 41.2931ZM31.3017 36.1068L32.1942 33.902C32.4683 33.226 32.7237 32.617 32.9512 32.0792L32.9775 32.017C33.1936 31.5063 33.3771 31.0725 33.5257 30.7121C33.6803 30.3371 33.7949 30.0625 33.8765 29.8898C33.9988 30.1825 34.1473 30.5608 34.3288 31.0251C34.5102 31.4894 34.7125 31.9992 34.9351 32.554C35.1118 32.9944 35.2905 33.4531 35.4749 33.9263L35.6198 34.2978C35.856 34.9029 36.0857 35.5038 36.3132 36.1068H31.3017ZM53.8031 27.8796C53.6072 27.8372 53.4087 27.8075 53.2089 27.7908L53.2105 27.5874H57.9041V27.8127C57.5802 27.8423 57.267 27.944 56.9875 28.1104C56.8246 28.1992 56.6728 28.307 56.5353 28.4316C56.4958 28.4733 56.4366 28.5374 56.3621 28.6251C56.2669 28.7447 56.1835 28.8732 56.1132 29.0089C56.0162 29.1771 55.9065 29.3849 55.7799 29.6426C55.6533 29.9002 55.5096 30.2214 55.3452 30.6079C55.0773 31.254 54.7827 31.9767 54.4615 32.776C54.1384 33.5756 53.8095 34.3979 53.4748 35.2428C53.14 36.0878 52.8082 36.9365 52.4793 37.7891L51.5435 40.216L50.5568 42.2305H50.315C49.8737 41.1424 49.461 40.1058 49.0772 39.119C48.6939 38.1323 48.3207 37.1821 47.9578 36.2685C47.5957 35.3574 47.247 34.475 46.9119 33.6213L45.9032 31.0514C45.81 30.7976 45.7212 30.5745 45.6407 30.3875C45.5601 30.2006 45.4844 30.0268 45.411 29.8657C45.3375 29.7045 45.263 29.5477 45.1884 29.4019L44.9565 28.9392C44.903 28.8346 44.8437 28.733 44.7789 28.635C44.6848 28.4994 44.5723 28.3776 44.4445 28.2732C44.2906 28.144 44.1182 28.0385 43.9331 27.9602C43.688 27.8654 43.4283 27.8136 43.1656 27.8072V27.5836H49.1819V27.7853C49.1156 27.799 48.9939 27.8215 48.819 27.8478C48.6369 27.8774 48.4586 27.9276 48.2878 27.9975C48.1066 28.0701 47.9414 28.1775 47.8016 28.3138C47.7329 28.3772 47.6784 28.4545 47.6419 28.5406C47.6054 28.6268 47.5877 28.7197 47.59 28.8132C47.6322 29.106 47.7068 29.3931 47.8126 29.6694C47.9589 30.12 48.1541 30.6611 48.3882 31.3003C48.6222 31.9395 48.887 32.6378 49.1819 33.396C49.4769 34.1541 49.7707 34.9013 50.059 35.6342C50.3474 36.3671 50.6154 37.0447 50.872 37.6773C51.1285 38.3099 51.3292 38.8263 51.4783 39.2298C51.5462 39.0818 51.668 38.772 51.8499 38.3028C52.0312 37.831 52.2594 37.2463 52.5346 36.5486C52.8084 35.8506 53.1137 35.0584 53.4506 34.1722C53.7876 33.286 54.1362 32.3594 54.4966 31.3924C54.707 30.8434 54.8824 30.2817 55.0218 29.7105C55.0849 29.4494 55.125 29.1833 55.1418 28.9151C55.145 28.8214 55.1287 28.7281 55.0941 28.641C55.0586 28.5549 55.0065 28.4767 54.9406 28.4108C54.795 28.2708 54.6245 28.1593 54.4379 28.0819C54.2329 27.9953 54.0204 27.9276 53.8031 27.8796ZM64.5298 41.1418C64.3988 40.9095 64.3367 40.6446 64.3506 40.3782C64.3369 40.0131 64.3314 39.6365 64.3314 39.2501V32.5046C64.3314 32.1664 64.3352 31.8369 64.3396 31.5075L64.3431 31.265L64.3431 31.2629V31.2624V31.2619V31.2613V31.2608V31.2602V31.2597V31.2591V31.2586V31.2581V31.2575V31.257V31.2565V31.2559C64.3468 31.0091 64.3506 30.7605 64.3506 30.5081C64.3643 30.2006 64.3725 29.8728 64.3791 29.5214C64.3748 29.2221 64.4409 28.926 64.5721 28.6569C64.7247 28.3518 64.9919 28.1196 65.3154 28.0112C65.6111 27.9121 65.9148 27.8387 66.2232 27.7919V27.5902H60.2014V27.7919C60.5208 27.8259 60.835 27.8975 61.1377 28.0051C61.4103 28.1028 61.651 28.2735 61.8333 28.4985C61.9223 28.6141 61.9836 28.7486 62.0126 28.8916C62.0544 29.0773 62.0844 29.2655 62.1025 29.4551C62.1217 29.6617 62.131 29.8887 62.131 30.1277V35.9478C62.131 36.3498 62.1279 36.7428 62.1217 37.1269L62.1202 37.2145L62.1201 37.215L62.1201 37.216L62.1201 37.2173L62.1201 37.2197C62.1141 37.5645 62.1085 37.8868 62.1025 38.1833C62.0959 38.5062 62.0915 38.76 62.0915 38.9507V38.951C62.0915 39.1663 62.0915 39.385 62.08 39.6053L62.0734 39.7351C62.0648 39.9097 62.0564 40.0795 62.0405 40.2423C62.0251 40.4183 61.9981 40.5932 61.9599 40.7658C61.9378 40.8895 61.8859 41.006 61.8087 41.1051C61.6065 41.334 61.3552 41.5141 61.0735 41.6319C60.7733 41.756 60.4591 41.8429 60.1378 41.8907V42.0924L66.2407 42.099V41.8956C65.9172 41.8592 65.5991 41.7841 65.2935 41.6719C64.989 41.5809 64.7215 41.3952 64.5298 41.1418ZM82.2682 40.0652C82.5238 39.7507 82.7403 39.4063 82.9129 39.0395C83.0883 38.6706 83.2539 38.2831 83.4161 37.8763L83.6168 37.9366L82.8734 42.082H69.9456V41.8802C70.2851 41.827 70.6186 41.7403 70.9411 41.6215C71.2383 41.5193 71.5057 41.3453 71.7195 41.115C71.7982 41.0097 71.8562 40.8905 71.8905 40.7636C71.9411 40.5895 71.9777 40.4117 72.0002 40.2319C72.0265 40.029 72.0533 39.8185 72.0725 39.5949C72.0917 39.3712 72.101 39.1558 72.101 38.9403C72.101 38.7496 72.1054 38.4958 72.112 38.1729C72.1186 37.85 72.1246 37.4964 72.1312 37.1165C72.1374 36.7324 72.1405 36.3394 72.1405 35.9374V30.1611C72.1405 29.9172 72.1312 29.6919 72.112 29.4814C72.094 29.2969 72.0639 29.1138 72.0221 28.9332C71.9923 28.7928 71.9299 28.6614 71.8401 28.5495C71.6387 28.3126 71.3785 28.1329 71.0858 28.0282C70.7647 27.9058 70.4295 27.8244 70.0881 27.7859V27.5841H76.5128V27.7859C76.338 27.8144 76.1307 27.8538 75.8846 27.9087C75.6447 27.9596 75.414 28.0469 75.2005 28.1674C74.9793 28.295 74.7894 28.4702 74.6446 28.6805C74.4776 28.9423 74.3902 29.247 74.393 29.5576C74.3798 30.0285 74.3689 30.4588 74.3628 30.8458L74.3426 31.997C74.3344 32.3731 74.3343 32.7634 74.3343 33.1657V36.8298C74.3343 37.1779 74.336 37.543 74.3426 37.9097C74.3492 38.2765 74.3535 38.6898 74.3535 39.147C74.3667 39.5779 74.3826 39.9846 74.404 40.3749C74.3999 40.677 74.4729 40.9751 74.6161 41.2411C74.7065 41.3315 74.8156 41.4009 74.9357 41.4444C75.1251 41.5179 75.3206 41.5742 75.5201 41.6127C75.7499 41.658 75.9986 41.699 76.2662 41.7355C76.5339 41.7683 76.8033 41.7851 77.0731 41.786C77.1636 41.786 77.3014 41.782 77.4836 41.7768L77.4842 41.7768L77.5867 41.7739C77.8208 41.7673 78.0795 41.7575 78.3613 41.7355C78.6431 41.7136 78.932 41.6851 79.2274 41.6445C79.4929 41.6102 79.7555 41.5563 80.013 41.4834C80.4886 41.3655 80.9411 41.1687 81.3517 40.9012C81.6966 40.669 82.0054 40.3874 82.2682 40.0652ZM90.8482 41.1418C90.7182 40.9077 90.6563 40.6419 90.6695 40.3744C90.6564 40.0109 90.6492 39.6343 90.6492 39.2479V32.5046C90.6492 32.1664 90.6542 31.8353 90.6602 31.5075C90.6662 31.1797 90.6695 30.8431 90.6695 30.5065C90.6832 30.2006 90.6942 29.8728 90.6997 29.5231C90.6957 29.2235 90.7609 28.9271 90.8904 28.6569C91.045 28.352 91.3138 28.1205 91.6382 28.0128C91.9341 27.9138 92.238 27.8404 92.5465 27.7935V27.5918H86.5241V27.7935C86.8437 27.8276 87.1582 27.8992 87.461 28.0068C87.7335 28.1045 87.9739 28.2751 88.1561 28.5001C88.245 28.6158 88.3064 28.7502 88.3354 28.8932C88.3774 29.0789 88.4075 29.2671 88.4253 29.4567C88.445 29.6634 88.4538 29.8903 88.4538 30.1293V35.9494C88.4538 36.3518 88.4538 36.7449 88.445 37.1286L88.4318 37.8451L88.4253 38.1849C88.4181 38.5056 88.4143 38.7616 88.4143 38.9524C88.4143 39.1678 88.4115 39.3866 88.405 39.6069C88.3984 39.8273 88.383 40.0411 88.3639 40.2439C88.3487 40.4201 88.3216 40.595 88.2827 40.7674C88.2589 40.8905 88.2073 41.0065 88.132 41.1068C87.9291 41.3348 87.678 41.5147 87.3969 41.6336C87.0968 41.7579 86.7825 41.8448 86.4611 41.8923V42.094H92.5613V41.8939C92.2382 41.8584 91.9204 41.7848 91.6146 41.6747C91.3088 41.5834 91.0403 41.3967 90.8482 41.1418ZM107.012 27.9909C107.883 28.3684 108.667 28.92 109.317 29.6119C109.948 30.2935 110.439 31.0911 110.765 31.9603C111.102 32.8482 111.273 33.7905 111.268 34.7401C111.279 35.7648 111.073 36.7801 110.665 37.7201C110.276 38.6108 109.718 39.4174 109.021 40.0948C108.328 40.7676 107.508 41.2957 106.609 41.6484C104.732 42.3674 102.657 42.3705 100.778 41.6571C99.8872 41.3163 99.0726 40.803 98.3806 40.1469C97.6897 39.4842 97.1384 38.69 96.7591 37.8111C96.3625 36.8415 96.1612 35.8032 96.1665 34.7557C96.1719 33.7081 96.3839 32.672 96.7903 31.7065C97.1838 30.8209 97.7554 30.0258 98.4694 29.3707C99.1918 28.7234 100.034 28.2239 100.948 27.9004C101.908 27.5577 102.92 27.3843 103.939 27.3879C104.994 27.3704 106.041 27.5759 107.012 27.9909ZM107.524 39.5795C107.952 38.8708 108.268 38.0998 108.46 37.2941C108.667 36.4643 108.773 35.6124 108.775 34.7571C108.773 33.922 108.667 33.0905 108.46 32.2815C108.265 31.4817 107.946 30.7172 107.514 30.0159C107.112 29.3584 106.572 28.7953 105.933 28.3647C105.269 27.9322 104.49 27.7114 103.699 27.7316C102.897 27.7102 102.107 27.9307 101.432 28.3642C100.794 28.788 100.257 29.3487 99.8618 30.0055C99.439 30.713 99.1332 31.4842 98.9562 32.2892C98.7625 33.139 98.664 34.0078 98.6624 34.8794C98.6611 35.7683 98.7699 36.654 98.9864 37.5161C99.1771 38.3101 99.5003 39.0662 99.9424 39.7527C100.349 40.3823 100.893 40.9121 101.532 41.303C102.205 41.7024 102.977 41.9042 103.759 41.8852C104.543 41.9052 105.314 41.68 105.964 41.2411C106.596 40.8041 107.128 40.2377 107.524 39.5795ZM125.908 27.7908C126.432 27.8437 126.937 28.0122 127.388 28.2842C127.72 28.504 127.972 28.8256 128.106 29.2007C128.228 29.5742 128.289 29.9647 128.287 30.3574C128.3 30.8469 128.307 31.3617 128.307 31.8962V38.7457L118.76 27.5891H114.672V27.7908C114.899 27.8211 115.124 27.8654 115.346 27.9235C115.581 27.9809 115.803 28.0827 116 28.2233C116.214 28.3782 116.393 28.5764 116.525 28.8049C116.686 29.1 116.782 29.4262 116.807 29.7615C116.82 30.1518 116.827 30.4807 116.827 30.7482V33.2036C116.827 34.1048 116.82 34.9473 116.807 35.7313C116.794 36.5179 116.774 37.1977 116.746 37.776C116.719 38.5434 116.68 39.2013 116.626 39.7494C116.606 40.1888 116.481 40.6171 116.263 40.9988C116.082 41.2875 115.813 41.5104 115.495 41.6347C115.185 41.7588 114.86 41.8424 114.529 41.8835V42.0869H119.49V41.8868C119.042 41.8477 118.603 41.7366 118.191 41.5579C117.887 41.413 117.643 41.1676 117.499 40.8634C117.34 40.4731 117.255 40.0561 117.25 39.6343C117.216 39.0829 117.197 38.465 117.195 37.7809V29.284C118.109 30.3029 118.974 31.2897 119.791 32.2442L122.298 35.1721C123.149 36.1746 124.045 37.2263 124.984 38.3275C125.923 39.4286 126.963 40.6364 128.105 41.951C128.196 42.0626 128.326 42.135 128.469 42.1532C128.496 42.1539 128.523 42.1498 128.549 42.1412C128.574 42.1329 128.598 42.1197 128.618 42.1023C128.635 42.0845 128.648 42.0634 128.657 42.0403C128.665 42.0182 128.67 41.9948 128.67 41.9712V40.6616C128.67 40.1803 128.666 39.6943 128.659 39.2035C128.653 38.7101 128.647 38.2332 128.647 37.7623V36.4724C128.647 35.5756 128.659 34.733 128.679 33.9464C128.699 33.1597 128.722 32.4783 128.749 31.8994C128.769 31.4154 128.791 30.9505 128.813 30.5101L128.829 30.1606C128.827 29.7799 128.887 29.4014 129.009 29.0406C129.144 28.6859 129.387 28.3828 129.705 28.1745C130.072 27.9647 130.48 27.834 130.901 27.7908V27.5891H125.905L125.908 27.7908ZM38.1767 55.4747C38.4117 55.5647 38.6303 55.6929 38.8236 55.8541C39.0112 56.0086 39.1666 56.1986 39.2807 56.4132C39.3974 56.643 39.4561 56.8978 39.4518 57.1554C39.46 57.5923 39.3138 58.018 39.039 58.3576C38.9191 58.5054 38.7794 58.636 38.624 58.7457C38.484 58.8468 38.3312 58.9288 38.1696 58.9897C37.886 59.0901 37.5895 59.1493 37.2892 59.1656C36.9636 59.1857 36.6493 59.1958 36.3463 59.1958H32.771V59.0916C32.9399 59.0659 33.1054 59.0214 33.2644 58.959C33.409 58.9031 33.5384 58.8139 33.6421 58.6986C33.683 58.6452 33.7115 58.5834 33.7254 58.5177C33.7446 58.4382 33.7633 58.3532 33.7803 58.2436C33.7972 58.134 33.8115 58.0315 33.8175 57.9147C33.8236 57.7979 33.8268 57.6883 33.8268 57.5786C33.8268 57.4816 33.8285 57.3512 33.8323 57.1851C33.8339 57.1163 33.835 57.0452 33.8362 56.9715V56.9712V56.971V56.9708L33.8362 56.9692V56.9689C33.8379 56.8653 33.8396 56.7565 33.8427 56.6418C33.8482 56.4446 33.8482 56.2425 33.8482 56.0359V56.0355V54.4304V54.4301C33.8482 54.2784 33.8482 54.1222 33.8427 53.9634C33.8373 53.8044 33.8373 53.6229 33.8373 53.4152C33.8373 53.2907 33.8334 53.1647 33.8268 53.0375C33.821 52.9142 33.809 52.7912 33.7907 52.6691C33.7767 52.5628 33.756 52.4575 33.7287 52.3539C33.7142 52.2788 33.6806 52.2088 33.6311 52.1505C33.5453 52.055 33.4391 51.98 33.3203 51.9312C33.1779 51.8854 33.0308 51.8558 32.8818 51.843V51.7399H36.3726C36.6239 51.738 36.875 51.7534 37.1242 51.786C37.3593 51.8163 37.5902 51.8737 37.8122 51.957C38.15 52.0783 38.45 52.2863 38.6821 52.56C38.9174 52.8485 39.0391 53.2131 39.0242 53.5851C39.0325 53.7893 38.9978 53.9931 38.9222 54.183C38.8466 54.3729 38.732 54.5448 38.5856 54.6875C38.266 54.982 37.8682 55.178 37.4399 55.2521V55.2938C37.6921 55.323 37.9397 55.3837 38.1767 55.4747ZM34.9813 53.4832C34.9764 53.7737 34.9764 54.0494 34.9764 54.3131L34.9753 55.3075H35.5547C35.7141 55.3075 35.842 55.3044 35.9385 55.2982C36.4591 55.3026 36.963 55.1139 37.3528 54.7687C37.5098 54.6157 37.6335 54.4319 37.7164 54.229C37.7992 54.026 37.8392 53.8081 37.8341 53.589C37.8392 53.2621 37.7473 52.941 37.5699 52.6664C37.4116 52.4134 37.183 52.212 36.912 52.0869C36.534 51.9369 36.129 51.8666 35.7225 51.8803C35.5906 51.8795 35.4588 51.8865 35.3278 51.9011C35.2366 51.9091 35.1464 51.9261 35.0586 51.9521C35.0564 51.9729 35.0531 51.9932 35.0493 52.0107C35.0455 52.0283 35.0416 52.0475 35.0372 52.0656C35.0296 52.1085 35.0247 52.1519 35.0224 52.1955C35.0191 52.2481 35.0159 52.3089 35.0126 52.3862C35.0093 52.4635 35.0038 52.5628 34.9961 52.6866C34.991 52.8618 34.9881 53.0488 34.985 53.2491L34.9813 53.4832ZM37.3265 58.7879C37.6017 58.65 37.8346 58.4401 38.0002 58.1806C38.1641 57.9081 38.2469 57.5945 38.2386 57.2766C38.24 57.0839 38.2064 56.8926 38.1394 56.712C38.075 56.5366 37.9844 56.3719 37.8708 56.2235C37.7567 56.0758 37.6206 55.9464 37.4673 55.8398C37.3092 55.7312 37.1365 55.6458 36.9542 55.586C36.8076 55.5394 36.6569 55.5067 36.5042 55.4884C36.3303 55.4703 36.1555 55.4617 35.9807 55.4627H34.9764V56.7569C34.9764 56.951 34.9775 57.1291 34.9813 57.2909C34.9852 57.4526 34.9852 57.5918 34.9852 57.7091C34.9923 57.9733 35.006 58.1866 35.0224 58.3571C35.033 58.5083 35.0848 58.6537 35.1721 58.7775C35.2492 58.8626 35.3454 58.9282 35.4528 58.9688C35.6259 59.0275 35.8084 59.0535 35.9911 59.0456C36.2093 59.0446 36.4274 59.0307 36.644 59.0039C36.8829 58.975 37.1144 58.9018 37.3265 58.7879ZM47.0846 51.8457C47.3514 51.8712 47.6086 51.9583 47.8361 52.1001C48.0009 52.216 48.1255 52.3804 48.1924 52.5704C48.2252 52.6587 48.2466 52.7508 48.256 52.8445C48.2692 52.9582 48.2792 53.0808 48.2862 53.2123C48.2939 53.3428 48.2993 53.4815 48.3015 53.6268L48.3027 53.6957L48.3039 53.7622C48.3058 53.8597 48.3076 53.9554 48.3076 54.0505V55.8118C48.3076 56.0465 48.2993 56.2866 48.2812 56.5316C48.2643 56.7739 48.2296 57.0147 48.1776 57.2519C48.1271 57.482 48.0472 57.7045 47.9397 57.9141C47.8309 58.1229 47.6832 58.309 47.5045 58.4623C47.3037 58.6305 47.0716 58.757 46.8214 58.8345C46.4973 58.9318 46.1599 58.9773 45.8215 58.9694C45.506 58.9754 45.1925 58.9174 44.9 58.7989C44.6382 58.6906 44.4047 58.5237 44.2176 58.311C44.0221 58.0871 43.8739 57.8261 43.7817 57.5436C43.6745 57.2208 43.619 56.8832 43.6173 56.5431C43.6173 56.3787 43.6173 56.2213 43.6129 56.0717C43.6085 55.922 43.6069 55.7713 43.6069 55.6134V53.5522C43.6069 53.4207 43.6089 53.2858 43.6129 53.1477C43.6129 53.0401 43.6176 52.9194 43.6228 52.7859L43.6272 52.6713C43.6286 52.5335 43.6642 52.3983 43.7308 52.2777C43.7879 52.1804 43.866 52.0971 43.9594 52.0337C44.0511 51.9743 44.1523 51.9309 44.2587 51.9055C44.3617 51.8799 44.4653 51.8589 44.5695 51.8424V51.7388H41.4832V51.8424C41.6476 51.8598 41.8093 51.8966 41.9651 51.9521C42.1051 52.0012 42.2285 52.0886 42.3214 52.2042C42.3688 52.2628 42.4008 52.3324 42.4146 52.4065C42.4367 52.502 42.4522 52.5989 42.4612 52.6965C42.471 52.8028 42.4765 52.9196 42.4765 53.0424V54.7966C42.4765 55.1759 42.4765 55.5218 42.471 55.831C42.4663 56.0978 42.4665 56.3237 42.4666 56.5053L42.4666 56.5886C42.4666 56.6703 42.471 56.7958 42.4809 56.9663C42.4956 57.1557 42.5307 57.343 42.5856 57.5249C42.65 57.7421 42.7402 57.9508 42.8542 58.1466C42.9874 58.3702 43.1615 58.5667 43.3673 58.726C43.619 58.9185 43.9055 59.0607 44.211 59.1448C45.0422 59.3544 45.9126 59.3529 46.743 59.1404C47.0517 59.0521 47.3401 58.9045 47.5922 58.7057C47.8012 58.5367 47.9755 58.3288 48.1053 58.0934C48.2217 57.8813 48.3101 57.655 48.3684 57.4202C48.4217 57.2117 48.4549 56.9986 48.4676 56.7838L48.4934 56.2866C48.5073 55.825 48.5193 55.4111 48.5296 55.0449C48.5393 54.7184 48.5465 54.4192 48.553 54.1482L48.5553 54.0494C48.5553 53.8915 48.5586 53.7309 48.5652 53.5676C48.5734 53.4064 48.5849 53.2535 48.597 53.1093C48.6091 52.9651 48.625 52.8352 48.6431 52.7256C48.6513 52.6441 48.6697 52.564 48.6979 52.4871C48.7648 52.3065 48.8858 52.1508 49.0443 52.0414C49.2297 51.9323 49.4366 51.8648 49.6506 51.8435V51.7405H47.0835L47.0846 51.8457ZM58.113 58.8389C58.1505 58.8717 58.1922 58.8995 58.2369 58.9217C58.3554 58.9642 58.4769 58.9983 58.6003 59.0236C58.7728 59.0607 58.9478 59.085 59.1238 59.0965V59.1991H56.7929C56.7607 59.1841 56.7302 59.1657 56.7019 59.1442C56.659 59.113 56.6205 59.0761 56.5874 59.0346C56.1444 58.5252 55.7242 58.04 55.3265 57.5792C54.9289 57.1183 54.5163 56.6542 54.0887 56.1868C53.976 56.0528 53.853 55.9278 53.7209 55.8129C53.6715 55.7728 53.6119 55.7474 53.5488 55.7395C53.5302 55.7378 53.5115 55.7402 53.494 55.7466C53.4749 55.7527 53.4575 55.763 53.443 55.7767C53.4197 55.8141 53.4013 55.8542 53.3882 55.8962V56.9208C53.3882 57.2393 53.3914 57.5117 53.398 57.7398C53.4052 57.9388 53.4172 58.1257 53.4402 58.2984C53.4487 58.4397 53.4953 58.5761 53.5751 58.6931C53.6266 58.7653 53.6932 58.8255 53.7702 58.8696C53.8558 58.9179 53.946 58.9576 54.0394 58.988C54.1328 59.0175 54.2278 59.0417 54.3239 59.0604C54.4171 59.0779 54.4993 59.09 54.5679 59.0971V59.1991H51.2469V59.0949C51.4163 59.0691 51.5829 59.0278 51.7447 58.9716C51.8839 58.929 52.0091 58.8501 52.1076 58.743C52.1485 58.6876 52.1769 58.624 52.1909 58.5566C52.2121 58.4626 52.2275 58.3674 52.237 58.2715C52.2474 58.1652 52.2529 58.0528 52.2572 57.93C52.2605 57.8087 52.2622 57.6932 52.2622 57.5836C52.2622 57.4865 52.2633 57.3561 52.2677 57.19C52.272 57.0239 52.272 56.843 52.272 56.6511V53.4272C52.272 53.1668 52.2627 52.9229 52.2474 52.7036C52.2464 52.5344 52.1978 52.3689 52.107 52.2261C52.0129 52.112 51.8918 52.0233 51.7546 51.9679C51.6015 51.9097 51.4416 51.8714 51.2787 51.8539V51.7503H54.4906V51.8539C54.3584 51.8665 54.2302 51.8857 54.1068 51.9087C53.9848 51.9322 53.8708 51.9862 53.7752 52.0655C53.6656 52.1622 53.582 52.2847 53.5318 52.4218C53.4564 52.638 53.4193 52.8656 53.4221 53.0945C53.4156 53.2529 53.4106 53.402 53.4062 53.5401C53.4019 53.6783 53.4019 53.8384 53.4019 54.016V55.6227C53.5788 55.5062 53.7465 55.3762 53.9035 55.234C54.1151 55.0509 54.3343 54.8459 54.5662 54.6173C54.7986 54.3896 55.0285 54.155 55.2558 53.9135C55.4831 53.6719 55.6801 53.4612 55.8468 53.2814C55.9599 53.1465 56.065 53.005 56.1614 52.8577C56.244 52.742 56.2925 52.6054 56.3012 52.4635C56.3078 52.3793 56.2921 52.2947 56.2557 52.2185C56.22 52.1416 56.1641 52.0758 56.094 52.0282C55.9498 51.9358 55.7873 51.8756 55.6176 51.8517V51.7481H58.3942V51.8517C58.0049 51.9009 57.6363 52.0552 57.328 52.298C56.9446 52.5796 56.5785 52.884 56.2316 53.2096C56.0863 53.3401 55.94 53.4804 55.787 53.6333C55.6341 53.7863 55.4828 53.9387 55.3348 54.0894C55.1868 54.2402 55.042 54.386 54.9006 54.528C54.7592 54.6699 54.6298 54.8021 54.513 54.9259C54.5476 54.9684 54.6125 55.0443 54.7051 55.1526L54.7054 55.153L54.7739 55.2331L54.8968 55.3771C55.0399 55.5453 55.2062 55.7335 55.3913 55.943L55.3916 55.9433L55.3943 55.9463L55.4484 56.0075L55.6094 56.1901C55.8857 56.4996 56.1804 56.8309 56.4936 57.1839L56.8828 57.6181L57.4003 58.1992C57.4748 58.2868 57.5545 58.3699 57.6388 58.448C57.7287 58.5288 57.8153 58.6019 57.8986 58.6673L58.0033 58.7506L58.113 58.8389ZM62.5056 58.7134C62.4385 58.5938 62.4063 58.4578 62.4124 58.3209C62.4052 58.1328 62.4009 57.9371 62.4009 57.7403V54.2714C62.4009 54.1495 62.4028 54.0298 62.4046 53.9106V53.9104V53.9102V53.9099V53.9097V53.9094V53.9092L62.4069 53.7589L62.4086 53.6342C62.4105 53.5058 62.4124 53.3764 62.4124 53.2452C62.4189 53.0868 62.4233 52.9163 62.4272 52.7381C62.4253 52.5843 62.4591 52.4322 62.5258 52.2936C62.6049 52.1366 62.7429 52.0172 62.9096 51.9614C63.0616 51.9099 63.2179 51.8717 63.3766 51.8473V51.7437H60.2772V51.8473C60.4414 51.8645 60.603 51.9013 60.7585 51.957C60.8991 52.0058 61.0231 52.0932 61.1165 52.2091C61.1628 52.2684 61.1947 52.3377 61.2097 52.4114C61.231 52.507 61.2464 52.6039 61.2557 52.7014C61.2661 52.8078 61.2716 52.9245 61.2716 53.0473V56.0404V56.0417C61.2716 56.2479 61.2716 56.4498 61.2661 56.6467C61.2629 56.7615 61.2612 56.8704 61.2596 56.9741C61.2584 57.0486 61.2573 57.1205 61.2557 57.19C61.2519 57.3561 61.2502 57.4865 61.2502 57.5836C61.2502 57.6932 61.2502 57.8028 61.2447 57.9196L61.2445 57.9247C61.2391 58.0395 61.2342 58.1448 61.2244 58.2485C61.2157 58.3389 61.2018 58.4288 61.1828 58.5177C61.1713 58.5813 61.1448 58.6412 61.1055 58.6925C61.0014 58.8097 60.8726 58.9022 60.7283 58.9633C60.5739 59.0269 60.4123 59.0715 60.247 59.096V59.2002L63.3865 59.2034V59.0987C63.2202 59.0799 63.0568 59.0412 62.8997 58.9836C62.7429 58.9378 62.6048 58.8431 62.5056 58.7134ZM71.3485 51.8172C71.5384 51.8144 71.7277 51.7948 71.9142 51.7585C72.0628 51.7289 72.2157 51.6884 72.372 51.6434L72.7009 53.6624L72.6077 53.6947C72.5523 53.5692 72.4865 53.4409 72.4114 53.3061C72.3363 53.1712 72.2557 53.0479 72.1773 52.9284C72.099 52.8089 72.0211 52.7009 71.9449 52.5995C71.8862 52.5195 71.8203 52.445 71.7481 52.3769C71.6169 52.2468 71.4546 52.1525 71.2767 52.1028C71.0648 52.052 70.8477 52.0258 70.6298 52.025C70.4983 52.025 70.3853 52.0244 70.2883 52.0189C70.1913 52.0135 70.0944 52.0135 69.9991 52.0135H69.9989H69.3153C69.3149 52.186 69.3129 52.4208 69.3092 52.7179C69.3056 53.015 69.3038 53.3256 69.3038 53.6498V57.7003C69.3038 57.901 69.3094 58.0926 69.3208 58.2754C69.3169 58.4109 69.3507 58.5449 69.4183 58.6624C69.5225 58.8156 69.678 58.9265 69.8569 58.9749C70.0257 59.0249 70.1969 59.0663 70.37 59.0987V59.2013H67.003V59.0965C67.1787 59.0775 67.3524 59.0432 67.5222 58.994C67.7132 58.9281 67.8816 58.8093 68.0079 58.6514C68.0496 58.6032 68.0768 58.544 68.0862 58.4809C68.1048 58.392 68.1189 58.3022 68.1285 58.2118C68.1383 58.112 68.1443 58.004 68.1487 57.8862C68.1531 57.7685 68.1531 57.6536 68.1531 57.5441V57.5435C68.1531 57.4449 68.1542 57.3177 68.1597 57.1598C68.1619 57.0443 68.1641 56.9206 68.1663 56.7887V56.7739L68.1701 56.6297C68.1739 56.435 68.1739 56.2369 68.1739 56.028V56.0267V52.0113H67.4904C67.4005 52.0113 67.304 52.0135 67.2048 52.0167C67.1055 52.02 66.9882 52.0228 66.8572 52.0228C66.6383 52.0228 66.4204 52.0541 66.2103 52.116C66.0336 52.1758 65.8725 52.2745 65.7389 52.4049C65.6685 52.4719 65.6044 52.5453 65.5476 52.6241L65.5034 52.6843C65.4447 52.764 65.3833 52.8476 65.319 52.9415C65.2384 53.0594 65.1617 53.1816 65.0921 53.3077C65.0231 53.43 64.9659 53.5585 64.921 53.6914L64.8278 53.6591L65.1392 51.6917C65.2965 51.7273 65.4423 51.7542 65.5777 51.775C65.7718 51.8001 65.9671 51.8142 66.1627 51.8172L66.8665 51.832C67.0759 51.8369 67.276 51.8369 67.4695 51.8369H69.437C69.6469 51.8369 69.8476 51.8347 70.04 51.832L70.643 51.8216C70.8511 51.8172 71.085 51.8172 71.3478 51.8172H71.3485ZM77.5621 51.8484C77.7384 51.8682 77.9133 51.8992 78.0856 51.9411C78.2411 51.9744 78.3813 52.0578 78.4847 52.1785C78.5306 52.2388 78.5607 52.3097 78.5724 52.3846C78.5894 52.4761 78.6031 52.5775 78.613 52.6926C78.6228 52.8078 78.63 52.9251 78.63 53.0479V56.6511C78.63 56.8446 78.63 57.0233 78.6234 57.19C78.6179 57.3303 78.6182 57.4458 78.6184 57.5361L78.6185 57.5841C78.6119 57.7771 78.5993 57.9706 78.5839 58.1641C78.569 58.3388 78.5393 58.5119 78.4951 58.6816C78.4509 58.8329 78.371 58.9715 78.2621 59.0856C78.2071 59.1404 78.1417 59.1836 78.0697 59.2128C77.9973 59.2409 77.9199 59.2542 77.8422 59.2517C77.7821 59.2501 77.7228 59.2381 77.6668 59.216C77.6084 59.1945 77.5576 59.1564 77.5205 59.1064V59.0746C77.6511 59.0598 77.7758 59.0119 77.8828 58.9354C77.933 58.8935 77.9723 58.8401 77.9974 58.7797C78.0233 58.7195 78.0337 58.6537 78.0275 58.5884C78.0272 58.4538 77.9738 58.3248 77.8788 58.2296C77.7838 58.1343 77.655 58.0804 77.5205 58.0797C77.365 58.0794 77.2145 58.1346 77.0962 58.2353C77.0359 58.2837 76.9878 58.3454 76.9558 58.4157C76.9239 58.4859 76.9082 58.5623 76.9098 58.6394C76.9066 58.7567 76.9334 58.8729 76.9876 58.977C77.0362 59.0666 77.1079 59.1413 77.1954 59.1936C77.2854 59.2475 77.383 59.2878 77.4848 59.3131C77.5923 59.3405 77.7028 59.3545 77.8137 59.3547C78.3031 59.3429 78.7753 59.172 79.159 58.868C79.3273 58.7416 79.4742 58.5891 79.5942 58.4162C79.7076 58.2429 79.765 58.0389 79.7587 57.8319V54.2687C79.7587 54.0949 79.7587 53.9255 79.7631 53.7561C79.7675 53.5867 79.7691 53.4162 79.7691 53.2425L79.774 53.1204L79.7779 53.0283C79.782 52.933 79.7862 52.8339 79.7899 52.731C79.7895 52.5798 79.8214 52.4303 79.8837 52.2925C79.9242 52.2136 79.9801 52.1437 80.0481 52.0869C80.1153 52.0295 80.1935 51.9864 80.2778 51.9603C80.4332 51.91 80.5923 51.8722 80.7536 51.8473V51.7437H77.5643L77.5621 51.8484ZM88.7077 58.5774C88.7635 58.6548 88.8277 58.7257 88.899 58.789C88.987 58.8683 89.0869 58.9333 89.1951 58.9814C89.3248 59.0404 89.4653 59.0721 89.6078 59.0746V59.1985H86.5835V59.0944C86.7205 59.0834 86.855 59.052 86.9826 59.0012C87.0671 58.9688 87.1443 58.9198 87.2095 58.857C87.2428 58.8267 87.2686 58.7892 87.2852 58.7474C87.3022 58.7061 87.3099 58.6615 87.3077 58.6169C87.3015 58.5133 87.2831 58.4108 87.2529 58.3116C87.215 58.1718 87.1608 57.9985 87.0922 57.7935C87.0243 57.5907 86.9451 57.365 86.8549 57.1165C86.7646 56.868 86.6677 56.6089 86.5643 56.3392H83.8086L83.7616 56.458L83.7604 56.461C83.6741 56.6794 83.5909 56.8899 83.5104 57.0907L83.2204 57.81C83.106 58.0587 83.032 58.324 83.0011 58.5961C82.9992 58.6369 83.0055 58.6776 83.0196 58.716C83.0338 58.7543 83.0554 58.7894 83.0834 58.8192C83.1438 58.8816 83.2161 58.9314 83.296 58.9655C83.3857 59.0035 83.4796 59.0307 83.5756 59.0467C83.6759 59.0659 83.7702 59.0807 83.8607 59.0927V59.1963H81.6542V59.0823C81.8163 59.0674 81.9733 59.0181 82.1147 58.9376C82.1953 58.896 82.2701 58.844 82.3373 58.783C82.4266 58.6764 82.5064 58.5621 82.5757 58.4415C82.7257 58.1838 82.8602 57.9175 82.9787 57.6439C83.0969 57.3802 83.2249 57.086 83.3657 56.7626L83.4643 56.536L83.5761 56.2797C83.7213 55.9468 83.8699 55.6061 84.0202 55.2571C84.2093 54.818 84.3985 54.3778 84.5848 53.9321C84.7709 53.4859 84.9472 53.07 85.1138 52.6844L85.0102 52.4558C85.1292 52.4027 85.2419 52.3366 85.3463 52.2585C85.4415 52.1876 85.53 52.1079 85.6105 52.0206C85.6796 51.9458 85.7437 51.8665 85.8024 51.7832C85.8539 51.7059 85.8944 51.6445 85.9213 51.5963H86.0035L86.2832 52.342C86.3971 52.6459 86.5078 52.941 86.6153 53.2271C86.8088 53.7419 86.9947 54.2363 87.1701 54.7133C87.2125 54.8287 87.2545 54.9434 87.2962 55.0571L87.2964 55.0576L87.2968 55.0586C87.427 55.4141 87.5539 55.7606 87.6821 56.0958C87.7836 56.3612 87.8833 56.6267 87.9824 56.8902L87.9826 56.8909C88.0487 57.0669 88.1146 57.2421 88.1804 57.4158C88.2555 57.6307 88.3262 57.8083 88.3914 57.9503L88.614 58.4311C88.6424 58.4816 88.6737 58.5305 88.7077 58.5774ZM84.3612 54.9879C84.2197 55.3369 84.0663 55.715 83.9007 56.1221H86.4794C86.362 55.8113 86.2436 55.501 86.1225 55.1902C86.0345 54.9643 85.9473 54.7437 85.8631 54.5306L85.7695 54.2934C85.6571 54.0083 85.554 53.7457 85.4603 53.5073C85.3665 53.2688 85.2882 53.0731 85.2262 52.9229C85.1846 53.0128 85.1221 53.1553 85.0453 53.3477C84.987 53.494 84.914 53.6647 84.8309 53.8593L84.83 53.8613L84.83 53.8614L84.7493 54.0505C84.632 54.3262 84.5026 54.6404 84.3612 54.9879ZM97.3308 57.6329C97.2433 57.8218 97.1328 57.9991 97.0019 58.1608C96.8673 58.3266 96.7087 58.4715 96.5315 58.5906C96.3197 58.7278 96.0867 58.8289 95.8419 58.8899C95.7098 58.9283 95.5749 58.9563 95.4384 58.9738C95.2866 58.9935 95.1391 59.0083 94.9922 59.0193C94.8453 59.0302 94.7154 59.0363 94.5937 59.0396L94.5292 59.0413C94.4409 59.0438 94.3756 59.0456 94.3305 59.0456C94.1916 59.0453 94.0529 59.0365 93.915 59.0193C93.7769 59.0012 93.6492 58.9814 93.5313 58.9562C93.4291 58.9368 93.3289 58.908 93.232 58.8702C93.17 58.848 93.1138 58.8123 93.0675 58.7655C92.9941 58.6285 92.9564 58.4752 92.9579 58.3198C92.9469 58.1192 92.9392 57.9103 92.9321 57.6888V57.6878C92.9321 57.4531 92.9321 57.2412 92.9267 57.0518C92.9212 56.8622 92.9206 56.6769 92.9206 56.4976V54.6124C92.9206 54.4068 92.9206 54.2051 92.9267 54.0094C92.9302 53.8932 92.9319 53.7777 92.9335 53.6608L92.9352 53.5469C92.9359 53.5044 92.9367 53.4616 92.9376 53.4185L92.9413 53.2424C92.9444 53.0906 92.9477 52.9292 92.9524 52.7557C92.9514 52.5965 92.9963 52.4405 93.0818 52.3062C93.1556 52.1974 93.2533 52.1068 93.3674 52.0414C93.4769 51.979 93.5954 51.9341 93.7188 51.9082C93.8443 51.8797 93.9512 51.86 94.0411 51.8452V51.7416H90.7372V51.8452C90.9126 51.8652 91.0848 51.9072 91.2497 51.9702C91.4003 52.0241 91.5343 52.1163 91.6384 52.2377C91.6841 52.2958 91.7158 52.3637 91.7311 52.4361C91.7528 52.5293 91.7682 52.6238 91.7771 52.719C91.7879 52.8351 91.7928 52.9516 91.7919 53.0682V56.0388C91.7919 56.2453 91.7906 56.4474 91.7881 56.6451L91.7853 56.7886C91.7825 56.9302 91.78 57.0636 91.7771 57.1883C91.7733 57.3544 91.7711 57.4849 91.7711 57.5819C91.7711 57.6916 91.7661 57.8012 91.7563 57.918C91.7464 58.0347 91.7338 58.1416 91.7201 58.2469C91.7089 58.3395 91.6906 58.4312 91.6653 58.521C91.6482 58.5865 91.6184 58.6479 91.5776 58.7019C91.4678 58.8203 91.3306 58.9097 91.1779 58.9623C91.0123 59.0233 90.8409 59.0677 90.6665 59.0949V59.1991H97.3154L97.6991 57.0688L97.5961 57.037C97.5078 57.2443 97.4207 57.4438 97.3308 57.6329ZM101.321 58.3209C101.314 58.4579 101.347 58.594 101.414 58.7134C101.514 58.8437 101.653 58.9385 101.811 58.9836C101.968 59.0413 102.131 59.08 102.297 59.0987V59.2034L99.1578 59.2002V59.096C99.3232 59.0719 99.4848 59.0273 99.6392 58.9633C99.7837 58.9025 99.9128 58.8099 100.017 58.6925C100.058 58.642 100.085 58.5817 100.096 58.5177C100.115 58.4288 100.128 58.3389 100.137 58.2485C100.148 58.1432 100.153 58.0364 100.158 57.9196C100.163 57.8028 100.163 57.6932 100.163 57.5836C100.163 57.4865 100.165 57.3544 100.168 57.19C100.17 57.0677 100.173 56.9345 100.176 56.7936V56.7563L100.179 56.6467C100.183 56.4494 100.183 56.2471 100.183 56.0404V53.0473C100.184 52.9318 100.179 52.8164 100.168 52.7014C100.159 52.6038 100.144 52.5069 100.122 52.4114C100.107 52.3375 100.075 52.2682 100.028 52.2091C99.935 52.0937 99.8115 52.0064 99.6715 51.957C99.516 51.9014 99.3544 51.8646 99.1902 51.8473V51.7437H102.286V51.8473C102.127 51.8718 101.972 51.9099 101.82 51.9614C101.737 51.9886 101.661 52.0319 101.595 52.089C101.529 52.146 101.475 52.2155 101.436 52.2936C101.368 52.4316 101.334 52.5841 101.337 52.7381C101.334 52.9163 101.329 53.0868 101.321 53.2452C101.321 53.419 101.32 53.5895 101.315 53.7589C101.311 53.9283 101.311 54.0976 101.311 54.2714V57.7403C101.311 57.9391 101.314 58.1327 101.321 58.3209ZM110.866 57.6329C110.778 57.8214 110.668 57.9987 110.537 58.1608C110.403 58.3266 110.244 58.4715 110.066 58.5906C109.855 58.728 109.622 58.8291 109.378 58.8899C109.245 58.9282 109.111 58.9563 108.974 58.9738C108.822 58.9935 108.675 59.0083 108.528 59.0193C108.382 59.0302 108.251 59.0363 108.129 59.0396C108.008 59.0428 107.921 59.0456 107.866 59.0456C107.727 59.0453 107.589 59.0365 107.451 59.0193C107.313 59.0012 107.186 58.9814 107.067 58.9562C106.965 58.9368 106.865 58.908 106.768 58.8702C106.706 58.8478 106.65 58.8121 106.603 58.7655C106.53 58.6284 106.492 58.4752 106.494 58.3198C106.483 58.1191 106.474 57.9103 106.468 57.6888V57.6876C106.468 57.4529 106.468 57.2412 106.463 57.0518C106.459 56.8622 106.456 56.6769 106.456 56.4976V54.6124C106.456 54.4068 106.456 54.2051 106.463 54.0094L106.473 53.4185C106.473 53.2482 106.479 53.0616 106.485 52.8595L106.488 52.7557C106.487 52.5965 106.532 52.4405 106.617 52.3062C106.691 52.1973 106.789 52.1068 106.903 52.0414C107.012 51.9789 107.131 51.934 107.254 51.9082C107.38 51.8797 107.487 51.86 107.577 51.8452V51.7416H104.273V51.8452C104.449 51.865 104.621 51.907 104.786 51.9701C104.937 52.0241 105.07 52.1163 105.175 52.2377C105.22 52.296 105.251 52.3639 105.266 52.4361C105.289 52.5291 105.304 52.6237 105.313 52.719C105.323 52.8286 105.329 52.9426 105.329 53.0682V56.0388C105.329 56.2454 105.326 56.4477 105.323 56.6451L105.317 56.9669L105.313 57.1861C105.308 57.3506 105.307 57.4827 105.307 57.5797C105.307 57.6894 105.301 57.799 105.291 57.9158C105.28 58.0325 105.27 58.1394 105.255 58.2447C105.244 58.3375 105.225 58.4292 105.198 58.5188C105.181 58.5843 105.151 58.6457 105.11 58.6997C105.001 58.8178 104.864 58.9072 104.712 58.9601C104.546 59.0213 104.374 59.0657 104.199 59.0927V59.1969H110.848L111.232 57.0666L111.129 57.0348C111.045 57.2442 110.957 57.4438 110.866 57.6329ZM0 21.2592H144V21.587H0V21.2592Z" fill="url(#paint0_linear_3471_2121)"></path> <defs> <linearGradient id="paint0_linear_3471_2121" x1="4.46215e-07" y1="30.1136" x2="144" y2="30.1136" gradientUnits="userSpaceOnUse"> <stop stop-color="#E0BA5F"></stop> <stop offset="0.5" stop-color="#F1DDCC"></stop> <stop offset="1" stop-color="#E0BA5F"></stop> </linearGradient> </defs> </svg>