<svg width="166" height="26" viewBox="0 0 166 26" fill="none" xmlns="http://www.w3.org/2000/svg">
    <path d="M68.9248 25.0891L52.3628 0L36.5375 25.5729C36.5375 25.5729 52.3628 12.9527 68.9248 25.0891Z"
        fill="#AB956E" />
    <path
        d="M71.143 5.16895H77.6145L76.1412 6.47975V21.4836H82.9421C82.9421 21.4836 87.6993 21.3114 88.931 19.9188L87.2993 23.1183H71.7182L72.4478 21.8109V6.39495L71.143 5.16895Z"
        fill="white" />
    <path
        d="M0 23.0932L1.32015 21.2112L4.16814 7.63884C4.16814 7.63884 4.43374 5.64443 3.17186 5.18981H9.668L18.073 16.9942L25.481 5.15918H31.3832C31.1159 5.69458 30.9572 6.27756 30.9162 6.87455C30.8479 7.87531 33.8628 21.2475 33.8628 21.2475L35.2316 23.1153H29.6073L30.4052 20.9027L27.6338 8.43937L18.0603 23.1153L7.08001 8.22906L4.5671 21.0794L5.529 23.0921L0 23.0932Z"
        fill="white" />
    <path
        d="M87.0449 7.6166L88.6642 5.17578H107.531L106.477 8.01817C106.477 8.01817 105.483 6.89227 103.163 6.89227H99.324V21.8005L100.61 23.093H94.4544L95.6303 21.9115V7.29497H88.6822C88.6822 7.29497 87.6149 7.20942 87.0449 7.6166Z"
        fill="white" />
    <path
        d="M140.176 5.14697H145.608L161.497 17.5031V7.90269C161.497 7.90269 161.306 5.71776 160.043 5.19068H166L164.349 6.84217V23.0885L144.945 9.1175V21.0014L146.201 23.1195H140.61L141.964 21.1318V7.26391C141.82 6.81082 141.588 6.3906 141.281 6.02734C140.974 5.66407 140.599 5.3649 140.176 5.14697Z"
        fill="white" />
    <path
        d="M137.228 13.8533C137.228 18.9681 130.616 23.1175 122.464 23.1175C114.311 23.1175 107.706 18.9673 107.706 13.8533C107.706 8.73301 114.314 4.58691 122.464 4.58691C130.613 4.58691 137.228 8.73301 137.228 13.8533ZM122.589 6.47001C116.857 6.47001 112.215 9.77785 112.215 13.8533C112.215 17.9288 116.857 21.2337 122.589 21.2337C128.321 21.2337 132.96 17.9341 132.96 13.8533C132.96 9.77262 128.318 6.47001 122.589 6.47001Z"
        fill="white" />
</svg>