<svg width="152" height="113" viewBox="0 0 152 113" fill="none" xmlns="http://www.w3.org/2000/svg">
<rect x="76" y="81" width="1" height="32" fill="white"/>
<rect width="152" height="81" fill="url(#paint0_linear_5176_13137)"/>
<defs>
<linearGradient id="paint0_linear_5176_13137" x1="4.71004e-07" y1="41.0953" x2="152" y2="41.0953" gradientUnits="userSpaceOnUse">
<stop stop-color="#E0BA5F"/>
<stop offset="0.5" stop-color="#F1DDCC"/>
<stop offset="1" stop-color="#E0BA5F"/>
</linearGradient>
</defs>
    <g filter="url(#filter0_d_4733_687)" style="overflow:hidden">
        <rect x="16" y="0" width="214" height="81" fill="url(#paint0_linear_4733_687)"></rect>
        <rect mask="url(#mask_1_)" id="shine" x="100" y="0" width="50%" height="81" fill="url(#shine_2_)" style="
      ">
            <animate attributeName="x" values="-50%;230" dur="3s" repeatCount="indefinite" />
        </rect>
    </g>
    <linearGradient id="shine_2_">
        <stop offset="0" style="stop-color:#ffffff;stop-opacity:0" />
        <stop offset="0.5" style="stop-color:#ffffff" />
        <stop offset="1" style="stop-color:#ffffff;stop-opacity:0" />
    </linearGradient>
<path fill-rule="evenodd" clip-rule="evenodd" d="M29.4463 28.1008L29.4465 28.1009L29.4468 28.1009C29.5924 28.1254 29.7302 28.1486 29.8613 28.1688V28.3333H26.2812V28.1478C26.5444 28.1236 26.7994 28.0434 27.029 27.9125C27.16 27.8452 27.2814 27.7605 27.3899 27.6608C27.5357 27.4885 27.6651 27.303 27.7764 27.1067C28.0204 26.6884 28.2394 26.2562 28.4324 25.8121C28.6669 25.2864 28.9302 24.6874 29.2222 24.0149L30.1208 21.9391C30.4278 21.2286 30.7323 20.512 31.0344 19.7893C31.3365 19.0666 31.622 18.3916 31.891 17.7642L31.7233 17.3951C31.9176 17.3098 32.1015 17.2025 32.2715 17.0754C32.4252 16.9591 32.5686 16.8298 32.7 16.6889C32.8126 16.5673 32.9165 16.438 33.0111 16.302C33.0942 16.1786 33.1577 16.0786 33.2034 16H33.3382C33.686 16.9301 34.0165 17.8121 34.3299 18.6459C34.6433 19.4798 34.943 20.2836 35.229 21.0575C35.5137 21.8298 35.7907 22.5773 36.0599 23.3C36.3291 24.0227 36.5979 24.7369 36.8662 25.4425C36.9892 25.7918 37.104 26.0811 37.2106 26.3105C37.3172 26.5398 37.4377 26.8002 37.572 27.0916C37.6175 27.1731 37.6678 27.2518 37.7227 27.3273C37.8139 27.4529 37.9182 27.5684 38.0338 27.6718C38.1769 27.7984 38.3381 27.903 38.5121 27.982C38.7236 28.0768 38.9519 28.1284 39.1836 28.1336V28.3351H34.2788V28.167C34.3605 28.1604 34.4418 28.1493 34.5222 28.1336C34.6605 28.1083 34.7958 28.0689 34.9261 28.0162C35.0629 27.9614 35.1882 27.8814 35.2956 27.7805C35.3481 27.731 35.3893 27.6709 35.4167 27.6042C35.4441 27.5376 35.4574 27.466 35.4555 27.394C35.4439 27.2256 35.4132 27.059 35.3642 26.8975C35.3027 26.6684 35.2157 26.3886 35.1033 26.0578C34.9928 25.7271 34.8643 25.3604 34.7178 24.9578C34.5713 24.5552 34.4143 24.1351 34.2468 23.6974H29.7772C29.6105 24.1232 29.4479 24.5307 29.2907 24.9158C29.1336 25.3009 28.9769 25.691 28.8207 26.0834C28.6356 26.4882 28.5164 26.9201 28.4675 27.3625C28.4652 27.4285 28.4758 27.4942 28.4988 27.5561C28.5219 27.6179 28.5569 27.6746 28.6018 27.7229C28.6991 27.8244 28.8164 27.9045 28.9463 27.9582C29.0912 28.0217 29.2434 28.067 29.3995 28.093L29.4463 28.1008ZM31.3067 19.9862C31.1166 20.4345 30.9067 20.9411 30.6767 21.5061H30.6781C30.4488 22.0716 30.1983 22.6853 29.9266 23.3471H34.1102C33.9202 22.8432 33.726 22.3393 33.5305 21.835C33.3874 21.4659 33.246 21.1073 33.1089 20.7594L32.9599 20.3814C32.7772 19.9168 32.6095 19.4906 32.4574 19.105C32.3061 18.7176 32.18 18.4011 32.0792 18.1553C32.0143 18.3006 31.9147 18.5308 31.7859 18.8442C31.6565 19.1572 31.4967 19.5379 31.3067 19.9862ZM73.9352 28.0098C73.1475 27.7659 72.4225 27.3532 71.8105 26.8006C71.2278 26.2586 70.775 25.592 70.4862 24.8505C70.1679 24.0282 70.0111 23.1524 70.0243 22.2708C70.034 21.5493 70.1616 20.8342 70.4021 20.1539C70.554 19.7253 70.7511 19.3141 70.99 18.9273C71.2555 18.4964 71.5746 18.101 71.9398 17.7505C72.5116 17.2023 73.1853 16.7713 73.9228 16.4819C74.8353 16.1405 75.805 15.9781 76.7789 16.0037C77.3775 15.9957 77.9751 16.0549 78.5605 16.18C79.0039 16.2758 79.4394 16.405 79.8633 16.5665C80.1449 16.6721 80.4172 16.8011 80.6774 16.952C80.7772 17.0227 80.8844 17.0823 80.9972 17.1297C81.0177 17.1297 81.0789 17.0617 81.1799 16.9273C81.281 16.793 81.404 16.6306 81.549 16.4399H81.7016V20.1032H81.4997C81.3782 19.6048 81.1918 19.1245 80.9451 18.6747C80.7309 18.2724 80.4652 17.8997 80.1548 17.566C79.7656 17.1644 79.2962 16.8495 78.777 16.6418C78.1797 16.3995 77.5399 16.2796 76.8954 16.2892C76.1973 16.2789 75.5085 16.4495 74.8959 16.7844C74.3033 17.1144 73.788 17.5669 73.3842 18.1119C72.9564 18.6904 72.6318 19.3386 72.4249 20.0278C72.1986 20.7653 72.0851 21.5327 72.0882 22.3041C72.0798 23.1134 72.1875 23.9197 72.408 24.6983C72.5954 25.3705 72.909 26.0009 73.3322 26.5558C73.727 27.0638 74.2328 27.4747 74.8109 27.7572C75.4355 28.0517 76.1195 28.1982 76.8099 28.1852C77.3245 28.1895 77.8351 28.0954 78.3143 27.908C78.767 27.7327 79.1521 27.4178 79.4138 27.0089C79.5311 26.767 79.5999 26.5044 79.6162 26.236C79.6611 25.857 79.6836 25.4756 79.6838 25.0939C79.6855 24.7402 79.6656 24.3867 79.624 24.0355C79.5968 23.7475 79.4761 23.4764 79.2804 23.2635C78.9087 22.9241 78.4224 22.738 77.9191 22.7427V22.5741H82.8409V22.7427C82.6293 22.7697 82.4209 22.8175 82.2187 22.8852C82.0206 22.9388 81.8479 23.0608 81.7313 23.2296C81.6396 23.4058 81.5936 23.6021 81.5974 23.8007C81.5855 24.0588 81.5805 24.3164 81.5805 24.5741V27.0272C81.3975 27.1561 81.2033 27.2685 81.0004 27.363C80.1772 27.7701 79.3049 28.0694 78.4052 28.2533C77.8744 28.3645 77.3335 28.4207 76.7912 28.421C75.8234 28.4356 74.8595 28.2969 73.9352 28.0098ZM17.4956 16.9278C17.5764 17.0217 17.6316 17.1348 17.656 17.2563C17.6973 17.4212 17.7254 17.5893 17.74 17.7588C17.756 17.9415 17.7679 18.1388 17.7734 18.3458C17.7789 18.5527 17.7811 18.7569 17.7811 18.9593V23.2077C17.7811 23.5449 17.7785 23.8732 17.7734 24.1926C17.7682 24.5121 17.7624 24.806 17.756 25.0743C17.751 25.3429 17.7478 25.5558 17.7478 25.7138C17.7478 25.8929 17.7428 26.0793 17.7313 26.268C17.7199 26.4566 17.7053 26.6375 17.6893 26.8061C17.6747 26.9589 17.6492 27.1105 17.613 27.2597C17.5913 27.3693 17.5456 27.4728 17.4792 27.5626C17.3194 27.7512 17.1096 27.8907 16.8739 27.9651C16.6119 28.0565 16.3422 28.124 16.0681 28.167V28.3351H21.4458V28.167C21.0726 28.1665 20.7045 28.0804 20.3699 27.9153C20.1633 27.8141 19.9845 27.6641 19.8492 27.4781C19.73 27.286 19.6667 27.0646 19.6664 26.8385C19.655 26.5813 19.6431 26.2739 19.6326 25.9153C19.6326 25.7239 19.6299 25.5498 19.6244 25.3849C19.6189 25.22 19.6157 25.0473 19.6157 24.8559V23.2767H20.523C20.8706 23.2767 21.226 23.2621 21.5901 23.2351C21.9542 23.2082 22.3151 23.1652 22.6746 23.11C23.0175 23.0573 23.3547 22.9727 23.6819 22.8573C23.9935 22.7406 24.2918 22.5912 24.5718 22.4115C24.8593 22.2308 25.1173 22.0071 25.3369 21.7482C25.5608 21.4818 25.7397 21.1808 25.8669 20.8569C26.0053 20.4985 26.0735 20.1168 26.0679 19.7327C26.0832 19.1147 25.9135 18.5062 25.5804 17.9853C25.2734 17.5084 24.8519 17.1158 24.3543 16.8433C23.8556 16.5649 23.308 16.385 22.7413 16.3134C22.0894 16.2361 21.4334 16.1994 20.777 16.2037H20.0196C19.7287 16.2037 19.4181 16.2066 19.0876 16.2124C18.7572 16.2182 18.424 16.2211 18.0881 16.2211C17.7514 16.2211 17.4413 16.2238 17.1553 16.2289C16.8693 16.2339 16.6199 16.2375 16.4079 16.2375H16.0036V16.4052C16.3061 16.4509 16.589 16.5043 16.8524 16.5655C17.0982 16.6192 17.3223 16.7454 17.4956 16.9278ZM19.6134 20.8939C19.6134 20.3558 19.6163 19.8067 19.6221 19.2466C19.6276 18.6875 19.6354 18.2106 19.6468 17.8195C19.6587 17.5614 19.6696 17.3627 19.6811 17.2225C19.6925 17.0822 19.703 16.9726 19.7144 16.894C19.7231 16.8288 19.7372 16.7645 19.7564 16.7017C19.7745 16.6438 19.7886 16.5847 19.7985 16.5249C19.877 16.5135 19.9812 16.4993 20.1096 16.4824C20.2916 16.4632 20.4747 16.4548 20.6577 16.4573C20.9725 16.4569 21.2869 16.4795 21.5983 16.5249C22.038 16.5864 22.459 16.7431 22.8319 16.9839C23.2049 17.2248 23.5208 17.5441 23.7577 17.9196C24.0907 18.4345 24.263 19.0369 24.2529 19.65C24.2609 20.3292 24.0615 20.9947 23.6814 21.5577C23.2842 22.1355 22.7054 22.5641 22.0369 22.7756C21.6737 22.9023 21.2951 22.9791 20.9113 23.004C20.5079 23.0323 20.0757 23.046 19.6171 23.046L19.6134 20.8939ZM44.061 27.9084C44.3939 28.0791 44.7626 28.1684 45.1368 28.1688L45.1418 28.3328H39.7641V28.1647C40.0386 28.1218 40.3086 28.0542 40.5709 27.9627C40.8064 27.8881 41.0161 27.7484 41.1757 27.5598C41.2421 27.47 41.2881 27.3668 41.3104 27.2574C41.3464 27.1081 41.3715 26.9563 41.3854 26.8033C41.4027 26.6352 41.416 26.4561 41.4283 26.2656C41.439 26.0753 41.4443 25.8906 41.4443 25.7115C41.4446 25.5538 41.4475 25.3406 41.453 25.072C41.4582 24.8037 41.4636 24.5098 41.4694 24.1903C41.4752 23.8708 41.4781 23.5425 41.4781 23.2054V18.957C41.4775 18.7548 41.4746 18.5502 41.4694 18.3435C41.4642 18.1367 41.4531 17.941 41.4361 17.7564C41.4219 17.5869 41.3938 17.4188 41.352 17.2539C41.3279 17.1327 41.2732 17.0196 41.193 16.9255C41.0407 16.7573 40.8463 16.6329 40.6298 16.5651C40.3786 16.4939 40.1228 16.4403 39.8642 16.4047V16.2371H40.5535C40.9336 16.2371 41.3648 16.2334 41.8472 16.2284C42.3296 16.2234 42.8102 16.2206 43.2921 16.2206H44.4685C45.2186 16.2203 45.8852 16.2425 46.4684 16.2873C47.0262 16.3254 47.5698 16.4801 48.0641 16.7414C48.543 16.9869 48.9532 17.348 49.2573 17.7921C49.5756 18.2899 49.7341 18.8731 49.7114 19.4636C49.7168 19.8482 49.6388 20.2293 49.483 20.581C49.335 20.9062 49.1299 21.2022 48.8772 21.4549C48.6173 21.7137 48.32 21.9319 47.9951 22.1022C47.656 22.2832 47.302 22.4349 46.9371 22.5558V22.6065C47.1445 22.7209 47.3318 22.8684 47.4917 23.0432C47.6791 23.2448 47.853 23.4585 48.0125 23.6828C48.3036 24.1085 48.6199 24.5678 48.9613 25.0606C49.3027 25.5533 49.608 25.9902 49.8772 26.3712C50.2042 26.8637 50.6134 27.2963 51.0869 27.6503C51.5 27.9274 51.9715 28.1056 52.4646 28.1711V28.3373H49.0211C48.9206 28.2341 48.8489 28.1596 48.8032 28.1089C48.7575 28.0582 48.7068 27.9988 48.6525 27.9321C48.5762 27.8385 48.5057 27.7402 48.4414 27.6379C48.3577 27.5094 48.2261 27.3163 48.0467 27.0587C47.8343 26.7444 47.6475 26.4607 47.4844 26.2095C47.3213 25.9582 47.1578 25.7074 46.9883 25.4621C46.8188 25.2168 46.637 24.9674 46.4401 24.7143C46.2446 24.4618 46.0122 24.179 45.743 23.866C45.5182 23.607 45.2739 23.3657 45.0121 23.1442C44.7766 22.9334 44.4899 22.7882 44.1807 22.723C44.0206 22.6856 43.8574 22.6632 43.6932 22.6563C43.5923 22.6563 43.463 22.6504 43.3068 22.6389V24.5389C43.3065 25.0755 43.3122 25.5286 43.3241 25.8984C43.3346 26.2579 43.3451 26.5658 43.3575 26.8234C43.3583 27.0494 43.4215 27.2707 43.5402 27.463C43.6765 27.6502 43.8549 27.8027 44.061 27.9084ZM43.3132 19.1456C43.308 19.639 43.3054 20.1152 43.3054 20.5741V22.4233C43.7345 22.4254 44.1634 22.4057 44.5904 22.3644C44.9818 22.3273 45.3677 22.2459 45.7407 22.1218C46.0724 22.0235 46.3851 21.87 46.6658 21.6677C46.9114 21.4901 47.1244 21.2713 47.2953 21.0209C47.4571 20.7815 47.5793 20.5176 47.6571 20.2393C47.7356 19.9548 47.7751 19.6609 47.7745 19.3658C47.7834 18.8369 47.6375 18.3168 47.3546 17.8697C47.0515 17.4144 46.6265 17.0535 46.1281 16.8282C45.8572 16.7044 45.5722 16.6143 45.2793 16.56C44.9719 16.5026 44.6597 16.4745 44.3469 16.476C44.1112 16.476 43.9203 16.4819 43.775 16.4929C43.6297 16.5038 43.5174 16.5148 43.4392 16.5262C43.4283 16.5934 43.4169 16.6523 43.4054 16.703C43.3929 16.7665 43.3846 16.8307 43.3808 16.8953C43.3748 16.9739 43.3689 17.0835 43.3639 17.2238C43.3605 17.3186 43.3552 17.4401 43.3487 17.5885L43.3387 17.8209C43.3269 18.2107 43.3183 18.6523 43.3132 19.1456ZM58.4269 28.1687C58.3149 28.1578 58.1833 28.1383 58.0322 28.1103C57.8759 28.081 57.7217 28.0416 57.5704 27.9924C57.418 27.944 57.2714 27.8791 57.1332 27.7987C57.0069 27.7283 56.8977 27.6308 56.8134 27.5132C56.6849 27.3233 56.6094 27.1025 56.5946 26.8737C56.5614 26.5932 56.539 26.2906 56.5275 25.966C56.5165 25.5962 56.511 25.1537 56.511 24.6384V22.977C56.5334 22.909 56.5641 22.8441 56.6024 22.7837C56.6254 22.761 56.6532 22.7437 56.6837 22.733C56.7144 22.7233 56.7468 22.7204 56.7787 22.7244C56.8812 22.7341 56.9783 22.7752 57.0565 22.8422C57.2702 23.0285 57.4695 23.2306 57.6526 23.447C58.347 24.2084 59.017 24.9617 59.6626 25.7069C60.3083 26.4522 60.9888 27.2393 61.7042 28.0682C61.7575 28.1342 61.8189 28.1933 61.8869 28.2441C61.935 28.2785 61.9857 28.309 62.0386 28.3355H65.8178V28.171C65.5328 28.153 65.2496 28.1138 64.9704 28.0536C64.7677 28.0124 64.5683 27.9564 64.3738 27.886C64.301 27.8502 64.2333 27.8048 64.1724 27.7512C64.071 27.6732 63.9532 27.5808 63.8192 27.4739C63.6822 27.3684 63.5452 27.2478 63.3985 27.113C63.2615 26.9869 63.1325 26.8521 63.0125 26.7097C62.5414 26.1831 62.0514 25.6349 61.5425 25.0651C61.0336 24.4953 60.5548 23.9576 60.1062 23.4521C59.6576 22.9477 59.271 22.508 58.9463 22.1328C58.622 21.7582 58.4146 21.5138 58.3242 21.4019C58.5151 21.2 58.7252 20.9845 58.9546 20.7555C59.1839 20.5264 59.4191 20.2884 59.6603 20.0414C59.9015 19.7948 60.1452 19.5482 60.3913 19.3019C60.6373 19.0555 60.8781 18.826 61.1135 18.6134C61.6781 18.0863 62.273 17.5926 62.8951 17.1347C63.3959 16.7418 63.9937 16.4919 64.6251 16.4115V16.2439H60.1208V16.4115C60.396 16.4508 60.6596 16.5482 60.8942 16.6971C61.0072 16.7751 61.0979 16.8812 61.1574 17.005C61.2166 17.1288 61.2416 17.2661 61.23 17.4028C61.2167 17.6335 61.1374 17.8555 61.0016 18.0424C60.8462 18.2836 60.6748 18.514 60.4886 18.7322C60.22 19.0233 59.9002 19.3647 59.5292 19.7564C59.1583 20.148 58.7858 20.5287 58.4119 20.8984C58.0364 21.2676 57.6781 21.6007 57.337 21.898C57.0816 22.1284 56.809 22.339 56.5215 22.5279V19.9241C56.5215 19.6326 56.5247 19.3759 56.5293 19.1511C56.5333 18.9532 56.542 18.7432 56.5511 18.52L56.5511 18.5198L56.5549 18.4284C56.549 18.0567 56.6087 17.6868 56.7312 17.3357C56.8149 17.1104 56.9532 16.9093 57.1337 16.7505C57.2889 16.623 57.4736 16.5363 57.6709 16.4983C57.8728 16.4597 58.0804 16.4292 58.2935 16.407V16.2389H53.0858V16.407C53.3501 16.4334 53.6097 16.4948 53.8578 16.5897C54.0813 16.6785 54.2782 16.8232 54.4298 17.01C54.5772 17.241 54.6563 17.5089 54.6582 17.7829C54.6862 18.1411 54.7002 18.533 54.7002 18.9588V24.2008C54.7002 24.5142 54.6974 24.8056 54.692 25.0752C54.686 25.3438 54.6833 25.5557 54.6833 25.7147C54.6833 25.8938 54.6805 26.0802 54.6751 26.278C54.6696 26.4758 54.6582 26.658 54.6413 26.8316C54.6273 26.9872 54.6021 27.1415 54.5659 27.2935C54.5436 27.4031 54.4976 27.5065 54.4311 27.5964C54.2717 27.7695 54.0691 27.8971 53.8441 27.9659C53.5818 28.0573 53.3118 28.1249 53.0374 28.1678V28.3359H58.4315L58.4269 28.1687ZM88.8222 27.9084C89.1551 28.0792 89.5238 28.1685 89.898 28.1688L89.9017 28.3328H84.5244V28.1647C84.7987 28.1216 85.0685 28.054 85.3307 27.9627C85.5661 27.888 85.7756 27.7483 85.9351 27.5598C86.0025 27.4703 86.0493 27.3671 86.0722 27.2574C86.1081 27.108 86.1333 26.9563 86.1475 26.8033C86.164 26.6352 86.179 26.4561 86.1896 26.2656C86.2008 26.0753 86.2065 25.8906 86.2065 25.7115C86.2065 25.5535 86.2087 25.3406 86.2151 25.072C86.2206 24.8037 86.2261 24.5098 86.2316 24.1903C86.2371 23.8708 86.2398 23.5425 86.2398 23.2054V18.957C86.2398 18.7546 86.2375 18.5504 86.2316 18.3435C86.2256 18.1365 86.2151 17.9392 86.1978 17.7564C86.1837 17.5869 86.1554 17.4188 86.1133 17.2539C86.09 17.1325 86.0353 17.0193 85.9547 16.9255C85.8026 16.7571 85.6081 16.6327 85.3915 16.5651C85.1406 16.4939 84.8851 16.4403 84.6268 16.4047V16.2371H85.3152C85.6956 16.2365 86.1268 16.2336 86.6089 16.2284C87.091 16.2232 87.573 16.2206 88.0548 16.2206H89.2306C89.9813 16.2203 90.6478 16.2425 91.2301 16.2873C91.7881 16.3252 92.3319 16.4799 92.8262 16.7414C93.305 16.987 93.7149 17.3482 94.019 17.7921C94.3377 18.2897 94.4963 18.8731 94.4735 19.4636C94.4787 19.8481 94.4008 20.2293 94.2451 20.581C94.0975 20.9063 93.8925 21.2023 93.6399 21.4549C93.38 21.7136 93.0828 21.9318 92.7582 22.1022C92.4187 22.2828 92.0646 22.4345 91.6997 22.5558V22.6065C91.9068 22.7209 92.0939 22.8685 92.2534 23.0432C92.4413 23.2443 92.6153 23.458 92.7742 23.6828C93.0674 24.1085 93.3842 24.5678 93.7244 25.0606C94.0645 25.5533 94.3691 25.9902 94.638 26.3712C94.965 26.8635 95.374 27.2962 95.8472 27.6503C96.2606 27.9273 96.7322 28.1055 97.2254 28.1711V28.3373H93.7815L93.7369 28.2916L93.7367 28.2914C93.6589 28.2116 93.6005 28.1518 93.5631 28.1089C93.5188 28.0582 93.4676 27.9988 93.4123 27.9321C93.3365 27.8381 93.2661 27.7399 93.2013 27.6379C93.1172 27.5091 92.9866 27.3163 92.8075 27.0587C92.5937 26.7444 92.4069 26.4607 92.2443 26.2095C92.0816 25.9582 91.9172 25.7074 91.7481 25.4621C91.5791 25.2168 91.3964 24.9674 91.2 24.7143C91.0035 24.4618 90.7715 24.179 90.5038 23.866C90.2785 23.6075 90.0342 23.3662 89.7729 23.1442C89.5376 22.9333 89.251 22.7881 88.9419 22.723C88.7819 22.6856 88.6187 22.6632 88.4545 22.6563C88.3526 22.6563 88.2247 22.6504 88.0675 22.6389V24.5389C88.0675 25.0755 88.0732 25.5286 88.0844 25.8984C88.096 26.2574 88.1073 26.5658 88.1183 26.8234C88.1187 27.0494 88.182 27.2709 88.301 27.463C88.4373 27.6504 88.6158 27.803 88.8222 27.9084ZM88.0744 19.1456C88.0683 19.639 88.0653 20.1152 88.0653 20.5741V22.4233C88.4943 22.4254 88.9232 22.4058 89.3503 22.3644C89.7422 22.3272 90.1287 22.2459 90.5024 22.1218C90.8333 22.0232 91.1452 21.8697 91.4252 21.6677C91.6713 21.4904 91.8846 21.2715 92.0556 21.0209C92.2178 20.7817 92.34 20.5177 92.4174 20.2393C92.4966 19.9549 92.536 19.661 92.5343 19.3658C92.5435 18.8368 92.3976 18.3167 92.1145 17.8697C91.8118 17.414 91.3867 17.053 90.888 16.8282C90.6174 16.7044 90.3326 16.6144 90.0401 16.56C89.7325 16.5026 89.4202 16.4745 89.1073 16.476C88.8715 16.4763 88.6812 16.4819 88.5362 16.4929C88.3913 16.5038 88.2792 16.515 88.2 16.5262C88.1886 16.5934 88.1772 16.6523 88.1667 16.703C88.1534 16.7664 88.1448 16.8307 88.1411 16.8953C88.1352 16.9739 88.1292 17.0835 88.1242 17.2238C88.1193 17.3636 88.1109 17.5626 88.0991 17.8209C88.0887 18.2107 88.0805 18.6523 88.0744 19.1456ZM108.866 25.1273L108.684 25.0775C108.439 25.5057 108.166 25.9177 107.869 26.3109C107.629 26.6278 107.356 26.9177 107.054 27.1757C106.792 27.401 106.497 27.5858 106.18 27.7239C105.863 27.8566 105.53 27.9445 105.188 27.9852C104.864 28.0296 104.553 28.0576 104.256 28.0692C103.959 28.0797 103.716 28.0857 103.525 28.0857C103.109 28.0876 102.693 28.054 102.282 27.9852C102.006 27.971 101.747 27.8506 101.559 27.6494C101.44 27.4294 101.374 27.1848 101.366 26.9349C101.338 26.6155 101.318 26.2765 101.307 25.918C101.307 25.8061 101.305 25.6691 101.299 25.5069C101.294 25.3447 101.29 25.1739 101.29 24.9948V22.9784C101.286 22.7483 101.298 22.5181 101.324 22.2895H102.097C102.209 22.2895 102.321 22.2923 102.433 22.2973C102.528 22.3015 102.641 22.309 102.775 22.3178L102.775 22.3178L102.853 22.3229C103.155 22.3373 103.452 22.399 103.735 22.5056C103.971 22.5971 104.19 22.7279 104.382 22.8925C104.624 23.1418 104.82 23.4318 104.961 23.7491C105.136 24.1036 105.274 24.4751 105.373 24.8578H105.575V19.5669H105.374C105.313 19.8536 105.237 20.1368 105.146 20.4152C105.069 20.6523 104.955 20.8761 104.81 21.0785C104.661 21.2757 104.475 21.4413 104.262 21.5655C104 21.7149 103.717 21.8227 103.422 21.8852C103.241 21.9238 103.058 21.9491 102.874 21.9611C102.655 21.978 102.437 21.9921 102.218 22.0031C101.999 22.0141 101.807 22.0204 101.639 22.0204H101.303V21.835C101.303 21.7345 101.3 21.5915 101.295 21.4074C101.29 21.2233 101.286 20.9839 101.286 20.6929V19.6167C101.286 18.8781 101.294 18.2287 101.311 17.6683C101.328 17.1079 101.348 16.7382 101.37 16.5592C101.552 16.529 101.735 16.5092 101.919 16.4998C102.17 16.4838 102.414 16.4756 102.649 16.4756C103.278 16.4693 103.906 16.5028 104.531 16.5761C104.893 16.6069 105.249 16.6859 105.59 16.8109C106.593 17.384 107.463 18.1624 108.145 19.095L108.313 19.0109L107.171 16.2376H97.8972V16.4052C98.1459 16.4395 98.3927 16.4872 98.6363 16.5482C98.8445 16.6096 99.0308 16.7291 99.1735 16.8926C99.2543 16.9865 99.3096 17.0996 99.3339 17.2211C99.3754 17.3893 99.4035 17.5605 99.4179 17.7332C99.4348 17.9232 99.4458 18.1261 99.4513 18.338C99.4567 18.55 99.4595 18.7578 99.4595 18.9597V23.2082C99.4595 23.5447 99.4567 23.8727 99.4513 24.1922C99.447 24.4411 99.4422 24.674 99.4377 24.8919L99.4339 25.0743C99.4284 25.3434 99.4257 25.5558 99.4257 25.7138C99.4257 25.8934 99.4207 26.0756 99.4092 26.262C99.3989 26.4394 99.3791 26.6162 99.3498 26.7915C99.3224 26.9605 99.2918 27.1085 99.2585 27.2369C99.2357 27.3436 99.19 27.4442 99.1246 27.5315C98.9605 27.7153 98.7562 27.8587 98.5276 27.9504C98.2771 28.0547 98.015 28.1283 97.7469 28.1697V28.3378H108.029L108.866 25.1273ZM121.051 25.0766L121.233 25.1269L120.395 28.3397H110.112V28.1716C110.38 28.1301 110.642 28.0564 110.893 27.9523C111.121 27.8606 111.325 27.7172 111.489 27.5334C111.555 27.446 111.601 27.3455 111.624 27.2387C111.657 27.1104 111.687 26.9624 111.715 26.7933C111.744 26.618 111.763 26.4413 111.773 26.2639C111.785 26.0781 111.79 25.8954 111.79 25.7157C111.79 25.5576 111.794 25.3448 111.799 25.0762C111.805 24.8075 111.811 24.5135 111.816 24.194C111.821 23.8746 111.824 23.5466 111.824 23.21V18.9616C111.824 18.7597 111.821 18.5518 111.816 18.3399C111.81 18.1279 111.799 17.9251 111.783 17.735C111.768 17.5624 111.74 17.3911 111.699 17.2229C111.674 17.1017 111.619 16.9886 111.539 16.8945C111.396 16.731 111.209 16.6116 111.001 16.55C110.757 16.4891 110.51 16.4414 110.262 16.4071V16.2394H119.535L120.677 19.0128L120.509 19.0968C119.828 18.1639 118.958 17.3855 117.955 16.8127C117.614 16.6877 117.258 16.6088 116.896 16.5779C116.271 16.5046 115.643 16.4709 115.014 16.477C114.779 16.477 114.535 16.4847 114.283 16.5007C114.099 16.51 113.916 16.5301 113.735 16.561C113.713 16.7398 113.693 17.1092 113.676 17.6693C113.659 18.2293 113.651 18.8789 113.651 19.6181V20.6943C113.651 20.9853 113.654 21.2242 113.66 21.4083C113.665 21.5924 113.668 21.7359 113.668 21.8364V22.0191H114.004C114.173 22.0191 114.365 22.0136 114.584 22.0027C114.802 21.9917 115.021 21.9771 115.239 21.9606C115.424 21.9485 115.607 21.9231 115.788 21.8848C116.082 21.8224 116.366 21.7145 116.627 21.565C116.841 21.4409 117.027 21.275 117.175 21.0771C117.321 20.8752 117.435 20.6517 117.512 20.4147C117.603 20.1361 117.679 19.8528 117.74 19.566H117.942V24.8564H117.74C117.642 24.4736 117.504 24.1021 117.329 23.7477C117.187 23.4305 116.991 23.1406 116.749 22.8912C116.557 22.7264 116.338 22.5955 116.102 22.5042C115.819 22.3971 115.521 22.3355 115.219 22.3215C115.052 22.3096 114.911 22.301 114.8 22.2959C114.689 22.2909 114.576 22.2882 114.465 22.2882H113.691C113.665 22.5168 113.654 22.7469 113.658 22.9771V24.9967C113.658 25.1753 113.661 25.3466 113.666 25.5088C113.672 25.6709 113.675 25.8075 113.675 25.9199C113.688 26.2794 113.705 26.617 113.733 26.9368C113.741 27.1865 113.807 27.431 113.926 27.6508C114.114 27.8524 114.373 27.973 114.649 27.987C115.059 28.0562 115.475 28.09 115.892 28.088C116.082 28.088 116.325 28.0816 116.623 28.0715C116.92 28.06 117.23 28.0318 117.555 27.987C117.896 27.9467 118.229 27.8589 118.546 27.7262C118.864 27.5882 119.158 27.4034 119.421 27.178C119.723 26.9188 119.996 26.6278 120.235 26.31C120.533 25.9168 120.806 25.5048 121.051 25.0766ZM126.476 28.1674C126.101 28.1349 125.735 28.0414 125.391 27.8906C125.137 27.77 124.932 27.5652 124.811 27.3109C124.677 26.9856 124.606 26.6377 124.602 26.2858C124.574 25.8271 124.56 25.312 124.56 24.7403V17.65C125.321 18.5012 126.043 19.3246 126.727 20.12C127.41 20.9155 128.108 21.7305 128.82 22.5649C129.53 23.3994 130.278 24.2762 131.062 25.1953C131.846 26.1144 132.714 27.1223 133.666 28.219C133.741 28.3121 133.85 28.3722 133.968 28.3867C133.991 28.3887 134.014 28.3859 134.035 28.3784C134.057 28.3712 134.077 28.3597 134.094 28.3446C134.109 28.3304 134.12 28.3133 134.126 28.2944C134.133 28.2756 134.137 28.2556 134.137 28.2355V27.1446C134.137 26.7411 134.134 26.3349 134.128 25.9262C134.122 25.5175 134.119 25.1171 134.119 24.7248V23.6485C134.119 22.8978 134.128 22.1951 134.144 21.5403C134.161 20.8855 134.181 20.3168 134.203 19.8341C134.226 19.3188 134.248 18.8344 134.27 18.3809C134.268 18.0639 134.32 17.7488 134.423 17.449C134.533 17.1525 134.736 16.8992 135.001 16.7263C135.308 16.5515 135.648 16.4426 135.999 16.4065V16.2384H131.833V16.4065C132.269 16.4503 132.691 16.5907 133.066 16.8177C133.343 17.0016 133.552 17.27 133.663 17.5829C133.765 17.8946 133.816 18.2207 133.814 18.5486C133.825 18.9579 133.831 19.3862 133.83 19.8336V25.5466L125.869 16.2389H122.459V16.407C122.648 16.4318 122.836 16.4682 123.021 16.5162C123.217 16.5664 123.403 16.6519 123.569 16.7683C123.748 16.8974 123.898 17.0636 124.007 17.2558C124.141 17.5019 124.221 17.7741 124.242 18.0538C124.253 18.3782 124.258 18.6532 124.258 18.8761V20.9254C124.258 21.6755 124.253 22.3784 124.242 23.0341C124.231 23.6898 124.214 24.2584 124.191 24.7399C124.169 25.3794 124.136 25.9276 124.09 26.3844C124.074 26.7509 123.97 27.1081 123.788 27.4264C123.637 27.6674 123.413 27.853 123.148 27.9554C122.889 28.0593 122.618 28.1297 122.341 28.1651V28.3332H126.476L126.476 28.1674ZM33.6435 39.065C34.2096 39.1371 34.7564 39.3175 35.2543 39.5963C35.7523 39.8687 36.174 40.2616 36.4808 40.7392C36.8127 41.2596 36.9813 41.8673 36.9651 42.4843C36.9701 42.8679 36.9016 43.2489 36.7632 43.6067C36.6367 43.9307 36.458 44.2318 36.2342 44.4979C36.015 44.7563 35.7574 44.9794 35.4704 45.1594C35.1911 45.3402 34.8928 45.4897 34.5809 45.6053C34.2538 45.7215 33.9162 45.8055 33.5727 45.8561C33.2173 45.9118 32.8532 45.9557 32.4923 45.9835C32.1315 46.0114 31.7742 46.0237 31.427 46.0237H30.5221V47.602C30.5221 47.7912 30.5234 47.9721 30.5289 48.1333C30.5344 48.2946 30.5381 48.4695 30.5381 48.6573C30.5482 48.9914 30.56 49.2792 30.57 49.525L30.57 49.5254L30.57 49.5256L30.5723 49.5824C30.5719 49.8078 30.6352 50.0287 30.7551 50.2196C30.8898 50.4065 31.0689 50.5569 31.2763 50.6573C31.6114 50.821 31.9791 50.9072 32.3521 50.9094V51.0748H26.9803V50.9067C27.2545 50.8644 27.5242 50.7973 27.7862 50.7061C28.0214 50.6312 28.2309 50.492 28.391 50.3041C28.4557 50.2139 28.5009 50.1112 28.5239 50.0026C28.56 49.8533 28.5852 49.7015 28.5993 49.5486C28.6171 49.3818 28.6308 49.2037 28.6413 49.0118C28.6518 48.8199 28.6573 48.6395 28.6573 48.4568C28.6573 48.2978 28.661 48.0863 28.6665 47.8172L28.6688 47.7056L28.6688 47.7054L28.6688 47.7052C28.6737 47.4676 28.6789 47.2128 28.6825 46.9369C28.6866 46.6171 28.6902 46.2896 28.6902 45.9543V41.7109C28.6902 41.5071 28.6893 41.3039 28.6825 41.096C28.6756 40.8881 28.6665 40.6945 28.6482 40.5117C28.6347 40.3415 28.6073 40.1727 28.5664 40.0069C28.5414 39.8854 28.4861 39.7721 28.4056 39.6776C28.2306 39.4965 28.0061 39.3711 27.7601 39.3171C27.4961 39.2559 27.2138 39.2048 26.9127 39.1591V38.991H27.3156C27.5272 38.991 27.7743 38.9878 28.0598 38.9823C28.3453 38.9768 28.6555 38.9741 28.9926 38.9741C29.3298 38.9741 29.661 38.9732 29.9912 38.9658C30.3215 38.9585 30.6313 38.9585 30.9236 38.9585H31.6792C32.3355 38.9533 32.9916 38.9889 33.6435 39.065ZM32.9355 45.5189C33.6043 45.3082 34.1832 44.8796 34.58 44.3015V44.3024C34.9612 43.7407 35.1621 43.0763 35.1561 42.3975C35.1647 41.7848 34.9919 41.1832 34.6595 40.6684C34.4222 40.2938 34.1063 39.9752 33.7337 39.7347C33.361 39.4942 32.9406 39.3375 32.5015 39.2756C32.1908 39.2287 31.8769 39.2061 31.5627 39.208C31.3797 39.2056 31.1967 39.2135 31.0145 39.2317L30.8318 39.2573L30.7048 39.2756C30.6956 39.3348 30.6821 39.3932 30.6646 39.4505C30.6438 39.5135 30.6285 39.5782 30.6189 39.6438C30.6075 39.7237 30.5965 39.832 30.586 39.9718C30.5755 40.1115 30.5646 40.3089 30.5518 40.5656C30.5403 40.958 30.5335 41.4359 30.528 41.995C30.5219 42.5536 30.5189 43.1017 30.5189 43.6396V45.7866C30.9784 45.7866 31.4079 45.7729 31.8108 45.7446C32.1944 45.7226 32.573 45.6467 32.9355 45.5189ZM50.1801 50.411C50.0638 50.3087 49.9596 50.1935 49.8695 50.0675C49.8135 49.9923 49.763 49.9132 49.7183 49.8309L49.6233 49.6244L49.623 49.6237C49.5269 49.4145 49.439 49.2233 49.3574 49.0515C49.2496 48.8245 49.1354 48.5344 49.0139 48.1836C48.7453 47.4801 48.4765 46.7673 48.2076 46.0452L48.0558 45.6377C47.8345 45.0441 47.6067 44.433 47.378 43.804C47.1569 43.1961 46.9221 42.5725 46.6796 41.9286L46.4794 41.3966C46.1661 40.5624 45.8358 39.6812 45.4881 38.7534H45.3547C45.3091 38.832 45.246 38.9329 45.1615 39.0563C45.0671 39.1915 44.9636 39.3202 44.8518 39.4414C44.7212 39.5829 44.5778 39.712 44.4233 39.8269C44.2543 39.9536 44.0717 40.0609 43.8787 40.1467L44.0464 40.5167C43.7763 41.1417 43.4906 41.8156 43.1894 42.5386C42.8884 43.2609 42.5823 43.974 42.2758 44.6857C42.0876 45.1226 41.9018 45.5512 41.7193 45.9723L41.7178 45.9759L41.717 45.9778C41.603 46.2408 41.4903 46.5009 41.379 46.7583C41.0889 47.4293 40.8254 48.0282 40.5901 48.5536C40.3984 48.9969 40.1805 49.4284 39.9378 49.8459C39.8258 50.0418 39.6963 50.2271 39.5508 50.3996C39.4413 50.4983 39.3195 50.5826 39.1886 50.6504C38.9601 50.7808 38.7064 50.8605 38.4444 50.8843V51.067H42.0195V50.8989C41.8733 50.8793 41.718 50.8532 41.5576 50.8244C41.402 50.7984 41.2499 50.7542 41.1045 50.6929C40.9746 50.6393 40.8578 50.5584 40.7619 50.4558C40.7161 50.4072 40.6801 50.3503 40.6559 50.2881C40.633 50.2262 40.6229 50.1603 40.6262 50.0944C40.6758 49.6541 40.794 49.2242 40.9766 48.8204L41.4471 47.6546C41.6033 47.269 41.7669 46.8611 41.9331 46.4367H46.3981C46.5482 46.8324 46.6886 47.2132 46.8243 47.5814L46.8246 47.582L46.8668 47.6966C47.0157 48.1004 47.1409 48.4631 47.2528 48.793C47.3647 49.1228 47.4534 49.4051 47.5137 49.6326C47.5628 49.7935 47.5934 49.9595 47.605 50.1273C47.6088 50.1999 47.5955 50.2724 47.5662 50.3388C47.5395 50.4054 47.4983 50.4651 47.4456 50.5138C47.3392 50.6158 47.2134 50.6954 47.0756 50.7477C46.9461 50.8022 46.811 50.8422 46.6727 50.8669C46.5928 50.8835 46.5119 50.8944 46.4305 50.8994V51.0675H51.3318V50.8669C51.0995 50.8628 50.8706 50.8113 50.6589 50.7157C50.485 50.6386 50.3236 50.5359 50.1801 50.411ZM42.0848 46.089L42.8285 44.2517C43.0569 43.6884 43.2698 43.1809 43.4594 42.7328L43.4809 42.6818L43.4814 42.6808L43.4815 42.6805L43.482 42.6794L43.4827 42.6777L43.483 42.677L43.4836 42.6756L43.4838 42.6751L43.4845 42.6735C43.6631 42.2511 43.815 41.892 43.9381 41.5935C44.067 41.281 44.1624 41.0521 44.2305 40.9082C44.3324 41.1522 44.4562 41.4674 44.6074 41.8543C44.7586 42.2412 44.9272 42.6661 45.1126 43.1284C45.2598 43.4953 45.4088 43.8776 45.5624 44.2719L45.6832 44.5815C45.8801 45.0859 46.0715 45.5865 46.2611 46.089H42.0848ZM60.8361 39.233C60.6728 39.1977 60.5074 39.173 60.3409 39.159L60.3422 38.9896H64.2535V39.1773C63.9836 39.2019 63.7226 39.2867 63.4897 39.4254C63.354 39.4994 63.2275 39.5892 63.1129 39.6931C63.08 39.7278 63.0306 39.7812 62.9685 39.8543C62.8892 39.954 62.8197 40.061 62.7611 40.1741C62.6802 40.3143 62.5889 40.4875 62.4834 40.7022C62.3778 40.9169 62.2581 41.1846 62.1211 41.5066C61.8979 42.0451 61.6524 42.6473 61.3847 43.3134C61.1155 43.9797 60.8414 44.6649 60.5624 45.3691C60.2835 46.0732 60.0069 46.7805 59.7328 47.491L58.953 49.5133L58.1308 51.1922H57.9293C57.5616 50.2854 57.2176 49.4215 56.8978 48.5992C56.5783 47.777 56.2674 46.9851 55.965 46.2238C55.6632 45.4645 55.3726 44.7292 55.0934 44.0178L54.2528 41.8762C54.1751 41.6647 54.1011 41.4788 54.034 41.323C53.9668 41.1672 53.9038 41.0224 53.8426 40.8881C53.7814 40.7538 53.7192 40.6232 53.6571 40.5016L53.4639 40.1161C53.4193 40.0289 53.3699 39.9442 53.3159 39.8625C53.2375 39.7496 53.1437 39.6481 53.0372 39.561C52.9089 39.4534 52.7653 39.3654 52.611 39.3002C52.4067 39.2212 52.1904 39.1781 51.9714 39.1727V38.9864H56.9851V39.1545C56.9298 39.1659 56.8284 39.1846 56.6826 39.2065C56.5308 39.2312 56.3823 39.273 56.24 39.3313C56.089 39.3918 55.9513 39.4813 55.8348 39.5948C55.7775 39.6477 55.7321 39.7121 55.7017 39.7839C55.6713 39.8557 55.6566 39.9331 55.6584 40.011C55.6936 40.255 55.7558 40.4943 55.8439 40.7246C55.9659 41.1001 56.1285 41.551 56.3236 42.0836C56.5186 42.6163 56.7393 43.1982 56.9851 43.83C57.2308 44.4618 57.4757 45.0845 57.716 45.6952C57.9563 46.306 58.1796 46.8706 58.3934 47.3978C58.6072 47.925 58.7744 48.3553 58.8987 48.6915C58.9553 48.5682 59.0567 48.3101 59.2084 47.919C59.3595 47.5259 59.5496 47.0386 59.779 46.4572C60.0071 45.8755 60.2615 45.2154 60.5423 44.4769C60.8231 43.7384 61.1137 42.9662 61.4139 42.1604C61.5893 41.7029 61.7355 41.2348 61.8516 40.7588C61.9042 40.5412 61.9376 40.3194 61.9516 40.096C61.9543 40.0179 61.9407 39.9401 61.9119 39.8676C61.8823 39.7958 61.8388 39.7306 61.784 39.6757C61.6626 39.5591 61.5205 39.4661 61.3651 39.4016C61.1942 39.3295 61.0171 39.2731 60.8361 39.233ZM69.7748 50.2849C69.6656 50.0913 69.6138 49.8705 69.6254 49.6486C69.614 49.3443 69.6095 49.0305 69.6095 48.7084V43.0872C69.6095 42.8054 69.6127 42.5308 69.6163 42.2563L69.6192 42.055C69.6223 41.8466 69.6254 41.6366 69.6254 41.4235C69.6369 41.1672 69.6437 40.894 69.6492 40.6012C69.6456 40.3518 69.7007 40.105 69.81 39.8808C69.9372 39.6265 70.1599 39.433 70.4295 39.3427C70.6759 39.2601 70.929 39.199 71.186 39.1599V38.9918H66.1678V39.1599C66.4339 39.1883 66.6958 39.2479 66.948 39.3376C67.1752 39.419 67.3758 39.5613 67.5277 39.7488C67.6019 39.8451 67.653 39.9572 67.6771 40.0763C67.7119 40.2311 67.737 40.388 67.752 40.5459C67.768 40.7182 67.7758 40.9073 67.7758 41.1065V45.9565C67.7758 46.2915 67.7732 46.6191 67.768 46.9391L67.7668 47.0118C67.7618 47.3009 67.7571 47.5711 67.752 47.8194C67.7465 48.0885 67.7429 48.3 67.7429 48.459V48.4592C67.7429 48.6387 67.7429 48.8209 67.7333 49.0044L67.7278 49.1126C67.7206 49.2581 67.7136 49.3996 67.7004 49.5353C67.6875 49.682 67.6651 49.8277 67.6333 49.9715C67.6148 50.0746 67.5715 50.1717 67.5072 50.2543C67.3387 50.445 67.1293 50.5951 66.8946 50.6933C66.6444 50.7967 66.3825 50.8691 66.1148 50.9089V51.077L71.2006 51.0825V50.913C70.9309 50.8827 70.6659 50.8201 70.4112 50.7267C70.1575 50.6508 69.9346 50.4961 69.7748 50.2849ZM84.5568 49.3877C84.7698 49.1256 84.9502 48.8386 85.094 48.533C85.2402 48.2255 85.3781 47.9026 85.5134 47.5636L85.6805 47.6139L85.0611 51.0683H74.2879V50.9002C74.5708 50.8558 74.8487 50.7836 75.1175 50.6846C75.3652 50.5995 75.588 50.4545 75.7662 50.2625C75.8317 50.1748 75.8801 50.0754 75.9087 49.9697C75.9508 49.8246 75.9814 49.6765 76.0001 49.5266C76.022 49.3576 76.0444 49.1821 76.0604 48.9958C76.0763 48.8094 76.0841 48.6298 76.0841 48.4503C76.0841 48.2913 76.0878 48.0798 76.0933 47.8108C76.0983 47.5633 76.103 47.2941 76.1079 47.0062L76.1092 46.9305C76.1144 46.6104 76.117 46.2828 76.117 45.9478V41.1343C76.117 40.931 76.1092 40.7433 76.0933 40.5679C76.0782 40.4141 76.0532 40.2615 76.0183 40.111C75.9935 39.9941 75.9415 39.8845 75.8667 39.7913C75.6988 39.5939 75.482 39.4441 75.2381 39.3568C74.9705 39.2549 74.6912 39.1871 74.4067 39.1549V38.9868H79.7606V39.1549C79.6149 39.1787 79.4422 39.2116 79.2371 39.2572C79.0372 39.2997 78.845 39.3724 78.667 39.4729C78.4827 39.5792 78.3244 39.7252 78.2038 39.9004C78.0646 40.1187 77.9918 40.3726 77.9941 40.6314C77.9831 41.0238 77.974 41.3824 77.969 41.7049L77.9521 42.6642C77.9452 42.9776 77.9452 43.3028 77.9452 43.6382V46.6915C77.9452 46.9816 77.9466 47.2859 77.9521 47.5915C77.9575 47.8971 77.9612 48.2415 77.9612 48.6225C77.9722 48.9816 77.9854 49.3206 78.0032 49.6458C77.9999 49.8975 78.0607 50.1459 78.18 50.3676C78.2553 50.4429 78.3462 50.5008 78.4463 50.5371C78.6042 50.5983 78.7671 50.6452 78.9333 50.6773C79.1249 50.7151 79.3321 50.7492 79.555 50.7796C79.7782 50.807 80.0027 50.821 80.2275 50.8217C80.303 50.8217 80.4178 50.8184 80.5698 50.814L80.6555 50.8116C80.8506 50.8061 81.0662 50.7979 81.301 50.7796C81.5358 50.7614 81.7766 50.7376 82.0228 50.7038C82.244 50.6752 82.4628 50.6303 82.6774 50.5695C83.0738 50.4712 83.4508 50.3073 83.793 50.0844C84.0804 49.8909 84.3377 49.6562 84.5568 49.3877ZM91.707 50.2849C91.5987 50.0898 91.5471 49.8683 91.5581 49.6454C91.5471 49.3425 91.5412 49.0287 91.5412 48.7066V43.0873C91.5412 42.8054 91.5453 42.5295 91.5503 42.2563C91.5554 41.9831 91.5581 41.7027 91.5581 41.4222C91.5695 41.1673 91.5786 40.8941 91.5832 40.6026C91.5799 40.353 91.6343 40.106 91.7422 39.8808C91.871 39.6268 92.0949 39.4339 92.3653 39.3441C92.6119 39.2616 92.8651 39.2004 93.1222 39.1614V38.9932H88.1036V39.1614C88.3699 39.1897 88.632 39.2494 88.8843 39.3391C89.1114 39.4205 89.3118 39.5627 89.4636 39.7502C89.5377 39.8465 89.5888 39.9586 89.6129 40.0777C89.648 40.2325 89.673 40.3894 89.6879 40.5473C89.7043 40.7196 89.7116 40.9087 89.7116 41.1079V45.9579C89.7116 46.2932 89.7116 46.6208 89.7043 46.9406L89.6933 47.5376L89.6879 47.8209C89.6819 48.0881 89.6787 48.3014 89.6787 48.4604C89.6787 48.6399 89.6764 48.8222 89.671 49.0058C89.6655 49.1895 89.6527 49.3676 89.6367 49.5367C89.6241 49.6835 89.6015 49.8292 89.5691 49.9729C89.5492 50.0755 89.5062 50.1722 89.4435 50.2557C89.2744 50.4457 89.0651 50.5957 88.8309 50.6947C88.5808 50.7984 88.3189 50.8708 88.0511 50.9103V51.0784H93.1346V50.9117C92.8653 50.882 92.6005 50.8207 92.3456 50.729C92.0908 50.6529 91.867 50.4973 91.707 50.2849ZM105.177 39.3258C105.902 39.6404 106.556 40.1001 107.098 40.6766C107.623 41.2446 108.033 41.9093 108.304 42.6336C108.585 43.3735 108.727 44.1588 108.724 44.9501C108.732 45.804 108.561 46.6501 108.221 47.4334C107.897 48.1757 107.432 48.8478 106.851 49.4124C106.273 49.973 105.59 50.4131 104.841 50.707C103.277 51.3062 101.547 51.3088 99.9816 50.7143C99.2394 50.4302 98.5606 50.0026 97.9839 49.4558C97.4082 48.9035 96.9488 48.2417 96.6327 47.5093C96.3022 46.7013 96.1344 45.836 96.1389 44.9631C96.1433 44.0901 96.32 43.2267 96.6587 42.4221C96.9866 41.6841 97.4629 41.0216 98.058 40.4756C98.6599 39.9362 99.3617 39.52 100.124 39.2504C100.923 38.9648 101.767 38.8203 102.616 38.8233C103.495 38.8087 104.368 38.9799 105.177 39.3258ZM105.603 48.983C105.96 48.3923 106.223 47.7499 106.383 47.0785C106.556 46.387 106.644 45.6771 106.646 44.9643C106.644 44.2684 106.556 43.5754 106.383 42.9013C106.221 42.2348 105.955 41.5977 105.595 41.0133C105.26 40.4654 104.811 39.9961 104.278 39.6373C103.725 39.2769 103.075 39.0929 102.416 39.1097C101.747 39.0919 101.089 39.2756 100.527 39.6369C99.9948 39.9901 99.5477 40.4573 99.2183 41.0046C98.866 41.5942 98.6111 42.2369 98.4636 42.9077C98.3022 43.6159 98.2201 44.3398 98.2188 45.0662C98.2177 45.807 98.3083 46.545 98.4887 47.2635C98.6477 47.9251 98.9171 48.5552 99.2854 49.1273C99.6244 49.6519 100.077 50.0935 100.61 50.4192C101.171 50.752 101.814 50.9202 102.466 50.9044C103.12 50.921 103.762 50.7334 104.304 50.3676C104.83 50.0035 105.273 49.5315 105.603 48.983ZM120.923 39.1591C121.36 39.2031 121.781 39.3435 122.157 39.5702C122.433 39.7534 122.643 40.0214 122.755 40.334C122.857 40.6452 122.907 40.9706 122.906 41.2979C122.917 41.7058 122.922 42.1348 122.922 42.5802V48.2882L114.967 38.9909H111.56V39.1591C111.749 39.1843 111.937 39.2212 112.122 39.2696C112.318 39.3175 112.503 39.4023 112.667 39.5195C112.845 39.6486 112.994 39.8137 113.104 40.0042C113.238 40.2501 113.318 40.5219 113.339 40.8013C113.35 41.1266 113.356 41.4007 113.356 41.6236V43.6697C113.356 44.4207 113.35 45.1229 113.339 45.7761C113.328 46.4316 113.312 46.9981 113.288 47.4801C113.266 48.1196 113.234 48.6678 113.188 49.1246C113.172 49.4908 113.068 49.8476 112.885 50.1657C112.735 50.4063 112.51 50.5921 112.246 50.6956C111.988 50.799 111.717 50.8687 111.441 50.903V51.0725H115.575V50.9058C115.202 50.8732 114.836 50.7806 114.492 50.6317C114.239 50.5109 114.036 50.3064 113.916 50.0529C113.783 49.7276 113.712 49.3801 113.708 49.0287C113.68 48.5691 113.664 48.0543 113.663 47.4842V40.4034C114.424 41.2525 115.145 42.0748 115.826 42.8703L117.915 45.3102C118.624 46.1455 119.37 47.022 120.153 47.9396C120.936 48.8572 121.803 49.8637 122.754 50.9592C122.83 51.0522 122.938 51.1126 123.057 51.1278C123.08 51.1283 123.103 51.1249 123.124 51.1177C123.145 51.1108 123.165 51.0998 123.181 51.0853C123.196 51.0705 123.207 51.0529 123.214 51.0337C123.221 51.0153 123.225 50.9958 123.225 50.9761V49.8848C123.225 49.4837 123.222 49.0786 123.216 48.6696C123.211 48.2585 123.206 47.861 123.206 47.4686V46.3937C123.206 45.6464 123.216 44.9442 123.232 44.2887C123.249 43.6332 123.269 43.0653 123.291 42.5829C123.307 42.1793 123.326 41.7916 123.344 41.4243L123.358 41.1339C123.355 40.8166 123.406 40.5012 123.507 40.2006C123.62 39.905 123.823 39.6524 124.087 39.4788C124.394 39.304 124.733 39.1951 125.084 39.1591V38.9909H120.921L120.923 39.1591ZM47.8142 62.2289C48.01 62.3039 48.1922 62.4107 48.3532 62.5451C48.5096 62.6738 48.6391 62.8322 48.7342 63.011C48.8314 63.2025 48.8804 63.4148 48.8767 63.6295C48.8836 63.9936 48.7618 64.3483 48.5328 64.6314C48.4328 64.7545 48.3165 64.8633 48.1869 64.9548C48.0702 65.039 47.9429 65.1073 47.8082 65.1581C47.5719 65.2418 47.3249 65.2911 47.0746 65.3047C46.8032 65.3215 46.5413 65.3298 46.2889 65.3298H43.3095V65.243C43.4502 65.2216 43.5881 65.1845 43.7206 65.1325C43.8411 65.0859 43.9489 65.0116 44.0354 64.9155C44.0694 64.8711 44.0932 64.8195 44.1048 64.7647C44.1208 64.6985 44.1363 64.6277 44.1505 64.5363C44.1646 64.445 44.1765 64.3596 44.1815 64.2622C44.1866 64.1649 44.1893 64.0736 44.1893 63.9822C44.1893 63.9014 44.1907 63.7926 44.1939 63.6542L44.1955 63.5722L44.1971 63.4743C44.1985 63.3879 44.1999 63.2972 44.2026 63.2015C44.2071 63.0371 44.2071 62.8686 44.2071 62.6965V62.6963V61.3587V61.3585C44.2071 61.232 44.2071 61.1019 44.2026 60.9695C44.198 60.837 44.198 60.6858 44.198 60.5127C44.198 60.409 44.1948 60.3039 44.1893 60.1979C44.1845 60.0951 44.1744 59.9927 44.1592 59.8909C44.1476 59.8024 44.1303 59.7146 44.1075 59.6283C44.0954 59.5657 44.0674 59.5074 44.0262 59.4588C43.9547 59.3792 43.8662 59.3167 43.7672 59.276C43.6485 59.2379 43.5259 59.2132 43.4017 59.2025V59.1166H46.3108C46.5202 59.115 46.7294 59.1278 46.9371 59.155C47.133 59.1802 47.3254 59.2281 47.5104 59.2975C47.7919 59.3986 48.0419 59.5719 48.2354 59.8C48.4315 60.0404 48.5329 60.3443 48.5204 60.6543C48.5274 60.8245 48.4984 60.9942 48.4354 61.1525C48.3725 61.3108 48.2769 61.454 48.155 61.5729C47.8886 61.8183 47.5571 61.9817 47.2002 62.0435V62.0782C47.4104 62.1025 47.6167 62.1531 47.8142 62.2289ZM45.1514 60.5693C45.1473 60.8114 45.1473 61.0412 45.1473 61.2609L45.1463 62.0896H45.6292C45.762 62.0896 45.8686 62.087 45.949 62.0818C46.3829 62.0855 46.8028 61.9283 47.1276 61.6406C47.2584 61.5131 47.3616 61.36 47.4306 61.1908C47.4996 61.0217 47.533 60.8401 47.5287 60.6575C47.533 60.3851 47.4563 60.1175 47.3085 59.8886C47.1766 59.6778 46.9861 59.51 46.7603 59.4058C46.4452 59.2808 46.1078 59.2221 45.769 59.2336C45.6591 59.233 45.5493 59.2388 45.4401 59.2509C45.3641 59.2576 45.2889 59.2718 45.2158 59.2934C45.214 59.3108 45.2112 59.3277 45.208 59.3423L45.205 59.3562L45.2022 59.3694L45.198 59.388C45.1916 59.4238 45.1875 59.4599 45.1856 59.4962C45.1829 59.5401 45.1801 59.5908 45.1774 59.6552C45.1747 59.7196 45.1701 59.8023 45.1637 59.9055C45.1594 60.0515 45.157 60.2074 45.1545 60.3743V60.3744L45.1514 60.5693ZM47.1057 64.99C47.3351 64.875 47.5291 64.7001 47.6671 64.4838C47.8037 64.2568 47.8727 63.9954 47.8658 63.7305C47.8669 63.57 47.8389 63.4105 47.7831 63.26C47.7294 63.1138 47.654 62.9766 47.5593 62.853C47.4642 62.7298 47.3508 62.622 47.2231 62.5332C47.0913 62.4427 46.9473 62.3715 46.7955 62.3217C46.6733 62.2828 46.5477 62.2556 46.4204 62.2404C46.2755 62.2252 46.1299 62.2181 45.9842 62.2189H45.1473V63.2974C45.1473 63.4592 45.1482 63.6076 45.1514 63.7424C45.1546 63.8771 45.1546 63.9932 45.1546 64.0909C45.1605 64.3111 45.1719 64.4888 45.1856 64.6309C45.1945 64.7569 45.2376 64.8781 45.3103 64.9813C45.3746 65.0522 45.4548 65.1068 45.5442 65.1407C45.6885 65.1895 45.8406 65.2112 45.9928 65.2047C46.1747 65.2038 46.3564 65.1922 46.5369 65.17C46.736 65.1459 46.9289 65.0848 47.1057 64.99ZM55.2376 59.2048C55.4599 59.226 55.6743 59.2986 55.8639 59.4167C56.0013 59.5133 56.1051 59.6503 56.1608 59.8087C56.1881 59.8823 56.2059 59.959 56.2138 60.0371C56.2248 60.1318 56.2332 60.234 56.2389 60.3436C56.2453 60.4523 56.2499 60.5679 56.2517 60.689L56.2537 60.8016C56.2553 60.883 56.2568 60.9628 56.2568 61.0421V62.5099C56.2568 62.7054 56.2499 62.9055 56.2348 63.1097C56.2207 63.3116 56.1918 63.5122 56.1485 63.7099C56.1064 63.9016 56.0398 64.0871 55.9502 64.2618C55.8596 64.4358 55.7365 64.5908 55.5875 64.7186C55.4202 64.8587 55.2268 64.9642 55.0183 65.0288C54.7482 65.1099 54.467 65.1478 54.1851 65.1412C53.9221 65.1462 53.6609 65.0978 53.4172 64.9991C53.199 64.9089 53.0044 64.7698 52.8484 64.5925C52.6855 64.406 52.562 64.1884 52.4853 63.953C52.3959 63.684 52.3496 63.4027 52.3482 63.1193C52.3482 62.9822 52.3482 62.8511 52.3446 62.7264C52.3409 62.6017 52.3395 62.4761 52.3395 62.3445V60.6269C52.3395 60.5172 52.3412 60.4048 52.3446 60.2897C52.3446 60.2001 52.3485 60.0995 52.3528 59.9883L52.3564 59.8927C52.3576 59.7779 52.3873 59.6652 52.4428 59.5647C52.4904 59.4837 52.5555 59.4142 52.6333 59.3615C52.7097 59.3119 52.7941 59.2757 52.8827 59.2546C52.9686 59.2332 53.0549 59.2157 53.1417 59.202V59.1157H50.5698V59.202C50.7068 59.2165 50.8416 59.2472 50.9714 59.2934C51.088 59.3343 51.1909 59.4071 51.2683 59.5035C51.3078 59.5524 51.3345 59.6103 51.3459 59.6721C51.3644 59.7517 51.3773 59.8324 51.3848 59.9137C51.393 60.0024 51.3976 60.0997 51.3976 60.202V61.6638C51.3976 61.98 51.3976 62.2682 51.393 62.5259C51.3891 62.7479 51.3892 62.9361 51.3893 63.0874V63.0878L51.3893 63.1572C51.3893 63.2252 51.393 63.3299 51.4012 63.4719C51.4134 63.6298 51.4427 63.7859 51.4885 63.9374C51.5422 64.1184 51.6173 64.2923 51.7123 64.4555C51.8233 64.6418 51.9683 64.8056 52.1399 64.9383C52.3497 65.0987 52.5884 65.2172 52.8429 65.2873C53.5356 65.462 54.2609 65.4608 54.953 65.2837C55.2102 65.2101 55.4506 65.0871 55.6606 64.9214C55.8348 64.7806 55.98 64.6073 56.0882 64.4112C56.1852 64.2344 56.2589 64.0458 56.3075 63.8502C56.3518 63.6764 56.3795 63.4988 56.3902 63.3198L56.4116 62.9055C56.4232 62.5208 56.4333 62.1759 56.4418 61.8708C56.4498 61.6035 56.4557 61.3583 56.461 61.1356L56.461 61.1344L56.4611 61.1306L56.4611 61.1294L56.4612 61.1257L56.4613 61.1245L56.4632 61.0412C56.4632 60.9096 56.466 60.7758 56.4715 60.6396C56.4783 60.5053 56.4879 60.3779 56.498 60.2577C56.508 60.1376 56.5213 60.0293 56.5363 59.938C56.5432 59.8701 56.5586 59.8033 56.582 59.7393C56.6378 59.5887 56.7386 59.459 56.8707 59.3679C57.0252 59.2769 57.1976 59.2207 57.376 59.2029V59.1171H55.2367L55.2376 59.2048ZM64.4279 65.0324C64.4592 65.0598 64.4939 65.0829 64.5311 65.1014C64.63 65.1369 64.7312 65.1653 64.834 65.1864C64.9778 65.2172 65.1236 65.2375 65.2703 65.2471V65.3326H63.3279C63.301 65.3201 63.2756 65.3048 63.252 65.2869C63.2163 65.2608 63.1842 65.2301 63.1566 65.1955C62.7875 64.771 62.4372 64.3667 62.1059 63.9827C61.7745 63.5986 61.4307 63.2118 61.0744 62.8223C60.9804 62.7107 60.8779 62.6065 60.7678 62.5108C60.7267 62.4774 60.677 62.4561 60.6244 62.4496C60.6089 62.4482 60.5933 62.4502 60.5787 62.4555C60.5628 62.4606 60.5483 62.4692 60.5362 62.4806C60.5168 62.5117 60.5015 62.5452 60.4906 62.5802V63.434C60.4906 63.6994 60.4933 63.9265 60.4988 64.1165C60.5047 64.2823 60.5148 64.4381 60.534 64.582C60.541 64.6998 60.5798 64.8135 60.6463 64.9109C60.6893 64.9711 60.7448 65.0213 60.809 65.058C60.8803 65.0983 60.9554 65.1313 61.0333 65.1567C61.1111 65.1813 61.1902 65.2014 61.2704 65.217C61.348 65.2316 61.4165 65.2417 61.4736 65.2476V65.3326H58.7062V65.2458C58.8473 65.2243 58.9862 65.1899 59.121 65.143C59.237 65.1075 59.3414 65.0418 59.4234 64.9525C59.4575 64.9063 59.4812 64.8533 59.4929 64.7972C59.5105 64.7188 59.5233 64.6395 59.5312 64.5596C59.5399 64.471 59.5445 64.3774 59.5481 64.275C59.5509 64.1739 59.5522 64.0777 59.5522 63.9863C59.5522 63.9055 59.5532 63.7967 59.5568 63.6583C59.5605 63.5199 59.5605 63.3691 59.5605 63.2093V60.5227C59.5605 60.3057 59.5527 60.1024 59.5399 59.9197C59.5391 59.7787 59.4986 59.6408 59.423 59.5218C59.3445 59.4267 59.2436 59.3527 59.1292 59.3066C59.0017 59.2581 58.8684 59.2262 58.7327 59.2116V59.1253H61.4092V59.2116C61.2991 59.2221 61.1922 59.2381 61.0895 59.2573C60.9878 59.2769 60.8927 59.3218 60.8131 59.388C60.7218 59.4685 60.6521 59.5706 60.6102 59.6849C60.5474 59.865 60.5165 60.0547 60.5189 60.2454C60.5134 60.3774 60.5093 60.5017 60.5056 60.6168C60.502 60.7319 60.502 60.8653 60.502 61.0133V62.3523C60.6494 62.2552 60.7891 62.1469 60.92 62.0284C61.0963 61.8758 61.279 61.705 61.4723 61.5145C61.666 61.3247 61.8575 61.1292 62.0469 60.9279C62.2364 60.7266 62.4005 60.551 62.5394 60.4012C62.6337 60.2887 62.7213 60.1708 62.8016 60.0481C62.8704 59.9516 62.9108 59.8378 62.9181 59.7196C62.9236 59.6494 62.9105 59.579 62.8802 59.5154C62.8504 59.4513 62.8039 59.3966 62.7454 59.3569C62.6252 59.2798 62.4898 59.2297 62.3484 59.2098V59.1235H64.6622V59.2098C64.3378 59.2508 64.0306 59.3793 63.7737 59.5816C63.4542 59.8164 63.1491 60.07 62.8601 60.3413C62.739 60.4501 62.6171 60.567 62.4896 60.6945C62.3622 60.8219 62.2361 60.9489 62.1127 61.0745C61.9894 61.2002 61.8688 61.3217 61.7509 61.44C61.6331 61.5583 61.5253 61.6684 61.428 61.7716C61.4567 61.8071 61.5109 61.8704 61.5883 61.9608L61.5898 61.9626L61.5899 61.9627L61.6303 62.0099L61.7477 62.1476C61.8671 62.2879 62.0057 62.4447 62.1601 62.6194C62.2184 62.6854 62.279 62.7539 62.3416 62.8251C62.5718 63.083 62.8175 63.3591 63.0785 63.6533L63.4028 64.0151L63.834 64.4993C63.8961 64.5723 63.9625 64.6416 64.0327 64.7067C64.1077 64.774 64.1798 64.8349 64.2493 64.8895L64.3365 64.9589L64.4279 65.0324ZM68.0883 64.9278C68.0325 64.8281 68.0056 64.7148 68.0107 64.6007C68.0047 64.444 68.0011 64.2809 68.0011 64.1169V61.2261C68.0011 61.1242 68.0027 61.024 68.0042 60.9244L68.0061 60.799L68.0075 60.6949V60.6949V60.6948C68.0091 60.5879 68.0107 60.4802 68.0107 60.371C68.0161 60.239 68.0198 60.0969 68.023 59.9484C68.0215 59.8202 68.0496 59.6934 68.1052 59.5779C68.1711 59.4471 68.2861 59.3476 68.425 59.3011C68.5517 59.2582 68.682 59.2264 68.8142 59.2061V59.1197H66.2313V59.2061C66.3682 59.2203 66.5029 59.251 66.6324 59.2974C66.7496 59.3381 66.853 59.411 66.9307 59.5076C66.9694 59.557 66.9959 59.6147 67.0084 59.6762C67.0262 59.7558 67.039 59.8365 67.0468 59.9178C67.0554 60.0064 67.06 60.1037 67.06 60.2061V62.7003V62.7016C67.06 62.8734 67.06 63.0415 67.0554 63.2056C67.0539 63.2606 67.0528 63.3141 67.0519 63.366L67.05 63.4782C67.049 63.5404 67.0481 63.6003 67.0468 63.6583C67.0436 63.7967 67.0422 63.9054 67.0422 63.9863C67.0422 64.0776 67.0422 64.169 67.0376 64.2663L67.0374 64.2707C67.0329 64.3663 67.0288 64.454 67.0207 64.5404C67.0134 64.6157 67.0019 64.6906 66.986 64.7647C66.9764 64.8177 66.9543 64.8676 66.9216 64.9104C66.8349 65.008 66.7275 65.0851 66.6073 65.1361C66.4786 65.1891 66.3439 65.2262 66.2062 65.2466V65.3334L68.8224 65.3362V65.2489C68.6839 65.2332 68.5477 65.201 68.4168 65.153C68.2861 65.1148 68.171 65.0359 68.0883 64.9278ZM75.4575 59.181C75.6158 59.1787 75.7736 59.1623 75.929 59.1321C76.0528 59.1074 76.1802 59.0736 76.3104 59.0362L76.5845 60.7187L76.5068 60.7456C76.4607 60.641 76.4059 60.5341 76.3433 60.4217C76.2807 60.3093 76.2136 60.2066 76.1482 60.107C76.0829 60.0074 76.018 59.9174 75.9545 59.8329C75.9056 59.7662 75.8507 59.7042 75.7906 59.6474C75.6812 59.539 75.546 59.4604 75.3977 59.419C75.2211 59.3766 75.0402 59.3549 74.8586 59.3541C74.749 59.3541 74.6549 59.3537 74.574 59.3491C74.4933 59.3445 74.4125 59.3445 74.333 59.3445H74.3328H73.7632C73.7629 59.4883 73.7612 59.6839 73.7582 59.9315C73.7551 60.1791 73.7536 60.438 73.7536 60.7081V64.0836C73.7536 64.2508 73.7583 64.4105 73.7677 64.5628C73.7646 64.6757 73.7927 64.7874 73.8491 64.8853C73.9358 65.013 74.0655 65.1054 74.2145 65.1457C74.3552 65.1874 74.4979 65.2219 74.6421 65.2489V65.3344H71.8363V65.2471C71.9827 65.2313 72.1275 65.2027 72.2689 65.1617C72.4281 65.1067 72.5685 65.0077 72.6737 64.8762C72.7084 64.836 72.7311 64.7867 72.739 64.7341C72.7544 64.66 72.7662 64.5851 72.7742 64.5098C72.7824 64.4267 72.7874 64.3367 72.7911 64.2385C72.7947 64.1403 72.7947 64.0445 72.7947 63.9532V63.9529C72.7947 63.8707 72.7956 63.7647 72.8002 63.6332C72.802 63.5369 72.8039 63.4338 72.8057 63.3239V63.3116L72.8089 63.1914C72.8121 63.029 72.8121 62.8638 72.8121 62.6895V62.6889V59.3427H72.2424C72.1675 59.3427 72.0871 59.3445 72.0044 59.3473C71.9217 59.35 71.824 59.3523 71.7148 59.3523C71.5323 59.3523 71.3508 59.3784 71.1757 59.43C71.0284 59.4798 70.8942 59.5621 70.7829 59.6707C70.7242 59.7265 70.6708 59.7877 70.6234 59.8534L70.5866 59.9036C70.5377 59.97 70.4865 60.0396 70.433 60.1179C70.3658 60.2161 70.3018 60.318 70.2438 60.4231C70.1864 60.525 70.1387 60.632 70.1013 60.7429L70.0236 60.7159L70.2831 59.0764C70.4142 59.1061 70.5357 59.1285 70.6486 59.1458C70.8103 59.1667 70.973 59.1785 71.136 59.181L71.7226 59.1933C71.8971 59.1974 72.0638 59.1974 72.2251 59.1974H73.8646C74.0396 59.1974 74.2068 59.1956 74.3671 59.1933L74.8696 59.1846C75.0432 59.181 75.2383 59.181 75.4575 59.181ZM80.6354 59.207C80.7823 59.2235 80.928 59.2493 81.0716 59.2842C81.2011 59.3119 81.318 59.3814 81.4042 59.482C81.4424 59.5323 81.4675 59.5913 81.4773 59.6538C81.4914 59.7301 81.5028 59.8146 81.5111 59.9105C81.5193 60.0064 81.5252 60.1042 81.5252 60.2065V63.2092C81.5252 63.3705 81.5252 63.5194 81.5198 63.6583C81.5151 63.7751 81.5154 63.8712 81.5156 63.9463V63.9467L81.5156 63.9867C81.5102 64.1475 81.4997 64.3088 81.4869 64.47C81.4745 64.6156 81.4497 64.7599 81.4129 64.9013C81.376 65.0274 81.3094 65.1428 81.2187 65.2379C81.1729 65.2836 81.1183 65.3196 81.0584 65.3439C80.998 65.3674 80.9335 65.3784 80.8688 65.3764C80.8187 65.3751 80.7692 65.365 80.7226 65.3467C80.674 65.3287 80.6316 65.2969 80.6006 65.2553V65.2288C80.7095 65.2165 80.8135 65.1766 80.9026 65.1128C80.9444 65.0779 80.9772 65.0334 80.9981 64.983C81.0197 64.9328 81.0283 64.878 81.0232 64.8236C81.0229 64.7115 80.9784 64.604 80.8992 64.5246C80.8201 64.4452 80.7128 64.4003 80.6006 64.3997C80.4711 64.3995 80.3457 64.4455 80.247 64.5294C80.1968 64.5697 80.1568 64.6212 80.1301 64.6797C80.1035 64.7382 80.0904 64.8019 80.0917 64.8661C80.0891 64.9639 80.1114 65.0607 80.1566 65.1475C80.1971 65.2221 80.2569 65.2844 80.3297 65.3279C80.4048 65.3729 80.4861 65.4065 80.5709 65.4275C80.6605 65.4504 80.7526 65.4621 80.845 65.4622C81.2529 65.4524 81.6464 65.31 81.9661 65.0566C82.1063 64.9513 82.2288 64.8242 82.3288 64.6802C82.4232 64.5357 82.4711 64.3657 82.4658 64.1932V61.2239C82.4658 61.0791 82.4658 60.9379 82.4695 60.7967C82.4731 60.6556 82.4745 60.5135 82.4745 60.3687C82.4767 60.3111 82.4792 60.2516 82.4819 60.1902L82.4819 60.1898L82.4819 60.1891L82.482 60.1879C82.4853 60.1092 82.4888 60.0274 82.4919 59.9425C82.4915 59.8165 82.5181 59.6918 82.57 59.577C82.6037 59.5113 82.6503 59.453 82.707 59.4057C82.763 59.3579 82.8281 59.322 82.8984 59.3002C83.0279 59.2583 83.1605 59.2268 83.295 59.2061V59.1197H80.6372L80.6354 59.207ZM89.9235 64.8145C89.97 64.879 90.0234 64.9381 90.0829 64.9909C90.1562 65.057 90.2394 65.1111 90.3296 65.1512C90.4377 65.2004 90.5548 65.2268 90.6736 65.2289V65.3321H88.1533V65.2453C88.2674 65.2362 88.3795 65.21 88.4858 65.1676C88.5563 65.1407 88.6206 65.0998 88.675 65.0475C88.7026 65.0222 88.7242 64.991 88.738 64.9561C88.7522 64.9217 88.7586 64.8846 88.7567 64.8474C88.7516 64.7611 88.7363 64.6757 88.7111 64.593C88.6795 64.4765 88.6343 64.3321 88.5772 64.1613C88.5206 63.9922 88.4546 63.8042 88.3794 63.5971C88.3042 63.39 88.2235 63.1741 88.1373 62.9493H85.8408L85.8014 63.049L85.7996 63.0536C85.7281 63.2346 85.6591 63.4091 85.5923 63.5756L85.3507 64.175C85.2553 64.3822 85.1937 64.6034 85.1679 64.8301C85.1664 64.8641 85.1716 64.898 85.1834 64.93C85.1951 64.9619 85.2132 64.9911 85.2365 65.016C85.2868 65.068 85.3471 65.1095 85.4137 65.138C85.4884 65.1696 85.5667 65.1923 85.6467 65.2056C85.7303 65.2216 85.8089 65.2339 85.8842 65.2439V65.3303H84.0455V65.2353C84.1806 65.2229 84.3114 65.1818 84.4293 65.1147C84.4964 65.08 84.5588 65.0367 84.6147 64.9858C84.6892 64.897 84.7557 64.8018 84.8135 64.7012C84.9384 64.4865 85.0505 64.2646 85.1492 64.0366C85.2473 63.8179 85.3534 63.5742 85.47 63.3062L85.4717 63.3022L85.4719 63.3019L85.554 63.1133L85.6474 62.899C85.7683 62.6218 85.892 62.3381 86.0172 62.0476C86.1748 61.6816 86.3324 61.3148 86.4877 60.9434C86.6427 60.5716 86.7897 60.225 86.9285 59.9037L86.8422 59.7132C86.9414 59.669 87.0353 59.6138 87.1222 59.5487C87.2016 59.4896 87.2753 59.4233 87.3424 59.3505C87.4 59.2881 87.4534 59.2221 87.5023 59.1527C87.5452 59.0883 87.579 59.0371 87.6014 58.9969H87.67L87.903 59.6183L87.9063 59.627C88.0001 59.8773 88.0912 60.1203 88.1798 60.3559C88.341 60.7849 88.4959 61.197 88.6421 61.5944L88.7472 61.881L88.7473 61.8812L88.7476 61.8822L88.7483 61.884C88.8566 62.1796 88.9621 62.4677 89.0687 62.7465C89.153 62.9669 89.2359 63.1873 89.3181 63.4062L89.3191 63.4088C89.3742 63.5556 89.4291 63.7016 89.484 63.8465C89.5466 64.0256 89.6055 64.1736 89.6599 64.2919L89.8453 64.6926C89.869 64.7347 89.8951 64.7754 89.9235 64.8145ZM86.3013 61.8233C86.1835 62.1141 86.0556 62.4292 85.9176 62.7684H88.0665C87.9687 62.5094 87.87 62.2508 87.7691 61.9918C87.6958 61.8037 87.6232 61.6199 87.553 61.4424L87.4749 61.2445C87.3813 61.0069 87.2954 60.7881 87.2172 60.5894C87.1391 60.3907 87.0738 60.2276 87.0222 60.1024C86.9875 60.1773 86.9354 60.2961 86.8714 60.4565C86.8227 60.5787 86.7617 60.7215 86.6921 60.8843L86.6918 60.885L86.6247 61.0421C86.527 61.2719 86.4192 61.5336 86.3013 61.8233ZM97.1094 64.0274C97.0365 64.1848 96.9444 64.3326 96.8353 64.4674C96.7231 64.6055 96.591 64.7262 96.4433 64.8255C96.2668 64.9398 96.0726 65.0241 95.8686 65.0749C95.7585 65.1069 95.6461 65.1303 95.5324 65.1448C95.4059 65.1613 95.283 65.1736 95.1605 65.1827C95.0381 65.1919 94.9299 65.1969 94.8284 65.1996L94.7751 65.2011C94.7013 65.2031 94.6468 65.2047 94.6092 65.2047C94.4934 65.2044 94.3778 65.1971 94.2629 65.1827C94.1478 65.1677 94.0413 65.1512 93.9431 65.1302C93.858 65.114 93.7745 65.09 93.6937 65.0585C93.642 65.04 93.5952 65.0102 93.5567 64.9712C93.4955 64.8571 93.4641 64.7293 93.4653 64.5998C93.4561 64.4326 93.4498 64.2586 93.4438 64.074V64.0731C93.4438 63.8775 93.4438 63.701 93.4393 63.5432C93.4347 63.3851 93.4342 63.2307 93.4342 63.0814V61.5104C93.4342 61.339 93.4342 61.1709 93.4393 61.0078C93.4422 60.9117 93.4436 60.8161 93.445 60.7194L93.445 60.7183L93.445 60.7172L93.4462 60.6366C93.4468 60.5965 93.4475 60.5561 93.4484 60.5154L93.4515 60.3687C93.454 60.2422 93.4568 60.1077 93.4607 59.9631C93.4599 59.8305 93.4973 59.7004 93.5685 59.5885C93.63 59.4978 93.7114 59.4223 93.8065 59.3679C93.8978 59.3159 93.9966 59.2784 94.0993 59.2569C94.204 59.2331 94.293 59.2167 94.368 59.2043V59.118H91.6147V59.2043C91.7609 59.221 91.9044 59.256 92.0418 59.3085C92.1673 59.3534 92.279 59.4302 92.3657 59.5314C92.4038 59.5799 92.4302 59.6365 92.4429 59.6968C92.461 59.7744 92.4739 59.8531 92.4813 59.9325C92.4903 60.0292 92.4944 60.1263 92.4936 60.2235V62.699C92.4936 62.8711 92.4926 63.0395 92.4904 63.2042L92.4844 63.5114L92.4813 63.6569C92.4781 63.7954 92.4763 63.9041 92.4763 63.9849C92.4763 64.0763 92.4722 64.1677 92.4639 64.265C92.4557 64.3623 92.4452 64.4514 92.4338 64.5391C92.4245 64.6163 92.4092 64.6926 92.3881 64.7675C92.3739 64.8221 92.3491 64.8733 92.315 64.9182C92.2236 65.0169 92.1092 65.0914 91.982 65.1352C91.8439 65.1861 91.7011 65.2231 91.5558 65.2458V65.3326H97.0966L97.4163 63.5574L97.3304 63.5309C97.2569 63.7036 97.1843 63.8698 97.1094 64.0274ZM100.434 64.6007C100.429 64.7149 100.456 64.8283 100.512 64.9278C100.595 65.0364 100.711 65.1154 100.842 65.153C100.973 65.2011 101.11 65.2333 101.248 65.2489V65.3362L98.6319 65.3334V65.2466C98.7696 65.2266 98.9044 65.1894 99.033 65.1361C99.1534 65.0854 99.261 65.0082 99.3477 64.9104C99.3818 64.8683 99.4044 64.8181 99.4135 64.7647C99.4291 64.6906 99.4407 64.6157 99.4482 64.5404C99.4569 64.4527 99.461 64.3636 99.4651 64.2663C99.4692 64.169 99.4692 64.0776 99.4692 63.9863C99.4692 63.9054 99.471 63.7953 99.4738 63.6583C99.4756 63.5564 99.4774 63.4454 99.4802 63.328V63.2969L99.4829 63.2056C99.4866 63.0414 99.4866 62.8732 99.4866 62.7014V62.7003V60.2061C99.4872 60.1098 99.4829 60.0136 99.4738 59.9178C99.4666 59.8364 99.4536 59.7557 99.435 59.6762C99.4229 59.6146 99.3963 59.5568 99.3573 59.5076C99.2795 59.4114 99.1766 59.3386 99.0599 59.2974C98.9303 59.2512 98.7957 59.2205 98.6588 59.2061V59.1197H101.238V59.2061C101.107 59.2265 100.977 59.2582 100.85 59.3011C100.781 59.3238 100.717 59.3599 100.663 59.4074C100.608 59.455 100.563 59.5129 100.53 59.5779C100.473 59.693 100.445 59.8201 100.448 59.9484C100.445 60.0969 100.441 60.239 100.434 60.371C100.434 60.5158 100.434 60.6579 100.43 60.799C100.426 60.9399 100.426 61.0807 100.426 61.2252V61.2261V64.1169C100.426 64.2826 100.429 64.4438 100.434 64.6007ZM108.389 64.0274C108.316 64.1845 108.223 64.3322 108.115 64.4674C108.002 64.6055 107.87 64.7263 107.722 64.8255C107.546 64.94 107.352 65.0243 107.148 65.0749C107.038 65.1069 106.926 65.1302 106.812 65.1448C106.685 65.1613 106.563 65.1736 106.441 65.1827C106.318 65.1919 106.209 65.1969 106.108 65.1996L106.056 65.2011C105.981 65.2031 105.926 65.2047 105.889 65.2047C105.773 65.2044 105.657 65.1971 105.542 65.1827C105.427 65.1677 105.322 65.1512 105.223 65.1302C105.138 65.114 105.054 65.09 104.973 65.0585C104.922 65.0399 104.875 65.0101 104.836 64.9712C104.775 64.857 104.744 64.7293 104.745 64.5998C104.736 64.4326 104.729 64.2586 104.723 64.074C104.723 63.8781 104.723 63.7013 104.72 63.5432C104.716 63.3851 104.714 63.2307 104.714 63.0814V61.5104C104.714 61.339 104.714 61.1709 104.72 61.0078L104.728 60.5154C104.728 60.3733 104.733 60.2174 104.738 60.0487L104.74 59.9631C104.739 59.8305 104.777 59.7004 104.848 59.5885C104.91 59.4978 104.991 59.4223 105.086 59.3679C105.177 59.3158 105.276 59.2783 105.379 59.2569C105.484 59.2331 105.573 59.2167 105.648 59.2043V59.118H102.895V59.2043C103.041 59.2209 103.184 59.2559 103.322 59.3085C103.447 59.3534 103.559 59.4302 103.646 59.5314C103.683 59.58 103.709 59.6366 103.722 59.6968C103.741 59.7743 103.754 59.8531 103.761 59.9325C103.769 60.0239 103.774 60.1189 103.774 60.2235V62.699C103.774 62.8712 103.772 63.0398 103.769 63.2042L103.765 63.4724L103.761 63.6551C103.757 63.7922 103.756 63.9023 103.756 63.9831C103.756 64.0745 103.751 64.1659 103.743 64.2632C103.734 64.3605 103.725 64.4495 103.713 64.5372C103.703 64.6146 103.687 64.691 103.665 64.7657C103.651 64.8202 103.626 64.8715 103.592 64.9164C103.501 65.0148 103.387 65.0894 103.26 65.1334C103.122 65.1844 102.978 65.2215 102.833 65.2439V65.3307H108.374L108.694 63.5555L108.608 63.529C108.537 63.7035 108.465 63.8698 108.389 64.0274ZM16 33.716H136V33.9891H16V33.716Z" fill="#1F3626"/>
</svg>
