<svg width="144" height="93" viewBox="0 0 144 93" fill="none" xmlns="http://www.w3.org/2000/svg">
<path d="M71.4743 69.461L57.5745 60.6279M57.5745 60.6279L48.4928 74.9292L58.454 81.2577L62.3926 83.7624L68.3387 74.413L71.4935 69.461M57.5745 60.6279L43.6747 51.7947L41.1509 55.7524L35.4151 64.7768L34.5738 66.096L48.4737 74.9292L57.5554 60.6279M37.7285 53.5728L40.2523 49.6151L26.3525 40.7819L17.2708 55.0832L31.1706 63.9164L32.0118 62.5972L37.7477 53.5728M63.2912 42.3497L64.1325 41.0304L50.2326 32.1973L41.1509 46.4986L55.0507 55.3318L57.5745 51.3741L63.3103 42.3497H63.2912Z" stroke="white" stroke-width="0.477986" stroke-miterlimit="10"/>
<path fill-rule="evenodd" clip-rule="evenodd" d="M57.5745 60.6279L43.6747 51.7947L41.1509 55.7524L35.4151 64.7768L34.5738 66.096L48.4737 74.9292L57.5554 60.6279M37.7285 53.5728L40.2523 49.6151L26.3525 40.7819L17.2708 55.0832L31.1706 63.9164L32.0118 62.5972L37.7477 53.5728M63.2912 42.3497L64.1325 41.0304L50.2326 32.1973L41.1509 46.4986L55.0507 55.3318L57.5745 51.3741L63.3103 42.3497H63.2912Z" fill="#E1BA5F"/>
<path d="M95.6221 54.146L96.8075 55.3888" stroke="white" stroke-width="0.477986" stroke-miterlimit="10"/>
<path d="M98.8724 51.0298L100.058 52.2725" stroke="white" stroke-width="0.477986" stroke-miterlimit="10"/>
<path d="M92.6676 44.5009L89.4082 47.6211L95.6355 54.1262L98.8949 51.0059L92.6676 44.5009Z" stroke="white" stroke-width="0.477986" stroke-miterlimit="10"/>
<path d="M85.5843 51.2802L82.3248 54.4004L88.5521 60.9055L91.8115 57.7852L85.5843 51.2802Z" stroke="white" stroke-width="0.477986" stroke-miterlimit="10"/>
<path d="M82.3241 54.4015L78.6227 57.9448L81.8487 61.3148L85.5501 57.7714L82.3241 54.4015Z" stroke="white" stroke-width="0.477986" stroke-miterlimit="10"/>
<path d="M91.8173 57.7979L92.9835 59.0406" stroke="white" stroke-width="0.477986" stroke-miterlimit="10"/>
<path d="M64.3319 48.5444L59.5 56.1436L63.3077 58.5646L68.1395 50.9655L64.3319 48.5444Z" stroke="white" stroke-width="0.477986" stroke-miterlimit="10"/>
<path d="M72.5918 53.7924L67.7599 61.3916L71.5675 63.8127L76.3994 56.2135L72.5918 53.7924Z" stroke="white" stroke-width="0.477986" stroke-miterlimit="10"/>
<path d="M68.1283 50.9531L72.5831 53.7828" stroke="white" stroke-width="0.477986" stroke-miterlimit="10"/>
<path d="M59.4863 56.1343L58.5686 57.5874" stroke="white" stroke-width="0.477986" stroke-miterlimit="10"/>
<path d="M81.4354 70.1109L100.058 52.2725" stroke="white" stroke-width="0.477986" stroke-miterlimit="10"/>
<path d="M78.7014 70.3785C79.5618 70.933 80.6898 70.8183 81.4164 70.1108" stroke="white" stroke-width="0.477986" stroke-miterlimit="10"/>
<path d="M58.5686 57.5874L78.7014 70.3783" stroke="white" stroke-width="0.477986" stroke-miterlimit="10"/>
<path d="M67.765 61.3926L66.8473 62.8265" stroke="white" stroke-width="0.477986" stroke-miterlimit="10"/>
<path d="M63.2911 58.5625L62.3734 59.9965" stroke="white" stroke-width="0.477986" stroke-miterlimit="10"/>
<path d="M88.6626 61.0293L81.6649 67.7211" stroke="white" stroke-width="0.477986" stroke-miterlimit="10"/>
<path d="M88.5479 60.9146L88.6626 61.0293" stroke="white" stroke-width="0.477986" stroke-miterlimit="10"/>
<path d="M85.4696 51.1826L89.2935 47.5308" stroke="white" stroke-width="0.477986" stroke-miterlimit="10"/>
<path d="M89.3891 47.6455L89.2935 47.5308" stroke="white" stroke-width="0.477986" stroke-miterlimit="10"/>
<path d="M85.5843 51.2973L85.4696 51.1826" stroke="white" stroke-width="0.477986" stroke-miterlimit="10"/>
<path d="M76.3879 56.2109L78.8352 57.7596" stroke="white" stroke-width="0.477986" stroke-miterlimit="10"/>
<path d="M81.6649 67.7207L82.7547 68.8487" stroke="white" stroke-width="0.477986" stroke-miterlimit="10"/>
<path d="M84.8387 64.6807L85.9094 65.8087" stroke="white" stroke-width="0.477986" stroke-miterlimit="10"/>
<path d="M27.1171 34.5871L25.0522 33.2678L25.8553 31.9868L36.1606 38.5448L33.981 41.948L25.7597 36.7093L27.1171 34.5871Z" stroke="white" stroke-width="0.477986" stroke-miterlimit="10"/>
<path d="M27.9492 33.5118L27.0361 34.9478L28.0203 35.5735L28.9333 34.1376L27.9492 33.5118Z" stroke="white" stroke-width="0.477986" stroke-miterlimit="10"/>
<path d="M27.1172 34.5869L24.9185 33.1912L25.7215 31.9102L36.1607 38.5446L33.9811 41.9479L25.7597 36.7091L27.1172 34.5869Z" stroke="white" stroke-width="0.477986" stroke-miterlimit="10"/>
<path d="M27.9492 33.5118L27.0361 34.9478L28.0203 35.5735L28.9333 34.1376L27.9492 33.5118Z" stroke="white" stroke-width="0.477986" stroke-miterlimit="10"/>
<path d="M55.0315 55.3315L58.5686 57.5876" stroke="white" stroke-width="0.477986" stroke-miterlimit="10"/>
<path d="M103.767 48.7163L100.058 52.2725" stroke="white" stroke-width="0.477986" stroke-miterlimit="10"/>
<path d="M128.125 29.7307L125.965 27.4746" stroke="white" stroke-width="0.477986" stroke-miterlimit="10"/>
<path d="M14.4219 29.501L12.7394 32.1203" stroke="white" stroke-width="0.477986" stroke-miterlimit="10"/>
<path d="M114.512 34.9506L116.271 33.249L115.239 32.1592L106.425 40.5908L109.216 43.5161L116.252 36.767L114.512 34.9506Z" stroke="white" stroke-width="0.477986" stroke-miterlimit="10"/>
<path d="M113.479 34.0275L112.636 34.834L113.813 36.0632L114.656 35.2567L113.479 34.0275Z" stroke="white" stroke-width="0.477986" stroke-miterlimit="10"/>
<path d="M114.512 34.9501L116.386 33.1529L115.334 32.0439L106.425 40.5903L109.216 43.5156L116.252 36.7664L114.512 34.9501Z" stroke="white" stroke-width="0.477986" stroke-miterlimit="10"/>
<path d="M113.479 34.0275L112.636 34.834L113.813 36.0632L114.656 35.2567L113.479 34.0275Z" stroke="white" stroke-width="0.477986" stroke-miterlimit="10"/>
<path d="M95.6221 54.146L96.8075 55.3888" stroke="white" stroke-width="0.477986" stroke-miterlimit="10"/>
<path d="M98.8724 51.0298L100.058 52.2725" stroke="white" stroke-width="0.477986" stroke-miterlimit="10"/>
<path d="M92.6676 44.5009L89.4082 47.6211L95.6355 54.1262L98.8949 51.0059L92.6676 44.5009Z" stroke="white" stroke-width="0.477986" stroke-miterlimit="10"/>
<path d="M85.5843 51.2802L82.3248 54.4004L88.5521 60.9055L91.8115 57.7852L85.5843 51.2802Z" stroke="white" stroke-width="0.477986" stroke-miterlimit="10"/>
<path d="M82.3241 54.4015L78.6227 57.9448L81.8487 61.3148L85.5501 57.7714L82.3241 54.4015Z" stroke="white" stroke-width="0.477986" stroke-miterlimit="10"/>
<path d="M91.8173 57.7979L92.9835 59.0406" stroke="white" stroke-width="0.477986" stroke-miterlimit="10"/>
<path d="M64.3319 48.5444L59.5 56.1436L63.3077 58.5646L68.1395 50.9655L64.3319 48.5444Z" stroke="white" stroke-width="0.477986" stroke-miterlimit="10"/>
<path d="M72.5918 53.7924L67.7599 61.3916L71.5675 63.8127L76.3994 56.2135L72.5918 53.7924Z" stroke="white" stroke-width="0.477986" stroke-miterlimit="10"/>
<path d="M68.1283 50.9531L72.5831 53.7828" stroke="white" stroke-width="0.477986" stroke-miterlimit="10"/>
<path d="M59.4863 56.1343L58.5686 57.5874" stroke="white" stroke-width="0.477986" stroke-miterlimit="10"/>
<path d="M81.4354 70.1109L100.058 52.2725" stroke="white" stroke-width="0.477986" stroke-miterlimit="10"/>
<path d="M78.7014 70.3785C79.5618 70.933 80.6898 70.8183 81.4164 70.1108" stroke="white" stroke-width="0.477986" stroke-miterlimit="10"/>
<path d="M58.5686 57.5874L78.7014 70.3783" stroke="white" stroke-width="0.477986" stroke-miterlimit="10"/>
<path d="M67.765 61.3926L66.8473 62.8265" stroke="white" stroke-width="0.477986" stroke-miterlimit="10"/>
<path d="M63.2911 58.5625L62.3734 59.9965" stroke="white" stroke-width="0.477986" stroke-miterlimit="10"/>
<path d="M88.6626 61.0293L81.6649 67.7211" stroke="white" stroke-width="0.477986" stroke-miterlimit="10"/>
<path d="M88.5479 60.9146L88.6626 61.0293" stroke="white" stroke-width="0.477986" stroke-miterlimit="10"/>
<path d="M85.4696 51.1826L89.2935 47.5308" stroke="white" stroke-width="0.477986" stroke-miterlimit="10"/>
<path d="M89.3891 47.6455L89.2935 47.5308" stroke="white" stroke-width="0.477986" stroke-miterlimit="10"/>
<path d="M85.5843 51.2973L85.4696 51.1826" stroke="white" stroke-width="0.477986" stroke-miterlimit="10"/>
<path d="M76.3879 56.2109L78.8352 57.7596" stroke="white" stroke-width="0.477986" stroke-miterlimit="10"/>
<path d="M81.6649 67.7207L82.7547 68.8487" stroke="white" stroke-width="0.477986" stroke-miterlimit="10"/>
<path d="M84.8387 64.6807L85.9094 65.8087" stroke="white" stroke-width="0.477986" stroke-miterlimit="10"/>
<path d="M27.1171 34.5871L25.0522 33.2678L25.8553 31.9868L36.1606 38.5448L33.981 41.948L25.7597 36.7093L27.1171 34.5871Z" stroke="white" stroke-width="0.477986" stroke-miterlimit="10"/>
<path d="M27.9492 33.5118L27.0361 34.9478L28.0203 35.5735L28.9333 34.1376L27.9492 33.5118Z" stroke="white" stroke-width="0.477986" stroke-miterlimit="10"/>
<path d="M27.1172 34.5869L24.9185 33.1912L25.7215 31.9102L36.1607 38.5446L33.9811 41.9479L25.7597 36.7091L27.1172 34.5869Z" stroke="white" stroke-width="0.477986" stroke-miterlimit="10"/>
<path d="M27.9492 33.5118L27.0361 34.9478L28.0203 35.5735L28.9333 34.1376L27.9492 33.5118Z" stroke="white" stroke-width="0.477986" stroke-miterlimit="10"/>
<path d="M55.0315 55.3315L58.5686 57.5876" stroke="white" stroke-width="0.477986" stroke-miterlimit="10"/>
<path d="M103.767 48.7163L100.058 52.2725" stroke="white" stroke-width="0.477986" stroke-miterlimit="10"/>
<path d="M128.125 29.7307L125.965 27.4746" stroke="white" stroke-width="0.477986" stroke-miterlimit="10"/>
<path d="M114.512 34.9506L116.271 33.249L115.239 32.1592L106.425 40.5908L109.216 43.5161L116.252 36.767L114.512 34.9506Z" stroke="white" stroke-width="0.477986" stroke-miterlimit="10"/>
<path d="M113.479 34.0275L112.636 34.834L113.813 36.0632L114.656 35.2567L113.479 34.0275Z" stroke="white" stroke-width="0.477986" stroke-miterlimit="10"/>
<path d="M114.512 34.9501L116.386 33.1529L115.334 32.0439L106.425 40.5903L109.216 43.5156L116.252 36.7664L114.512 34.9501Z" stroke="white" stroke-width="0.477986" stroke-miterlimit="10"/>
<path d="M113.479 34.0275L112.636 34.834L113.813 36.0632L114.656 35.2567L113.479 34.0275Z" stroke="white" stroke-width="0.477986" stroke-miterlimit="10"/>
<path d="M43.6555 51.7754L57.5744 60.6277L48.4736 74.9099L34.5737 66.0767L35.415 64.7575L41.1508 55.7522L43.6555 51.7754Z" stroke="white" stroke-width="0.477986" stroke-miterlimit="10"/>
<path d="M40.2522 49.6149L26.3524 40.7817L17.2706 55.064L31.1705 63.9162L31.9926 62.597L37.7284 53.5726L40.2522 49.6149Z" stroke="white" stroke-width="0.477986" stroke-miterlimit="10"/>
<path d="M32.3941 20.8594L50.2134 32.1972L41.1317 46.4985L33.981 41.9481L36.1607 38.5448L25.4729 31.7383L32.3941 20.8594Z" stroke="white" stroke-width="0.477986" stroke-miterlimit="10"/>
<path d="M11.3627 31.2412L26.3524 40.7818L17.2706 55.064L9.14488 49.9018L1 44.7395L7.27117 34.8548L8.55217 35.6769L11.3627 31.2412Z" stroke="white" stroke-width="0.477986" stroke-miterlimit="10"/>
<path d="M55.0314 55.3318L41.1316 46.4986L50.2324 32.1973L64.1323 41.0304L63.291 42.3497L57.5552 51.3549L55.0314 55.3318Z" stroke="white" stroke-width="0.477986" stroke-miterlimit="10"/>
<path d="M131.184 22.4843L118.355 34.759L106.654 22.5225L113.613 15.8499L120.573 9.19629L128.66 17.6471L127.571 18.6986L131.184 22.4843Z" stroke="white" stroke-width="0.477986" stroke-miterlimit="10"/>
<path d="M94.494 61.9087L80.9957 74.8334L92.7159 87.0699L100.345 79.7471L107.304 73.0936L99.2165 64.6428L98.1267 65.6943L94.494 61.9087Z" stroke="white" stroke-width="0.477986" stroke-miterlimit="10"/>
<path d="M94.494 61.9087L80.9957 74.8334L92.7159 87.0699L100.345 79.7471L107.304 73.0936L99.2165 64.6428L98.1267 65.6943L94.494 61.9087Z" stroke="white" stroke-width="0.477986" stroke-miterlimit="10"/>
<path d="M99.5989 57.0141L113.097 44.0894L124.817 56.3258L117.189 63.6294L110.229 70.3021L102.142 61.8513L103.232 60.7997L99.5989 57.0141Z" stroke="white" stroke-width="0.477986" stroke-miterlimit="10"/>
<path d="M99.5989 57.0141L113.097 44.0894L124.817 56.3258L117.189 63.6294L110.229 70.3021L102.142 61.8513L103.232 60.7997L99.5989 57.0141Z" stroke="white" stroke-width="0.477986" stroke-miterlimit="10"/>
<path d="M62.3733 83.7428L58.4347 81.2573L48.4735 74.9097L57.5744 60.6274L71.4742 69.4606L68.3195 74.4125" stroke="white" stroke-width="0.477986" stroke-miterlimit="10"/>
<path d="M106.654 22.5225L91.3776 37.1297L103.098 49.3661L109.216 43.5156L106.425 40.5903L115.564 31.8336L106.654 22.5225Z" stroke="white" stroke-width="0.477986" stroke-miterlimit="10"/>
<path d="M130.19 27.7422L113.097 44.0893L124.817 56.3257L136.04 45.5806L143 38.9271L134.912 30.4763L133.823 31.5278L130.19 27.7422Z" stroke="white" stroke-width="0.477986" stroke-miterlimit="10"/>
<path d="M65.7958 85.9228L71.8949 89.804C78.2425 93.8382 86.5021 93.0161 91.932 87.8156L92.7159 87.0699L82.6974 76.5925L71.4743 69.4609L68.3196 74.4129L62.3734 83.7623" stroke="white" stroke-width="0.477986" stroke-miterlimit="10"/>
<path d="M40.2522 49.6147L43.6555 51.7752" stroke="white" stroke-width="0.477986" stroke-miterlimit="10"/>
<path d="M94.4939 61.9087L99.5988 57.0142" stroke="white" stroke-width="0.477986" stroke-miterlimit="10"/>
<path d="M65.7958 85.9224L74.8775 71.6211" stroke="white" stroke-width="0.477986" stroke-miterlimit="10"/>
<path d="M3.33252 22.4652L23.2932 35.1605L32.3941 20.8592L19.2781 12.5231L11.1524 7.36084L4.86207 17.2265L6.14308 18.0295L3.33252 22.4652Z" stroke="white" stroke-width="0.477986" stroke-miterlimit="10"/>
<g filter="url(#filter0_d_4190_5625)">
<path d="M71.3404 7.85799C71.3404 7.85799 71.4551 7.87711 71.4933 7.89623C71.5316 7.91535 71.5889 7.95358 71.6272 7.99182C71.6654 8.03006 71.7228 8.08742 71.761 8.14478L75.7187 13.1541C75.7187 13.0011 75.6996 12.829 75.6805 12.6952C75.6805 12.5422 75.6805 12.4084 75.6805 12.2746V7.85799H77.3821V16.1941H76.3688C76.2158 16.1941 76.1011 16.1749 75.9864 16.1176C75.8908 16.0793 75.7761 15.9837 75.6805 15.869L71.7419 10.898C71.7419 11.0509 71.761 11.1848 71.7801 11.3186C71.7801 11.4524 71.7801 11.5863 71.7801 11.701V16.1749H70.0785V7.83887H71.0918C71.0918 7.83887 71.2448 7.83887 71.3021 7.83887L71.3404 7.85799Z" fill="white"/>
</g>
<path d="M73.5391 21.6622C68.4533 21.624 64.2853 17.3221 64.3426 12.1599C64.4 7.03589 68.5871 2.7149 74.0362 2.84873C79.1028 2.98257 83.4047 7.2462 83.1561 12.7335C82.9458 17.5325 78.8543 21.7961 73.5391 21.6431V21.6622ZM73.4817 4.30181C69.2563 4.32093 65.7575 8.08745 65.8148 11.9878H66.7517V12.5423H65.7957C65.8148 17.1309 70.0593 20.343 73.4817 20.1518V19.2532H74.0553V20.2283C76.3496 20.0945 78.2616 19.1958 79.7529 17.5133C80.9957 16.0985 81.6648 14.4542 81.7222 12.5232H80.7662V11.9496H81.6839C81.6457 7.43739 77.5924 4.18709 74.0171 4.30181V5.23866H73.4817V4.28269V4.30181Z" fill="white"/>
<path d="M80.0205 3.19294L86.2726 0L83.1561 6.29029L80.0205 3.19294Z" fill="white"/>
<defs>
<filter id="filter0_d_4190_5625" x="69.6579" y="7.41824" width="8.75667" height="9.80806" filterUnits="userSpaceOnUse" color-interpolation-filters="sRGB">
<feFlood flood-opacity="0" result="BackgroundImageFix"/>
<feColorMatrix in="SourceAlpha" type="matrix" values="0 0 0 0 0 0 0 0 0 0 0 0 0 0 0 0 0 0 127 0" result="hardAlpha"/>
<feOffset dx="0.305911" dy="0.305911"/>
<feGaussianBlur stdDeviation="0.363269"/>
<feColorMatrix type="matrix" values="0 0 0 0 0.137255 0 0 0 0 0.121569 0 0 0 0 0.12549 0 0 0 1 0"/>
<feBlend mode="normal" in2="BackgroundImageFix" result="effect1_dropShadow_4190_5625"/>
<feBlend mode="normal" in="SourceGraphic" in2="effect1_dropShadow_4190_5625" result="shape"/>
</filter>
</defs>
</svg>
