<svg width="144" height="93" viewBox="0 0 144 93" fill="none" xmlns="http://www.w3.org/2000/svg">
<path d="M71.4753 69.4605L57.5755 60.6274M57.5755 60.6274L48.4938 74.9287L58.455 81.2572L62.3936 83.7619L68.3397 74.4125L71.4944 69.4605M57.5755 60.6274L43.6757 51.7942L41.1519 55.7519L35.4161 64.7763L34.5748 66.0955L48.4746 74.9287L57.5564 60.6274M37.7295 53.5723L40.2533 49.6146L26.3535 40.7814L17.2717 55.0827L31.1716 63.9159L32.0128 62.5967L37.7486 53.5723M63.2922 42.3492L64.1334 41.03L50.2336 32.1968L41.1519 46.4981L55.0517 55.3313L57.5755 51.3736L63.3113 42.3492H63.2922Z" stroke="white" stroke-width="0.477986" stroke-miterlimit="10"/>
<path fill-rule="evenodd" clip-rule="evenodd" d="M71.4754 69.4611L57.5756 60.6279L48.4939 74.9293L58.4551 81.2578L62.3937 83.7624L68.3399 74.413L71.4946 69.4611" fill="#E1BA5F"/>
<path d="M95.623 54.146L96.8084 55.3888" stroke="white" stroke-width="0.477986" stroke-miterlimit="10"/>
<path d="M98.8733 51.0303L100.059 52.273" stroke="white" stroke-width="0.477986" stroke-miterlimit="10"/>
<path d="M92.6686 44.5009L89.4092 47.6211L95.6364 54.1262L98.8959 51.0059L92.6686 44.5009Z" stroke="white" stroke-width="0.477986" stroke-miterlimit="10"/>
<path d="M85.5851 51.2806L82.3257 54.4009L88.5529 60.9059L91.8124 57.7857L85.5851 51.2806Z" stroke="white" stroke-width="0.477986" stroke-miterlimit="10"/>
<path d="M82.3247 54.402L78.6233 57.9453L81.8493 61.3152L85.5507 57.7719L82.3247 54.402Z" stroke="white" stroke-width="0.477986" stroke-miterlimit="10"/>
<path d="M91.8184 57.7979L92.9846 59.0406" stroke="white" stroke-width="0.477986" stroke-miterlimit="10"/>
<path d="M64.3329 48.5449L59.501 56.144L63.3086 58.5651L68.1405 50.9659L64.3329 48.5449Z" stroke="white" stroke-width="0.477986" stroke-miterlimit="10"/>
<path d="M72.5926 53.7924L67.7607 61.3916L71.5684 63.8127L76.4003 56.2135L72.5926 53.7924Z" stroke="white" stroke-width="0.477986" stroke-miterlimit="10"/>
<path d="M68.1294 50.9531L72.5842 53.7828" stroke="white" stroke-width="0.477986" stroke-miterlimit="10"/>
<path d="M59.4873 56.1343L58.5696 57.5874" stroke="white" stroke-width="0.477986" stroke-miterlimit="10"/>
<path d="M81.4365 70.1109L100.059 52.2725" stroke="white" stroke-width="0.477986" stroke-miterlimit="10"/>
<path d="M78.7024 70.3785C79.5628 70.933 80.6908 70.8183 81.4173 70.1108" stroke="white" stroke-width="0.477986" stroke-miterlimit="10"/>
<path d="M58.5696 57.5874L78.7023 70.3783" stroke="white" stroke-width="0.477986" stroke-miterlimit="10"/>
<path d="M67.7661 61.3926L66.8484 62.8265" stroke="white" stroke-width="0.477986" stroke-miterlimit="10"/>
<path d="M63.292 58.5625L62.3743 59.9965" stroke="white" stroke-width="0.477986" stroke-miterlimit="10"/>
<path d="M88.6635 61.0293L81.6658 67.7211" stroke="white" stroke-width="0.477986" stroke-miterlimit="10"/>
<path d="M88.5488 60.9146L88.6635 61.0293" stroke="white" stroke-width="0.477986" stroke-miterlimit="10"/>
<path d="M85.4707 51.1826L89.2946 47.5308" stroke="white" stroke-width="0.477986" stroke-miterlimit="10"/>
<path d="M89.39 47.6455L89.2944 47.5308" stroke="white" stroke-width="0.477986" stroke-miterlimit="10"/>
<path d="M85.5854 51.2973L85.4707 51.1826" stroke="white" stroke-width="0.477986" stroke-miterlimit="10"/>
<path d="M76.3889 56.2109L78.8362 57.7596" stroke="white" stroke-width="0.477986" stroke-miterlimit="10"/>
<path d="M81.6658 67.7207L82.7556 68.8487" stroke="white" stroke-width="0.477986" stroke-miterlimit="10"/>
<path d="M84.8396 64.6807L85.9103 65.8087" stroke="white" stroke-width="0.477986" stroke-miterlimit="10"/>
<path d="M27.1181 34.5871L25.0532 33.2678L25.8562 31.9868L36.1616 38.5448L33.982 41.948L25.7606 36.7093L27.1181 34.5871Z" stroke="white" stroke-width="0.477986" stroke-miterlimit="10"/>
<path d="M27.9501 33.5118L27.0371 34.9478L28.0213 35.5735L28.9343 34.1376L27.9501 33.5118Z" stroke="white" stroke-width="0.477986" stroke-miterlimit="10"/>
<path d="M27.1182 34.5874L24.9194 33.1916L25.7224 31.9106L36.1617 38.5451L33.982 41.9483L25.7607 36.7096L27.1182 34.5874Z" stroke="white" stroke-width="0.477986" stroke-miterlimit="10"/>
<path d="M27.9501 33.5118L27.0371 34.9478L28.0213 35.5735L28.9343 34.1376L27.9501 33.5118Z" stroke="white" stroke-width="0.477986" stroke-miterlimit="10"/>
<path d="M55.0325 55.332L58.5696 57.5881" stroke="white" stroke-width="0.477986" stroke-miterlimit="10"/>
<path d="M103.768 48.7163L100.059 52.2725" stroke="white" stroke-width="0.477986" stroke-miterlimit="10"/>
<path d="M128.126 29.7307L125.966 27.4746" stroke="white" stroke-width="0.477986" stroke-miterlimit="10"/>
<path d="M14.4227 29.5015L12.7402 32.1208" stroke="white" stroke-width="0.477986" stroke-miterlimit="10"/>
<path d="M114.513 34.9501L116.272 33.2485L115.24 32.1587L106.426 40.5904L109.217 43.5156L116.253 36.7665L114.513 34.9501Z" stroke="white" stroke-width="0.477986" stroke-miterlimit="10"/>
<path d="M113.48 34.028L112.637 34.8345L113.814 36.0637L114.656 35.2572L113.48 34.028Z" stroke="white" stroke-width="0.477986" stroke-miterlimit="10"/>
<path d="M114.513 34.9501L116.387 33.1529L115.335 32.0439L106.426 40.5903L109.217 43.5156L116.253 36.7664L114.513 34.9501Z" stroke="white" stroke-width="0.477986" stroke-miterlimit="10"/>
<path d="M113.48 34.028L112.637 34.8345L113.814 36.0637L114.656 35.2572L113.48 34.028Z" stroke="white" stroke-width="0.477986" stroke-miterlimit="10"/>
<path d="M95.623 54.146L96.8084 55.3888" stroke="white" stroke-width="0.477986" stroke-miterlimit="10"/>
<path d="M98.8733 51.0303L100.059 52.273" stroke="white" stroke-width="0.477986" stroke-miterlimit="10"/>
<path d="M92.6686 44.5009L89.4092 47.6211L95.6364 54.1262L98.8959 51.0059L92.6686 44.5009Z" stroke="white" stroke-width="0.477986" stroke-miterlimit="10"/>
<path d="M85.5851 51.2806L82.3257 54.4009L88.5529 60.9059L91.8124 57.7857L85.5851 51.2806Z" stroke="white" stroke-width="0.477986" stroke-miterlimit="10"/>
<path d="M82.3247 54.402L78.6233 57.9453L81.8493 61.3152L85.5507 57.7719L82.3247 54.402Z" stroke="white" stroke-width="0.477986" stroke-miterlimit="10"/>
<path d="M91.8184 57.7979L92.9846 59.0406" stroke="white" stroke-width="0.477986" stroke-miterlimit="10"/>
<path d="M64.3329 48.5449L59.501 56.144L63.3086 58.5651L68.1405 50.9659L64.3329 48.5449Z" stroke="white" stroke-width="0.477986" stroke-miterlimit="10"/>
<path d="M72.5926 53.7924L67.7607 61.3916L71.5684 63.8127L76.4003 56.2135L72.5926 53.7924Z" stroke="white" stroke-width="0.477986" stroke-miterlimit="10"/>
<path d="M68.1294 50.9531L72.5842 53.7828" stroke="white" stroke-width="0.477986" stroke-miterlimit="10"/>
<path d="M59.4873 56.1343L58.5696 57.5874" stroke="white" stroke-width="0.477986" stroke-miterlimit="10"/>
<path d="M81.4365 70.1109L100.059 52.2725" stroke="white" stroke-width="0.477986" stroke-miterlimit="10"/>
<path d="M78.7024 70.3785C79.5628 70.933 80.6908 70.8183 81.4173 70.1108" stroke="white" stroke-width="0.477986" stroke-miterlimit="10"/>
<path d="M58.5696 57.5874L78.7023 70.3783" stroke="white" stroke-width="0.477986" stroke-miterlimit="10"/>
<path d="M67.7661 61.3926L66.8484 62.8265" stroke="white" stroke-width="0.477986" stroke-miterlimit="10"/>
<path d="M63.292 58.5625L62.3743 59.9965" stroke="white" stroke-width="0.477986" stroke-miterlimit="10"/>
<path d="M88.6635 61.0293L81.6658 67.7211" stroke="white" stroke-width="0.477986" stroke-miterlimit="10"/>
<path d="M88.5488 60.9146L88.6635 61.0293" stroke="white" stroke-width="0.477986" stroke-miterlimit="10"/>
<path d="M85.4707 51.1826L89.2946 47.5308" stroke="white" stroke-width="0.477986" stroke-miterlimit="10"/>
<path d="M89.39 47.6455L89.2944 47.5308" stroke="white" stroke-width="0.477986" stroke-miterlimit="10"/>
<path d="M85.5854 51.2973L85.4707 51.1826" stroke="white" stroke-width="0.477986" stroke-miterlimit="10"/>
<path d="M76.3889 56.2109L78.8362 57.7596" stroke="white" stroke-width="0.477986" stroke-miterlimit="10"/>
<path d="M81.6658 67.7207L82.7556 68.8487" stroke="white" stroke-width="0.477986" stroke-miterlimit="10"/>
<path d="M84.8396 64.6807L85.9103 65.8087" stroke="white" stroke-width="0.477986" stroke-miterlimit="10"/>
<path d="M27.1181 34.5871L25.0532 33.2678L25.8562 31.9868L36.1616 38.5448L33.982 41.948L25.7606 36.7093L27.1181 34.5871Z" stroke="white" stroke-width="0.477986" stroke-miterlimit="10"/>
<path d="M27.9501 33.5118L27.0371 34.9478L28.0213 35.5735L28.9343 34.1376L27.9501 33.5118Z" stroke="white" stroke-width="0.477986" stroke-miterlimit="10"/>
<path d="M27.1182 34.5874L24.9194 33.1916L25.7224 31.9106L36.1617 38.5451L33.982 41.9483L25.7607 36.7096L27.1182 34.5874Z" stroke="white" stroke-width="0.477986" stroke-miterlimit="10"/>
<path d="M27.9501 33.5118L27.0371 34.9478L28.0213 35.5735L28.9343 34.1376L27.9501 33.5118Z" stroke="white" stroke-width="0.477986" stroke-miterlimit="10"/>
<path d="M55.0325 55.332L58.5696 57.5881" stroke="white" stroke-width="0.477986" stroke-miterlimit="10"/>
<path d="M103.768 48.7163L100.059 52.2725" stroke="white" stroke-width="0.477986" stroke-miterlimit="10"/>
<path d="M128.126 29.7307L125.966 27.4746" stroke="white" stroke-width="0.477986" stroke-miterlimit="10"/>
<path d="M114.513 34.9501L116.272 33.2485L115.24 32.1587L106.426 40.5904L109.217 43.5156L116.253 36.7665L114.513 34.9501Z" stroke="white" stroke-width="0.477986" stroke-miterlimit="10"/>
<path d="M113.48 34.028L112.637 34.8345L113.814 36.0637L114.656 35.2572L113.48 34.028Z" stroke="white" stroke-width="0.477986" stroke-miterlimit="10"/>
<path d="M114.513 34.9501L116.387 33.1529L115.335 32.0439L106.426 40.5903L109.217 43.5156L116.253 36.7664L114.513 34.9501Z" stroke="white" stroke-width="0.477986" stroke-miterlimit="10"/>
<path d="M113.48 34.028L112.637 34.8345L113.814 36.0637L114.656 35.2572L113.48 34.028Z" stroke="white" stroke-width="0.477986" stroke-miterlimit="10"/>
<path d="M43.6564 51.7754L57.5754 60.6277L48.4745 74.9099L34.5747 66.0767L35.416 64.7575L41.1518 55.7522L43.6564 51.7754Z" stroke="white" stroke-width="0.477986" stroke-miterlimit="10"/>
<path d="M40.2533 49.6149L26.3535 40.7817L17.2717 55.0639L31.1716 63.9162L31.9937 62.597L37.7295 53.5726L40.2533 49.6149Z" stroke="white" stroke-width="0.477986" stroke-miterlimit="10"/>
<path d="M32.3951 20.8594L50.2144 32.1972L41.1327 46.4985L33.982 41.9481L36.1616 38.5448L25.4739 31.7383L32.3951 20.8594Z" stroke="white" stroke-width="0.477986" stroke-miterlimit="10"/>
<path d="M11.3637 31.2412L26.3533 40.7818L17.2716 55.064L9.14585 49.9018L1.00098 44.7395L7.27215 34.8548L8.55315 35.6769L11.3637 31.2412Z" stroke="white" stroke-width="0.477986" stroke-miterlimit="10"/>
<path d="M55.0324 55.3313L41.1326 46.4981L50.2334 32.1968L64.1332 41.03L63.292 42.3492L57.5562 51.3544L55.0324 55.3313Z" stroke="white" stroke-width="0.477986" stroke-miterlimit="10"/>
<path d="M131.185 22.4843L118.356 34.759L106.655 22.5225L113.615 15.8499L120.574 9.19629L128.661 17.6471L127.572 18.6986L131.185 22.4843Z" stroke="white" stroke-width="0.477986" stroke-miterlimit="10"/>
<path d="M94.4949 61.9087L80.9966 74.8334L92.7168 87.0699L100.345 79.7471L107.305 73.0936L99.2174 64.6428L98.1276 65.6943L94.4949 61.9087Z" stroke="white" stroke-width="0.477986" stroke-miterlimit="10"/>
<path d="M94.4949 61.9087L80.9966 74.8334L92.7168 87.0699L100.345 79.7471L107.305 73.0936L99.2174 64.6428L98.1276 65.6943L94.4949 61.9087Z" stroke="white" stroke-width="0.477986" stroke-miterlimit="10"/>
<path d="M99.5999 57.0141L113.098 44.0894L124.818 56.3258L117.19 63.6294L110.23 70.3021L102.143 61.8513L103.233 60.7997L99.5999 57.0141Z" stroke="white" stroke-width="0.477986" stroke-miterlimit="10"/>
<path d="M99.5999 57.0141L113.098 44.0894L124.818 56.3258L117.19 63.6294L110.23 70.3021L102.143 61.8513L103.233 60.7997L99.5999 57.0141Z" stroke="white" stroke-width="0.477986" stroke-miterlimit="10"/>
<path d="M57.5755 60.6279L71.4753 69.4611L68.3206 74.413L62.3744 83.7433L58.4358 81.2578L48.4746 74.9101L57.5755 60.6279Z" stroke="white" stroke-width="0.477986" stroke-miterlimit="10"/>
<path d="M106.655 22.5225L91.3784 37.1297L103.099 49.3661L109.217 43.5156L106.425 40.5903L115.564 31.8336L106.655 22.5225Z" stroke="white" stroke-width="0.477986" stroke-miterlimit="10"/>
<path d="M130.191 27.7422L113.098 44.0893L124.818 56.3257L136.041 45.5806L143.001 38.9271L134.913 30.4763L133.824 31.5278L130.191 27.7422Z" stroke="white" stroke-width="0.477986" stroke-miterlimit="10"/>
<path d="M65.7966 85.9228L71.8957 89.804C78.2434 93.8382 86.503 93.0161 91.9329 87.8156L92.7168 87.0699L82.6982 76.5925L71.4751 69.4609L68.3204 74.4129L62.3743 83.7623" stroke="white" stroke-width="0.477986" stroke-miterlimit="10"/>
<path d="M40.2532 49.6152L43.6564 51.7757" stroke="white" stroke-width="0.477986" stroke-miterlimit="10"/>
<path d="M94.4949 61.9087L99.5998 57.0142" stroke="white" stroke-width="0.477986" stroke-miterlimit="10"/>
<path d="M65.7966 85.9229L74.8784 71.6216" stroke="white" stroke-width="0.477986" stroke-miterlimit="10"/>
<path d="M3.3335 22.4652L23.2942 35.1605L32.395 20.8592L19.2791 12.5231L11.1533 7.36084L4.86305 17.2265L6.14405 18.0295L3.3335 22.4652Z" stroke="white" stroke-width="0.477986" stroke-miterlimit="10"/>
<g filter="url(#filter0_d_4195_47925)">
<path d="M71.3412 7.85799C71.3412 7.85799 71.4559 7.87711 71.4942 7.89623C71.5324 7.91535 71.5898 7.95358 71.628 7.99182C71.6663 8.03006 71.7236 8.08742 71.7619 8.14478L75.7196 13.1541C75.7196 13.0011 75.7005 12.829 75.6813 12.6952C75.6813 12.5422 75.6813 12.4084 75.6813 12.2746V7.85799H77.383V16.1941H76.3696C76.2167 16.1941 76.102 16.1749 75.9872 16.1176C75.8725 16.0602 75.7769 15.9837 75.6813 15.869L71.7427 10.898C71.7427 11.0509 71.7619 11.1848 71.781 11.3186C71.781 11.4524 71.781 11.5863 71.781 11.701V16.1749H70.0793V7.83887H71.0927C71.0927 7.83887 71.2456 7.83887 71.303 7.83887L71.3412 7.85799Z" fill="white"/>
</g>
<path d="M73.5401 21.6622C68.4543 21.624 64.2862 17.3221 64.3436 12.1599C64.401 7.03589 68.5881 2.7149 74.0372 2.84873C79.1038 2.98257 83.4057 7.2462 83.1571 12.7335C82.9468 17.5325 78.8553 21.7961 73.5401 21.6431V21.6622ZM73.4827 4.30181C69.2573 4.32093 65.7584 8.08745 65.8158 11.9878H66.7527V12.5423H65.7967C65.8158 17.1309 70.0603 20.343 73.4827 20.1518V19.2532H74.0563V20.2283C76.3506 20.0945 78.2625 19.1958 79.7539 17.5133C80.9966 16.0985 81.6658 14.4542 81.7232 12.5232H80.7672V11.9496H81.6849C81.6467 7.43739 77.5934 4.18709 74.018 4.30181V5.23866H73.4827V4.28269V4.30181Z" fill="white"/>
<path d="M80.0215 3.19294L86.2735 0L83.1571 6.29029L80.0215 3.19294Z" fill="white"/>
<defs>
<filter id="filter0_d_4195_47925" x="69.6587" y="7.41824" width="8.75679" height="9.80806" filterUnits="userSpaceOnUse" color-interpolation-filters="sRGB">
<feFlood flood-opacity="0" result="BackgroundImageFix"/>
<feColorMatrix in="SourceAlpha" type="matrix" values="0 0 0 0 0 0 0 0 0 0 0 0 0 0 0 0 0 0 127 0" result="hardAlpha"/>
<feOffset dx="0.305911" dy="0.305911"/>
<feGaussianBlur stdDeviation="0.363269"/>
<feColorMatrix type="matrix" values="0 0 0 0 0.137255 0 0 0 0 0.121569 0 0 0 0 0.12549 0 0 0 1 0"/>
<feBlend mode="normal" in2="BackgroundImageFix" result="effect1_dropShadow_4195_47925"/>
<feBlend mode="normal" in="SourceGraphic" in2="effect1_dropShadow_4195_47925" result="shape"/>
</filter>
</defs>
</svg>
