<svg width="144" height="93" viewBox="0 0 144 93" fill="none" xmlns="http://www.w3.org/2000/svg">
<path fill-rule="evenodd" clip-rule="evenodd" d="M32.3568 21.0122L25.4355 31.8912L36.1234 38.6786L33.9437 42.1009L41.0944 46.6322L50.1953 32.35L32.3568 21.0122Z" fill="#E1BA5F"/>
<path d="M71.4758 69.461L57.5759 60.6279M57.5759 60.6279L48.4941 74.9292L58.4554 81.2577L62.394 83.7624L68.3402 74.413L71.4949 69.461M57.5759 60.6279L43.676 51.7947L41.1522 55.7524L35.4164 64.7768L34.5751 66.096L48.475 74.9292L57.5568 60.6279M37.7299 53.5728L40.2536 49.6151L26.3537 40.7819L17.272 55.0832L31.1719 63.9164L32.0131 62.5972L37.749 53.5728M63.2927 42.3497L64.1339 41.0304L50.234 32.1973L41.1522 46.4986L55.0521 55.3318L57.5759 51.3741L63.3118 42.3497H63.2927Z" stroke="white" stroke-width="0.477987" stroke-miterlimit="10"/>
<path d="M95.6245 54.146L96.8099 55.3888" stroke="white" stroke-width="0.477987" stroke-miterlimit="10"/>
<path d="M98.874 51.0303L100.059 52.273" stroke="white" stroke-width="0.477987" stroke-miterlimit="10"/>
<path d="M92.6691 44.5009L89.4097 47.6211L95.6369 54.1262L98.8964 51.0059L92.6691 44.5009Z" stroke="white" stroke-width="0.477987" stroke-miterlimit="10"/>
<path d="M85.5861 51.2806L82.3267 54.4009L88.5539 60.9059L91.8134 57.7857L85.5861 51.2806Z" stroke="white" stroke-width="0.477987" stroke-miterlimit="10"/>
<path d="M82.3254 54.402L78.624 57.9453L81.85 61.3152L85.5515 57.7719L82.3254 54.402Z" stroke="white" stroke-width="0.477987" stroke-miterlimit="10"/>
<path d="M91.8198 57.7979L92.9861 59.0406" stroke="white" stroke-width="0.477987" stroke-miterlimit="10"/>
<path d="M64.3339 48.5449L59.502 56.144L63.3096 58.5651L68.1415 50.9659L64.3339 48.5449Z" stroke="white" stroke-width="0.477987" stroke-miterlimit="10"/>
<path d="M72.5941 53.7924L67.7622 61.3916L71.5699 63.8127L76.4018 56.2135L72.5941 53.7924Z" stroke="white" stroke-width="0.477987" stroke-miterlimit="10"/>
<path d="M68.1299 50.9536L72.5847 53.7833" stroke="white" stroke-width="0.477987" stroke-miterlimit="10"/>
<path d="M59.488 56.1348L58.5703 57.5878" stroke="white" stroke-width="0.477987" stroke-miterlimit="10"/>
<path d="M81.437 70.1109L100.059 52.2725" stroke="white" stroke-width="0.477987" stroke-miterlimit="10"/>
<path d="M78.7036 70.3785C79.564 70.933 80.692 70.8183 81.4186 70.1108" stroke="white" stroke-width="0.477987" stroke-miterlimit="10"/>
<path d="M58.5703 57.5879L78.7032 70.3788" stroke="white" stroke-width="0.477987" stroke-miterlimit="10"/>
<path d="M67.7669 61.3926L66.8491 62.8265" stroke="white" stroke-width="0.477987" stroke-miterlimit="10"/>
<path d="M63.2932 58.5625L62.3755 59.9965" stroke="white" stroke-width="0.477987" stroke-miterlimit="10"/>
<path d="M88.6642 61.0293L81.6665 67.7211" stroke="white" stroke-width="0.477987" stroke-miterlimit="10"/>
<path d="M88.5503 60.9146L88.665 61.0293" stroke="white" stroke-width="0.477987" stroke-miterlimit="10"/>
<path d="M85.4722 51.1826L89.2961 47.5308" stroke="white" stroke-width="0.477987" stroke-miterlimit="10"/>
<path d="M89.3915 47.6455L89.2959 47.5308" stroke="white" stroke-width="0.477987" stroke-miterlimit="10"/>
<path d="M85.5869 51.2973L85.4722 51.1826" stroke="white" stroke-width="0.477987" stroke-miterlimit="10"/>
<path d="M76.3901 56.2109L78.8374 57.7596" stroke="white" stroke-width="0.477987" stroke-miterlimit="10"/>
<path d="M81.6665 67.7212L82.7563 68.8492" stroke="white" stroke-width="0.477987" stroke-miterlimit="10"/>
<path d="M84.8408 64.6807L85.9115 65.8087" stroke="white" stroke-width="0.477987" stroke-miterlimit="10"/>
<path d="M27.1191 34.5871L25.0542 33.2678L25.8572 31.9868L36.1626 38.5448L33.983 41.948L25.7616 36.7093L27.1191 34.5871Z" stroke="white" stroke-width="0.477987" stroke-miterlimit="10"/>
<path d="M27.9511 33.5118L27.0381 34.9478L28.0223 35.5735L28.9353 34.1376L27.9511 33.5118Z" stroke="white" stroke-width="0.477987" stroke-miterlimit="10"/>
<path d="M27.1182 34.5874L24.9194 33.1916L25.7225 31.9106L36.1617 38.5451L33.9821 41.9483L25.7607 36.7096L27.1182 34.5874Z" stroke="white" stroke-width="0.477987" stroke-miterlimit="10"/>
<path d="M27.9511 33.5118L27.0381 34.9478L28.0223 35.5735L28.9353 34.1376L27.9511 33.5118Z" stroke="white" stroke-width="0.477987" stroke-miterlimit="10"/>
<path d="M55.0327 55.332L58.5698 57.5881" stroke="white" stroke-width="0.477987" stroke-miterlimit="10"/>
<path d="M103.769 48.7163L100.06 52.2725" stroke="white" stroke-width="0.477987" stroke-miterlimit="10"/>
<path d="M128.127 29.7307L125.966 27.4746" stroke="white" stroke-width="0.477987" stroke-miterlimit="10"/>
<path d="M14.4237 29.5015L12.7412 32.1208" stroke="white" stroke-width="0.477987" stroke-miterlimit="10"/>
<path d="M114.514 34.9501L116.273 33.2485L115.241 32.1587L106.427 40.5904L109.218 43.5156L116.254 36.7665L114.514 34.9501Z" stroke="white" stroke-width="0.477987" stroke-miterlimit="10"/>
<path d="M113.481 34.028L112.639 34.8345L113.815 36.0637L114.658 35.2572L113.481 34.028Z" stroke="white" stroke-width="0.477987" stroke-miterlimit="10"/>
<path d="M114.514 34.9501L116.388 33.1529L115.336 32.0439L106.427 40.5903L109.218 43.5156L116.254 36.7664L114.514 34.9501Z" stroke="white" stroke-width="0.477987" stroke-miterlimit="10"/>
<path d="M113.481 34.028L112.639 34.8345L113.815 36.0637L114.658 35.2572L113.481 34.028Z" stroke="white" stroke-width="0.477987" stroke-miterlimit="10"/>
<path d="M95.6245 54.146L96.8099 55.3888" stroke="white" stroke-width="0.477987" stroke-miterlimit="10"/>
<path d="M98.874 51.0303L100.059 52.273" stroke="white" stroke-width="0.477987" stroke-miterlimit="10"/>
<path d="M92.6691 44.5009L89.4097 47.6211L95.6369 54.1262L98.8964 51.0059L92.6691 44.5009Z" stroke="white" stroke-width="0.477987" stroke-miterlimit="10"/>
<path d="M85.5861 51.2806L82.3267 54.4009L88.5539 60.9059L91.8134 57.7857L85.5861 51.2806Z" stroke="white" stroke-width="0.477987" stroke-miterlimit="10"/>
<path d="M82.3254 54.402L78.624 57.9453L81.85 61.3152L85.5515 57.7719L82.3254 54.402Z" stroke="white" stroke-width="0.477987" stroke-miterlimit="10"/>
<path d="M91.8198 57.7979L92.9861 59.0406" stroke="white" stroke-width="0.477987" stroke-miterlimit="10"/>
<path d="M64.3339 48.5449L59.502 56.144L63.3096 58.5651L68.1415 50.9659L64.3339 48.5449Z" stroke="white" stroke-width="0.477987" stroke-miterlimit="10"/>
<path d="M72.5941 53.7924L67.7622 61.3916L71.5699 63.8127L76.4018 56.2135L72.5941 53.7924Z" stroke="white" stroke-width="0.477987" stroke-miterlimit="10"/>
<path d="M68.1299 50.9536L72.5847 53.7833" stroke="white" stroke-width="0.477987" stroke-miterlimit="10"/>
<path d="M59.488 56.1348L58.5703 57.5878" stroke="white" stroke-width="0.477987" stroke-miterlimit="10"/>
<path d="M81.437 70.1109L100.059 52.2725" stroke="white" stroke-width="0.477987" stroke-miterlimit="10"/>
<path d="M78.7036 70.3785C79.564 70.933 80.692 70.8183 81.4186 70.1108" stroke="white" stroke-width="0.477987" stroke-miterlimit="10"/>
<path d="M58.5703 57.5879L78.7032 70.3788" stroke="white" stroke-width="0.477987" stroke-miterlimit="10"/>
<path d="M67.7669 61.3926L66.8491 62.8265" stroke="white" stroke-width="0.477987" stroke-miterlimit="10"/>
<path d="M63.2932 58.5625L62.3755 59.9965" stroke="white" stroke-width="0.477987" stroke-miterlimit="10"/>
<path d="M88.6642 61.0293L81.6665 67.7211" stroke="white" stroke-width="0.477987" stroke-miterlimit="10"/>
<path d="M88.5503 60.9146L88.665 61.0293" stroke="white" stroke-width="0.477987" stroke-miterlimit="10"/>
<path d="M85.4722 51.1826L89.2961 47.5308" stroke="white" stroke-width="0.477987" stroke-miterlimit="10"/>
<path d="M89.3915 47.6455L89.2959 47.5308" stroke="white" stroke-width="0.477987" stroke-miterlimit="10"/>
<path d="M85.5869 51.2973L85.4722 51.1826" stroke="white" stroke-width="0.477987" stroke-miterlimit="10"/>
<path d="M76.3901 56.2109L78.8374 57.7596" stroke="white" stroke-width="0.477987" stroke-miterlimit="10"/>
<path d="M81.6665 67.7212L82.7563 68.8492" stroke="white" stroke-width="0.477987" stroke-miterlimit="10"/>
<path d="M84.8408 64.6807L85.9115 65.8087" stroke="white" stroke-width="0.477987" stroke-miterlimit="10"/>
<path d="M27.1191 34.5871L25.0542 33.2678L25.8572 31.9868L36.1626 38.5448L33.983 41.948L25.7616 36.7093L27.1191 34.5871Z" stroke="white" stroke-width="0.477987" stroke-miterlimit="10"/>
<path d="M27.9511 33.5118L27.0381 34.9478L28.0223 35.5735L28.9353 34.1376L27.9511 33.5118Z" stroke="white" stroke-width="0.477987" stroke-miterlimit="10"/>
<path d="M27.1182 34.5874L24.9194 33.1916L25.7225 31.9106L36.1617 38.5451L33.9821 41.9483L25.7607 36.7096L27.1182 34.5874Z" stroke="white" stroke-width="0.477987" stroke-miterlimit="10"/>
<path d="M27.9511 33.5118L27.0381 34.9478L28.0223 35.5735L28.9353 34.1376L27.9511 33.5118Z" stroke="white" stroke-width="0.477987" stroke-miterlimit="10"/>
<path d="M55.0327 55.332L58.5698 57.5881" stroke="white" stroke-width="0.477987" stroke-miterlimit="10"/>
<path d="M103.769 48.7163L100.06 52.2725" stroke="white" stroke-width="0.477987" stroke-miterlimit="10"/>
<path d="M128.127 29.7307L125.966 27.4746" stroke="white" stroke-width="0.477987" stroke-miterlimit="10"/>
<path d="M114.514 34.9501L116.273 33.2485L115.241 32.1587L106.427 40.5904L109.218 43.5156L116.254 36.7665L114.514 34.9501Z" stroke="white" stroke-width="0.477987" stroke-miterlimit="10"/>
<path d="M113.481 34.028L112.639 34.8345L113.815 36.0637L114.658 35.2572L113.481 34.028Z" stroke="white" stroke-width="0.477987" stroke-miterlimit="10"/>
<path d="M114.514 34.9501L116.388 33.1529L115.336 32.0439L106.427 40.5903L109.218 43.5156L116.254 36.7664L114.514 34.9501Z" stroke="white" stroke-width="0.477987" stroke-miterlimit="10"/>
<path d="M113.481 34.028L112.639 34.8345L113.815 36.0637L114.658 35.2572L113.481 34.028Z" stroke="white" stroke-width="0.477987" stroke-miterlimit="10"/>
<path d="M43.6575 51.7754L57.5765 60.6277L48.4756 74.9099L34.5757 66.0767L35.4169 64.7575L41.1528 55.7522L43.6575 51.7754Z" stroke="white" stroke-width="0.477987" stroke-miterlimit="10"/>
<path d="M40.2536 49.6149L26.3537 40.7817L17.272 55.0639L31.1719 63.9162L31.994 62.597L37.7299 53.5726L40.2536 49.6149Z" stroke="white" stroke-width="0.477987" stroke-miterlimit="10"/>
<path d="M32.3954 20.8594L50.2148 32.1972L41.133 46.4985L33.9823 41.9481L36.1619 38.5448L25.4741 31.7383L32.3954 20.8594Z" stroke="white" stroke-width="0.477987" stroke-miterlimit="10"/>
<path d="M11.3647 31.2412L26.3544 40.7818L17.2727 55.064L9.14687 49.9018L1.00195 44.7395L7.27316 34.8548L8.55416 35.6769L11.3647 31.2412Z" stroke="white" stroke-width="0.477987" stroke-miterlimit="10"/>
<path d="M55.0337 55.3313L41.1338 46.4981L50.2347 32.1968L64.1346 41.03L63.2933 42.3492L57.5575 51.3544L55.0337 55.3313Z" stroke="white" stroke-width="0.477987" stroke-miterlimit="10"/>
<path d="M131.186 22.4848L118.356 34.7595L106.655 22.523L113.615 15.8503L120.574 9.19678L128.662 17.6476L127.572 18.6991L131.186 22.4848Z" stroke="white" stroke-width="0.477987" stroke-miterlimit="10"/>
<path d="M94.4955 61.9092L80.9971 74.8339L92.7173 87.0703L100.346 79.7476L107.306 73.094L99.218 64.6433L98.1282 65.6948L94.4955 61.9092Z" stroke="white" stroke-width="0.477987" stroke-miterlimit="10"/>
<path d="M94.4955 61.9092L80.9971 74.8339L92.7173 87.0703L100.346 79.7476L107.306 73.094L99.218 64.6433L98.1282 65.6948L94.4955 61.9092Z" stroke="white" stroke-width="0.477987" stroke-miterlimit="10"/>
<path d="M99.6006 57.0141L113.099 44.0894L124.819 56.3258L117.191 63.6294L110.231 70.3021L102.143 61.8513L103.233 60.7997L99.6006 57.0141Z" stroke="white" stroke-width="0.477987" stroke-miterlimit="10"/>
<path d="M99.6006 57.0141L113.099 44.0894L124.819 56.3258L117.191 63.6294L110.231 70.3021L102.143 61.8513L103.233 60.7997L99.6006 57.0141Z" stroke="white" stroke-width="0.477987" stroke-miterlimit="10"/>
<path d="M57.5765 60.6279L71.4764 69.4611L68.3216 74.413L62.3755 83.7433L58.4369 81.2578L48.4756 74.9101L57.5765 60.6279Z" stroke="white" stroke-width="0.477987" stroke-miterlimit="10"/>
<path d="M106.656 22.5225L91.3799 37.1297L103.1 49.3661L109.218 43.5156L106.427 40.5903L115.566 31.8336L106.656 22.5225Z" stroke="white" stroke-width="0.477987" stroke-miterlimit="10"/>
<path d="M130.192 27.7422L113.099 44.0893L124.819 56.3257L136.043 45.5806L143.002 38.9271L134.914 30.4763L133.825 31.5278L130.192 27.7422Z" stroke="white" stroke-width="0.477987" stroke-miterlimit="10"/>
<path d="M65.7979 85.9228L71.897 89.804C78.2447 93.8382 86.5043 93.0161 91.9343 87.8156L92.7182 87.0699L82.6995 76.5925L71.4764 69.4609L68.3217 74.4129L62.3755 83.7623" stroke="white" stroke-width="0.477987" stroke-miterlimit="10"/>
<path d="M40.2534 49.6152L43.6567 51.7757" stroke="white" stroke-width="0.477987" stroke-miterlimit="10"/>
<path d="M94.4956 61.9087L99.6005 57.0142" stroke="white" stroke-width="0.477987" stroke-miterlimit="10"/>
<path d="M65.7979 85.9229L74.8796 71.6216" stroke="white" stroke-width="0.477987" stroke-miterlimit="10"/>
<path d="M3.33447 22.4652L23.2952 35.1605L32.3961 20.8592L19.2801 12.5231L11.1544 7.36084L4.86403 17.2265L6.14504 18.0295L3.33447 22.4652Z" stroke="white" stroke-width="0.477987" stroke-miterlimit="10"/>
<g filter="url(#filter0_d_4197_12487)">
<path d="M71.3425 7.85799C71.3425 7.85799 71.4572 7.87711 71.4954 7.89623C71.5337 7.91535 71.591 7.95358 71.6293 7.99182C71.6675 8.03006 71.7248 8.08742 71.7631 8.14478L75.7208 13.1541C75.7208 13.0011 75.7017 12.829 75.6826 12.6952C75.6826 12.5422 75.6826 12.4084 75.6826 12.2746V7.85799H77.3842V16.1941H76.3709C76.2179 16.1941 76.1032 16.1749 75.9885 16.1176C75.8738 16.0602 75.7782 15.9837 75.6826 15.869L71.744 10.898C71.744 11.0509 71.7631 11.1848 71.7822 11.3186C71.7822 11.4524 71.7822 11.5863 71.7822 11.701V16.1749H70.0806V7.83887H71.0939C71.0939 7.83887 71.2469 7.83887 71.3042 7.83887L71.3425 7.85799Z" fill="white"/>
</g>
<path d="M73.5413 21.6622C68.4555 21.624 64.2875 17.3221 64.3448 12.1599C64.4022 7.03589 68.5894 2.7149 74.0384 2.84873C79.1051 2.98257 83.407 7.2462 83.1584 12.7335C82.9481 17.5325 78.8565 21.7961 73.5413 21.6431V21.6622ZM73.484 4.30181C69.2585 4.32093 65.7597 8.08745 65.817 11.9878H66.7539V12.5423H65.7979C65.817 17.1309 70.0616 20.343 73.484 20.1518V19.2532H74.0575V20.2283C76.3519 20.0945 78.2638 19.1958 79.7552 17.5133C80.9979 16.0985 81.6671 14.4542 81.7245 12.5232H80.7685V11.9496H81.6862C81.648 7.43739 77.5947 4.18709 74.0193 4.30181V5.23866H73.484V4.28269V4.30181Z" fill="white"/>
<path d="M80.0229 3.19294L86.275 0L83.1585 6.29029L80.0229 3.19294Z" fill="white"/>
<defs>
<filter id="filter0_d_4197_12487" x="69.6599" y="7.41824" width="8.75679" height="9.80806" filterUnits="userSpaceOnUse" color-interpolation-filters="sRGB">
<feFlood flood-opacity="0" result="BackgroundImageFix"/>
<feColorMatrix in="SourceAlpha" type="matrix" values="0 0 0 0 0 0 0 0 0 0 0 0 0 0 0 0 0 0 127 0" result="hardAlpha"/>
<feOffset dx="0.305912" dy="0.305912"/>
<feGaussianBlur stdDeviation="0.36327"/>
<feColorMatrix type="matrix" values="0 0 0 0 0.137255 0 0 0 0 0.121569 0 0 0 0 0.12549 0 0 0 1 0"/>
<feBlend mode="normal" in2="BackgroundImageFix" result="effect1_dropShadow_4197_12487"/>
<feBlend mode="normal" in="SourceGraphic" in2="effect1_dropShadow_4197_12487" result="shape"/>
</filter>
</defs>
</svg>
