<svg width="144" height="93" viewBox="0 0 144 93" fill="none" xmlns="http://www.w3.org/2000/svg">
<path fill-rule="evenodd" clip-rule="evenodd" d="M110.826 36.5178L115.567 31.9865L110.941 27.1302L106.658 22.6562L91.3813 37.2826L103.102 49.519L109.22 43.6494L106.428 40.7432L110.826 36.5178Z" fill="#E1BA5F"/>
<path d="M71.4775 69.461L57.5777 60.6279M57.5777 60.6279L48.4959 74.9292L58.4572 81.2577L62.3958 83.7624L68.3419 74.413L71.4966 69.461M57.5777 60.6279L43.6779 51.7947L41.1541 55.7524L35.4183 64.7768L34.577 66.096L48.4768 74.9292L57.5586 60.6279M37.7317 53.5728L40.2555 49.6151L26.3557 40.7819L17.2739 55.0832L31.1737 63.9164L32.015 62.5972L37.7508 53.5728M63.2944 42.3497L64.1356 41.0304L50.2358 32.1973L41.1541 46.4986L55.0539 55.3318L57.5777 51.3741L63.3135 42.3497H63.2944Z" stroke="white" stroke-width="0.477986" stroke-miterlimit="10"/>
<path d="M95.626 54.146L96.8114 55.3888" stroke="white" stroke-width="0.477986" stroke-miterlimit="10"/>
<path d="M98.8765 51.0298L100.062 52.2725" stroke="white" stroke-width="0.477986" stroke-miterlimit="10"/>
<path d="M92.6715 44.5009L89.4121 47.6211L95.6394 54.1262L98.8988 51.0059L92.6715 44.5009Z" stroke="white" stroke-width="0.477986" stroke-miterlimit="10"/>
<path d="M85.5881 51.2802L82.3286 54.4004L88.5559 60.9055L91.8153 57.7852L85.5881 51.2802Z" stroke="white" stroke-width="0.477986" stroke-miterlimit="10"/>
<path d="M82.3279 54.4015L78.6265 57.9448L81.8525 61.3148L85.5539 57.7714L82.3279 54.4015Z" stroke="white" stroke-width="0.477986" stroke-miterlimit="10"/>
<path d="M91.8213 57.7983L92.9876 59.0411" stroke="white" stroke-width="0.477986" stroke-miterlimit="10"/>
<path d="M64.3358 48.5444L59.5039 56.1436L63.3116 58.5646L68.1434 50.9655L64.3358 48.5444Z" stroke="white" stroke-width="0.477986" stroke-miterlimit="10"/>
<path d="M72.5956 53.7924L67.7637 61.3916L71.5713 63.8127L76.4032 56.2135L72.5956 53.7924Z" stroke="white" stroke-width="0.477986" stroke-miterlimit="10"/>
<path d="M68.1323 50.9531L72.5872 53.7828" stroke="white" stroke-width="0.477986" stroke-miterlimit="10"/>
<path d="M59.4905 56.1348L58.5728 57.5878" stroke="white" stroke-width="0.477986" stroke-miterlimit="10"/>
<path d="M81.4395 70.1109L100.062 52.2725" stroke="white" stroke-width="0.477986" stroke-miterlimit="10"/>
<path d="M78.7056 70.3785C79.5659 70.933 80.694 70.8183 81.4205 70.1108" stroke="white" stroke-width="0.477986" stroke-miterlimit="10"/>
<path d="M58.5728 57.5879L78.7055 70.3788" stroke="white" stroke-width="0.477986" stroke-miterlimit="10"/>
<path d="M67.7688 61.3926L66.8511 62.8265" stroke="white" stroke-width="0.477986" stroke-miterlimit="10"/>
<path d="M63.2952 58.5625L62.3774 59.9965" stroke="white" stroke-width="0.477986" stroke-miterlimit="10"/>
<path d="M88.6667 61.0293L81.6689 67.7211" stroke="white" stroke-width="0.477986" stroke-miterlimit="10"/>
<path d="M88.5518 60.9146L88.6659 61.0287" stroke="white" stroke-width="0.477986" stroke-miterlimit="10"/>
<path d="M85.4736 51.1831L89.2975 47.5312" stroke="white" stroke-width="0.477986" stroke-miterlimit="10"/>
<path d="M89.3925 47.6454L89.2974 47.5312" stroke="white" stroke-width="0.477986" stroke-miterlimit="10"/>
<path d="M85.5878 51.2973L85.4736 51.1831" stroke="white" stroke-width="0.477986" stroke-miterlimit="10"/>
<path d="M76.3916 56.2109L78.8389 57.7596" stroke="white" stroke-width="0.477986" stroke-miterlimit="10"/>
<path d="M81.6689 67.7207L82.7588 68.8487" stroke="white" stroke-width="0.477986" stroke-miterlimit="10"/>
<path d="M84.8428 64.6807L85.9135 65.8087" stroke="white" stroke-width="0.477986" stroke-miterlimit="10"/>
<path d="M27.1211 34.5871L25.0562 33.2678L25.8592 31.9868L36.1645 38.5448L33.9849 41.948L25.7636 36.7093L27.1211 34.5871Z" stroke="white" stroke-width="0.477986" stroke-miterlimit="10"/>
<path d="M27.9531 33.5123L27.04 34.9482L28.0242 35.574L28.9373 34.1381L27.9531 33.5123Z" stroke="white" stroke-width="0.477986" stroke-miterlimit="10"/>
<path d="M27.1206 34.5874L24.9219 33.1916L25.7249 31.9106L36.1641 38.5451L33.9845 41.9483L25.7631 36.7096L27.1206 34.5874Z" stroke="white" stroke-width="0.477986" stroke-miterlimit="10"/>
<path d="M27.9531 33.5123L27.04 34.9482L28.0242 35.574L28.9373 34.1381L27.9531 33.5123Z" stroke="white" stroke-width="0.477986" stroke-miterlimit="10"/>
<path d="M55.0347 55.332L58.5718 57.5881" stroke="white" stroke-width="0.477986" stroke-miterlimit="10"/>
<path d="M103.771 48.7163L100.062 52.2725" stroke="white" stroke-width="0.477986" stroke-miterlimit="10"/>
<path d="M128.129 29.7307L125.968 27.4746" stroke="white" stroke-width="0.477986" stroke-miterlimit="10"/>
<path d="M14.4262 29.5015L12.7437 32.1208" stroke="white" stroke-width="0.477986" stroke-miterlimit="10"/>
<path d="M114.516 34.9501L116.275 33.2485L115.242 32.1587L106.428 40.5904L109.22 43.5156L116.256 36.7665L114.516 34.9501Z" stroke="white" stroke-width="0.477986" stroke-miterlimit="10"/>
<path d="M113.483 34.0275L112.64 34.834L113.817 36.0632L114.659 35.2567L113.483 34.0275Z" stroke="white" stroke-width="0.477986" stroke-miterlimit="10"/>
<path d="M114.516 34.9501L116.389 33.1529L115.338 32.0439L106.428 40.5903L109.22 43.5156L116.256 36.7664L114.516 34.9501Z" stroke="white" stroke-width="0.477986" stroke-miterlimit="10"/>
<path d="M113.483 34.0275L112.64 34.834L113.817 36.0632L114.659 35.2567L113.483 34.0275Z" stroke="white" stroke-width="0.477986" stroke-miterlimit="10"/>
<path d="M95.626 54.146L96.8114 55.3888" stroke="white" stroke-width="0.477986" stroke-miterlimit="10"/>
<path d="M98.8765 51.0298L100.062 52.2725" stroke="white" stroke-width="0.477986" stroke-miterlimit="10"/>
<path d="M92.6715 44.5009L89.4121 47.6211L95.6394 54.1262L98.8988 51.0059L92.6715 44.5009Z" stroke="white" stroke-width="0.477986" stroke-miterlimit="10"/>
<path d="M85.5881 51.2802L82.3286 54.4004L88.5559 60.9055L91.8153 57.7852L85.5881 51.2802Z" stroke="white" stroke-width="0.477986" stroke-miterlimit="10"/>
<path d="M82.3279 54.4015L78.6265 57.9448L81.8525 61.3148L85.5539 57.7714L82.3279 54.4015Z" stroke="white" stroke-width="0.477986" stroke-miterlimit="10"/>
<path d="M91.8213 57.7983L92.9876 59.0411" stroke="white" stroke-width="0.477986" stroke-miterlimit="10"/>
<path d="M64.3358 48.5444L59.5039 56.1436L63.3116 58.5646L68.1434 50.9655L64.3358 48.5444Z" stroke="white" stroke-width="0.477986" stroke-miterlimit="10"/>
<path d="M72.5956 53.7924L67.7637 61.3916L71.5713 63.8127L76.4032 56.2135L72.5956 53.7924Z" stroke="white" stroke-width="0.477986" stroke-miterlimit="10"/>
<path d="M68.1323 50.9531L72.5872 53.7828" stroke="white" stroke-width="0.477986" stroke-miterlimit="10"/>
<path d="M59.4905 56.1348L58.5728 57.5878" stroke="white" stroke-width="0.477986" stroke-miterlimit="10"/>
<path d="M81.4395 70.1109L100.062 52.2725" stroke="white" stroke-width="0.477986" stroke-miterlimit="10"/>
<path d="M78.7056 70.3785C79.5659 70.933 80.694 70.8183 81.4205 70.1108" stroke="white" stroke-width="0.477986" stroke-miterlimit="10"/>
<path d="M58.5728 57.5879L78.7055 70.3788" stroke="white" stroke-width="0.477986" stroke-miterlimit="10"/>
<path d="M67.7688 61.3926L66.8511 62.8265" stroke="white" stroke-width="0.477986" stroke-miterlimit="10"/>
<path d="M63.2952 58.5625L62.3774 59.9965" stroke="white" stroke-width="0.477986" stroke-miterlimit="10"/>
<path d="M88.6667 61.0293L81.6689 67.7211" stroke="white" stroke-width="0.477986" stroke-miterlimit="10"/>
<path d="M88.5518 60.9146L88.6659 61.0287" stroke="white" stroke-width="0.477986" stroke-miterlimit="10"/>
<path d="M85.4736 51.1831L89.2975 47.5312" stroke="white" stroke-width="0.477986" stroke-miterlimit="10"/>
<path d="M89.3925 47.6454L89.2974 47.5312" stroke="white" stroke-width="0.477986" stroke-miterlimit="10"/>
<path d="M85.5878 51.2973L85.4736 51.1831" stroke="white" stroke-width="0.477986" stroke-miterlimit="10"/>
<path d="M76.3916 56.2109L78.8389 57.7596" stroke="white" stroke-width="0.477986" stroke-miterlimit="10"/>
<path d="M81.6689 67.7207L82.7588 68.8487" stroke="white" stroke-width="0.477986" stroke-miterlimit="10"/>
<path d="M84.8428 64.6807L85.9135 65.8087" stroke="white" stroke-width="0.477986" stroke-miterlimit="10"/>
<path d="M27.1211 34.5871L25.0562 33.2678L25.8592 31.9868L36.1645 38.5448L33.9849 41.948L25.7636 36.7093L27.1211 34.5871Z" stroke="white" stroke-width="0.477986" stroke-miterlimit="10"/>
<path d="M27.9531 33.5123L27.04 34.9482L28.0242 35.574L28.9373 34.1381L27.9531 33.5123Z" stroke="white" stroke-width="0.477986" stroke-miterlimit="10"/>
<path d="M27.1206 34.5874L24.9219 33.1916L25.7249 31.9106L36.1641 38.5451L33.9845 41.9483L25.7631 36.7096L27.1206 34.5874Z" stroke="white" stroke-width="0.477986" stroke-miterlimit="10"/>
<path d="M27.9531 33.5123L27.04 34.9482L28.0242 35.574L28.9373 34.1381L27.9531 33.5123Z" stroke="white" stroke-width="0.477986" stroke-miterlimit="10"/>
<path d="M55.0347 55.332L58.5718 57.5881" stroke="white" stroke-width="0.477986" stroke-miterlimit="10"/>
<path d="M103.771 48.7163L100.062 52.2725" stroke="white" stroke-width="0.477986" stroke-miterlimit="10"/>
<path d="M128.129 29.7307L125.968 27.4746" stroke="white" stroke-width="0.477986" stroke-miterlimit="10"/>
<path d="M114.516 34.9501L116.275 33.2485L115.242 32.1587L106.428 40.5904L109.22 43.5156L116.256 36.7665L114.516 34.9501Z" stroke="white" stroke-width="0.477986" stroke-miterlimit="10"/>
<path d="M113.483 34.0275L112.64 34.834L113.817 36.0632L114.659 35.2567L113.483 34.0275Z" stroke="white" stroke-width="0.477986" stroke-miterlimit="10"/>
<path d="M114.516 34.9501L116.389 33.1529L115.338 32.0439L106.428 40.5903L109.22 43.5156L116.256 36.7664L114.516 34.9501Z" stroke="white" stroke-width="0.477986" stroke-miterlimit="10"/>
<path d="M113.483 34.0275L112.64 34.834L113.817 36.0632L114.659 35.2567L113.483 34.0275Z" stroke="white" stroke-width="0.477986" stroke-miterlimit="10"/>
<path d="M43.6599 51.7754L57.5788 60.6277L48.4779 74.9099L34.5781 66.0767L35.4194 64.7575L41.1552 55.7522L43.6599 51.7754Z" stroke="white" stroke-width="0.477986" stroke-miterlimit="10"/>
<path d="M40.2555 49.6149L26.3557 40.7817L17.2739 55.0639L31.1737 63.9162L31.9959 62.597L37.7317 53.5726L40.2555 49.6149Z" stroke="white" stroke-width="0.477986" stroke-miterlimit="10"/>
<path d="M32.3983 20.8594L50.2176 32.1972L41.1359 46.4985L33.9852 41.9481L36.1648 38.5448L25.4771 31.7383L32.3983 20.8594Z" stroke="white" stroke-width="0.477986" stroke-miterlimit="10"/>
<path d="M11.3666 31.2412L26.3563 40.7818L17.2745 55.064L9.14878 49.9018L1.00391 44.7395L7.27508 34.8548L8.55608 35.6769L11.3666 31.2412Z" stroke="white" stroke-width="0.477986" stroke-miterlimit="10"/>
<path d="M55.0356 55.3313L41.1357 46.4981L50.2366 32.1968L64.1364 41.03L63.2952 42.3492L57.5593 51.3544L55.0356 55.3313Z" stroke="white" stroke-width="0.477986" stroke-miterlimit="10"/>
<path d="M131.188 22.4843L118.359 34.759L106.658 22.5225L113.617 15.8498L120.577 9.19629L128.664 17.6471L127.574 18.6986L131.188 22.4843Z" stroke="white" stroke-width="0.477986" stroke-miterlimit="10"/>
<path d="M94.4978 61.9087L80.9995 74.8334L92.7197 87.0699L100.348 79.7471L107.308 73.0936L99.2203 64.6428L98.1305 65.6943L94.4978 61.9087Z" stroke="white" stroke-width="0.477986" stroke-miterlimit="10"/>
<path d="M94.4978 61.9087L80.9995 74.8334L92.7197 87.0699L100.348 79.7471L107.308 73.0936L99.2203 64.6428L98.1305 65.6943L94.4978 61.9087Z" stroke="white" stroke-width="0.477986" stroke-miterlimit="10"/>
<path d="M99.603 57.0141L113.101 44.0894L124.822 56.3258L117.193 63.6294L110.233 70.3021L102.146 61.8513L103.236 60.7997L99.603 57.0141Z" stroke="white" stroke-width="0.477986" stroke-miterlimit="10"/>
<path d="M99.603 57.0141L113.101 44.0894L124.822 56.3258L117.193 63.6294L110.233 70.3021L102.146 61.8513L103.236 60.7997L99.603 57.0141Z" stroke="white" stroke-width="0.477986" stroke-miterlimit="10"/>
<path d="M57.5784 60.6274L71.4782 69.4606L68.3235 74.4125L62.3774 83.7428L58.4388 81.2573L48.4775 74.9097L57.5784 60.6274Z" stroke="white" stroke-width="0.477986" stroke-miterlimit="10"/>
<path d="M106.658 22.5225L91.3813 37.1297L103.102 49.3661L109.22 43.5156L106.428 40.5903L115.567 31.8336L106.658 22.5225Z" stroke="white" stroke-width="0.477986" stroke-miterlimit="10"/>
<path d="M130.194 27.7422L113.102 44.0893L124.822 56.3257L136.045 45.5806L143.004 38.9271L134.917 30.4763L133.827 31.5278L130.194 27.7422Z" stroke="white" stroke-width="0.477986" stroke-miterlimit="10"/>
<path d="M65.7998 85.9228L71.8989 89.804C78.2466 93.8382 86.5062 93.0161 91.9361 87.8156L92.72 87.0699L82.7014 76.5925L71.4783 69.4609L68.3236 74.4129L62.3774 83.7623" stroke="white" stroke-width="0.477986" stroke-miterlimit="10"/>
<path d="M40.2563 49.6152L43.6596 51.7757" stroke="white" stroke-width="0.477986" stroke-miterlimit="10"/>
<path d="M94.4976 61.9092L99.6024 57.0146" stroke="white" stroke-width="0.477986" stroke-miterlimit="10"/>
<path d="M65.7998 85.9224L74.8815 71.6211" stroke="white" stroke-width="0.477986" stroke-miterlimit="10"/>
<path d="M3.33643 22.4652L23.2971 35.1605L32.398 20.8592L19.282 12.5231L11.1563 7.36084L4.86598 17.2265L6.14698 18.0295L3.33643 22.4652Z" stroke="white" stroke-width="0.477986" stroke-miterlimit="10"/>
<g filter="url(#filter0_d_4197_24487)">
<path d="M71.3454 7.85848C71.3454 7.85848 71.4601 7.87759 71.4983 7.89671C71.5366 7.91583 71.5939 7.95407 71.6322 7.99231C71.6704 8.03055 71.7278 8.08791 71.766 8.14527L75.7237 13.1546C75.7237 13.0016 75.7046 12.8295 75.6855 12.6957C75.6855 12.5427 75.6855 12.4089 75.6855 12.2751V7.85848H77.3871V16.1945H76.3738C76.2208 16.1945 76.1061 16.1754 75.9914 16.1181C75.8958 16.0798 75.7811 15.9842 75.6855 15.8695L71.7469 10.8985C71.7469 11.0514 71.766 11.1853 71.7851 11.3191C71.7851 11.4529 71.7851 11.5868 71.7851 11.7015V16.1754H70.0835V7.83936H71.0968C71.0968 7.83936 71.2498 7.83936 71.3071 7.83936L71.3454 7.85848Z" fill="white"/>
</g>
<path d="M73.5432 21.6622C68.4575 21.624 64.2894 17.3221 64.3468 12.1599C64.4041 7.03589 68.5913 2.7149 74.0403 2.84873C79.107 2.98257 83.4088 7.2462 83.1603 12.7335C82.95 17.5325 78.8584 21.7961 73.5432 21.6431V21.6622ZM73.4859 4.30181C69.2605 4.32093 65.7616 8.08745 65.819 11.9878H66.7558V12.5423H65.7999C65.819 17.1309 70.0635 20.343 73.4859 20.1518V19.2532H74.0594V20.2283C76.3538 20.0945 78.2657 19.1958 79.757 17.5133C80.9998 16.0985 81.669 14.4542 81.7263 12.5232H80.7704V11.9496H81.6881C81.6499 7.43739 77.5965 4.18709 74.0212 4.30181V5.23866H73.4859V4.28269V4.30181Z" fill="white"/>
<path d="M80.0249 3.19294L86.277 0L83.1605 6.29029L80.0249 3.19294Z" fill="white"/>
<defs>
<filter id="filter0_d_4197_24487" x="69.6629" y="7.41873" width="8.75679" height="9.80806" filterUnits="userSpaceOnUse" color-interpolation-filters="sRGB">
<feFlood flood-opacity="0" result="BackgroundImageFix"/>
<feColorMatrix in="SourceAlpha" type="matrix" values="0 0 0 0 0 0 0 0 0 0 0 0 0 0 0 0 0 0 127 0" result="hardAlpha"/>
<feOffset dx="0.305911" dy="0.305911"/>
<feGaussianBlur stdDeviation="0.363269"/>
<feColorMatrix type="matrix" values="0 0 0 0 0.137255 0 0 0 0 0.121569 0 0 0 0 0.12549 0 0 0 1 0"/>
<feBlend mode="normal" in2="BackgroundImageFix" result="effect1_dropShadow_4197_24487"/>
<feBlend mode="normal" in="SourceGraphic" in2="effect1_dropShadow_4197_24487" result="shape"/>
</filter>
</defs>
</svg>
