<svg width="144" height="93" viewBox="0 0 144 93" fill="none" xmlns="http://www.w3.org/2000/svg">
<path fill-rule="evenodd" clip-rule="evenodd" d="M131.19 22.5033L127.557 18.7177L128.647 17.6661L120.56 9.21533L113.6 15.8689L106.641 22.5225L118.361 34.7589L131.19 22.4842M26.3582 40.8006L11.3686 31.2792L8.55803 35.6957L7.27703 34.8736L1.00586 44.7583L9.13162 49.9206L17.2574 55.0828L26.3391 40.7815L26.3582 40.8006Z" fill="#E1BA5F"/>
<path d="M71.4794 69.461L57.5796 60.6279M57.5796 60.6279L48.4979 74.9292L58.4591 81.2577L62.3977 83.7624L68.3439 74.413L71.4986 69.461M57.5796 60.6279L43.6798 51.7947L41.156 55.7524L35.4202 64.7768L34.579 66.096L48.4788 74.9292L57.5605 60.6279M37.7337 53.5728L40.2574 49.6151L26.3576 40.7819L17.2759 55.0832L31.1757 63.9164L32.017 62.5972L37.7528 53.5728M63.2963 42.3497L64.1376 41.0304L50.2378 32.1973L41.156 46.4986L55.0559 55.3318L57.5796 51.3741L63.3155 42.3497H63.2963Z" stroke="white" stroke-width="0.477986" stroke-miterlimit="10"/>
<path d="M95.6279 54.146L96.8133 55.3888" stroke="white" stroke-width="0.477986" stroke-miterlimit="10"/>
<path d="M98.8784 51.0298L100.064 52.2725" stroke="white" stroke-width="0.477986" stroke-miterlimit="10"/>
<path d="M92.6735 44.5009L89.4141 47.6211L95.6413 54.1262L98.9008 51.0059L92.6735 44.5009Z" stroke="white" stroke-width="0.477986" stroke-miterlimit="10"/>
<path d="M85.59 51.2802L82.3306 54.4004L88.5578 60.9055L91.8173 57.7852L85.59 51.2802Z" stroke="white" stroke-width="0.477986" stroke-miterlimit="10"/>
<path d="M82.3298 54.4015L78.6284 57.9448L81.8544 61.3148L85.5558 57.7714L82.3298 54.4015Z" stroke="white" stroke-width="0.477986" stroke-miterlimit="10"/>
<path d="M91.8232 57.7983L92.9895 59.0411" stroke="white" stroke-width="0.477986" stroke-miterlimit="10"/>
<path d="M64.3377 48.5444L59.5059 56.1436L63.3135 58.5646L68.1454 50.9655L64.3377 48.5444Z" stroke="white" stroke-width="0.477986" stroke-miterlimit="10"/>
<path d="M72.5975 53.7924L67.7656 61.3916L71.5733 63.8127L76.4052 56.2135L72.5975 53.7924Z" stroke="white" stroke-width="0.477986" stroke-miterlimit="10"/>
<path d="M68.1343 50.9531L72.5891 53.7828" stroke="white" stroke-width="0.477986" stroke-miterlimit="10"/>
<path d="M59.4924 56.1348L58.5747 57.5878" stroke="white" stroke-width="0.477986" stroke-miterlimit="10"/>
<path d="M81.4414 70.1109L100.064 52.2725" stroke="white" stroke-width="0.477986" stroke-miterlimit="10"/>
<path d="M78.7075 70.3785C79.5679 70.933 80.6959 70.8183 81.4225 70.1108" stroke="white" stroke-width="0.477986" stroke-miterlimit="10"/>
<path d="M58.5747 57.5879L78.7075 70.3788" stroke="white" stroke-width="0.477986" stroke-miterlimit="10"/>
<path d="M67.7708 61.3926L66.853 62.8265" stroke="white" stroke-width="0.477986" stroke-miterlimit="10"/>
<path d="M63.2971 58.5625L62.3794 59.9965" stroke="white" stroke-width="0.477986" stroke-miterlimit="10"/>
<path d="M88.6686 61.0293L81.6709 67.7211" stroke="white" stroke-width="0.477986" stroke-miterlimit="10"/>
<path d="M88.5537 60.9146L88.6679 61.0287" stroke="white" stroke-width="0.477986" stroke-miterlimit="10"/>
<path d="M85.4756 51.1831L89.2995 47.5312" stroke="white" stroke-width="0.477986" stroke-miterlimit="10"/>
<path d="M89.3945 47.6454L89.2993 47.5312" stroke="white" stroke-width="0.477986" stroke-miterlimit="10"/>
<path d="M85.5898 51.2973L85.4756 51.1831" stroke="white" stroke-width="0.477986" stroke-miterlimit="10"/>
<path d="M76.3936 56.2109L78.8408 57.7596" stroke="white" stroke-width="0.477986" stroke-miterlimit="10"/>
<path d="M81.6709 67.7207L82.7607 68.8487" stroke="white" stroke-width="0.477986" stroke-miterlimit="10"/>
<path d="M84.8447 64.6807L85.9154 65.8087" stroke="white" stroke-width="0.477986" stroke-miterlimit="10"/>
<path d="M27.123 34.5871L25.0581 33.2678L25.8611 31.9868L36.1665 38.5448L33.9869 41.948L25.7655 36.7093L27.123 34.5871Z" stroke="white" stroke-width="0.477986" stroke-miterlimit="10"/>
<path d="M27.955 33.5123L27.042 34.9482L28.0262 35.574L28.9392 34.1381L27.955 33.5123Z" stroke="white" stroke-width="0.477986" stroke-miterlimit="10"/>
<path d="M27.1226 34.5874L24.9238 33.1916L25.7268 31.9106L36.166 38.5451L33.9864 41.9483L25.7651 36.7096L27.1226 34.5874Z" stroke="white" stroke-width="0.477986" stroke-miterlimit="10"/>
<path d="M27.955 33.5123L27.042 34.9482L28.0262 35.574L28.9392 34.1381L27.955 33.5123Z" stroke="white" stroke-width="0.477986" stroke-miterlimit="10"/>
<path d="M55.0366 55.332L58.5737 57.5881" stroke="white" stroke-width="0.477986" stroke-miterlimit="10"/>
<path d="M103.773 48.7163L100.063 52.2725" stroke="white" stroke-width="0.477986" stroke-miterlimit="10"/>
<path d="M128.131 29.7307L125.97 27.4746" stroke="white" stroke-width="0.477986" stroke-miterlimit="10"/>
<path d="M14.4281 29.5015L12.7456 32.1208" stroke="white" stroke-width="0.477986" stroke-miterlimit="10"/>
<path d="M114.518 34.9501L116.277 33.2485L115.244 32.1587L106.43 40.5904L109.222 43.5156L116.258 36.7665L114.518 34.9501Z" stroke="white" stroke-width="0.477986" stroke-miterlimit="10"/>
<path d="M113.485 34.0275L112.642 34.834L113.819 36.0632L114.661 35.2567L113.485 34.0275Z" stroke="white" stroke-width="0.477986" stroke-miterlimit="10"/>
<path d="M114.518 34.9501L116.391 33.1529L115.34 32.0439L106.43 40.5903L109.222 43.5156L116.258 36.7664L114.518 34.9501Z" stroke="white" stroke-width="0.477986" stroke-miterlimit="10"/>
<path d="M113.485 34.0275L112.642 34.834L113.819 36.0632L114.661 35.2567L113.485 34.0275Z" stroke="white" stroke-width="0.477986" stroke-miterlimit="10"/>
<path d="M95.6279 54.146L96.8133 55.3888" stroke="white" stroke-width="0.477986" stroke-miterlimit="10"/>
<path d="M98.8784 51.0298L100.064 52.2725" stroke="white" stroke-width="0.477986" stroke-miterlimit="10"/>
<path d="M92.6735 44.5009L89.4141 47.6211L95.6413 54.1262L98.9008 51.0059L92.6735 44.5009Z" stroke="white" stroke-width="0.477986" stroke-miterlimit="10"/>
<path d="M85.59 51.2802L82.3306 54.4004L88.5578 60.9055L91.8173 57.7852L85.59 51.2802Z" stroke="white" stroke-width="0.477986" stroke-miterlimit="10"/>
<path d="M82.3298 54.4015L78.6284 57.9448L81.8544 61.3148L85.5558 57.7714L82.3298 54.4015Z" stroke="white" stroke-width="0.477986" stroke-miterlimit="10"/>
<path d="M91.8232 57.7983L92.9895 59.0411" stroke="white" stroke-width="0.477986" stroke-miterlimit="10"/>
<path d="M64.3377 48.5444L59.5059 56.1436L63.3135 58.5646L68.1454 50.9655L64.3377 48.5444Z" stroke="white" stroke-width="0.477986" stroke-miterlimit="10"/>
<path d="M72.5975 53.7924L67.7656 61.3916L71.5733 63.8127L76.4052 56.2135L72.5975 53.7924Z" stroke="white" stroke-width="0.477986" stroke-miterlimit="10"/>
<path d="M68.1343 50.9531L72.5891 53.7828" stroke="white" stroke-width="0.477986" stroke-miterlimit="10"/>
<path d="M59.4924 56.1348L58.5747 57.5878" stroke="white" stroke-width="0.477986" stroke-miterlimit="10"/>
<path d="M81.4414 70.1109L100.064 52.2725" stroke="white" stroke-width="0.477986" stroke-miterlimit="10"/>
<path d="M78.7075 70.3785C79.5679 70.933 80.6959 70.8183 81.4225 70.1108" stroke="white" stroke-width="0.477986" stroke-miterlimit="10"/>
<path d="M58.5747 57.5879L78.7075 70.3788" stroke="white" stroke-width="0.477986" stroke-miterlimit="10"/>
<path d="M67.7708 61.3926L66.853 62.8265" stroke="white" stroke-width="0.477986" stroke-miterlimit="10"/>
<path d="M63.2971 58.5625L62.3794 59.9965" stroke="white" stroke-width="0.477986" stroke-miterlimit="10"/>
<path d="M88.6686 61.0293L81.6709 67.7211" stroke="white" stroke-width="0.477986" stroke-miterlimit="10"/>
<path d="M88.5537 60.9146L88.6679 61.0287" stroke="white" stroke-width="0.477986" stroke-miterlimit="10"/>
<path d="M85.4756 51.1831L89.2995 47.5312" stroke="white" stroke-width="0.477986" stroke-miterlimit="10"/>
<path d="M89.3945 47.6454L89.2993 47.5312" stroke="white" stroke-width="0.477986" stroke-miterlimit="10"/>
<path d="M85.5898 51.2973L85.4756 51.1831" stroke="white" stroke-width="0.477986" stroke-miterlimit="10"/>
<path d="M76.3936 56.2109L78.8408 57.7596" stroke="white" stroke-width="0.477986" stroke-miterlimit="10"/>
<path d="M81.6709 67.7207L82.7607 68.8487" stroke="white" stroke-width="0.477986" stroke-miterlimit="10"/>
<path d="M84.8447 64.6807L85.9154 65.8087" stroke="white" stroke-width="0.477986" stroke-miterlimit="10"/>
<path d="M27.123 34.5871L25.0581 33.2678L25.8611 31.9868L36.1665 38.5448L33.9869 41.948L25.7655 36.7093L27.123 34.5871Z" stroke="white" stroke-width="0.477986" stroke-miterlimit="10"/>
<path d="M27.955 33.5123L27.042 34.9482L28.0262 35.574L28.9392 34.1381L27.955 33.5123Z" stroke="white" stroke-width="0.477986" stroke-miterlimit="10"/>
<path d="M27.1226 34.5874L24.9238 33.1916L25.7268 31.9106L36.166 38.5451L33.9864 41.9483L25.7651 36.7096L27.1226 34.5874Z" stroke="white" stroke-width="0.477986" stroke-miterlimit="10"/>
<path d="M27.955 33.5123L27.042 34.9482L28.0262 35.574L28.9392 34.1381L27.955 33.5123Z" stroke="white" stroke-width="0.477986" stroke-miterlimit="10"/>
<path d="M55.0366 55.332L58.5737 57.5881" stroke="white" stroke-width="0.477986" stroke-miterlimit="10"/>
<path d="M103.773 48.7163L100.063 52.2725" stroke="white" stroke-width="0.477986" stroke-miterlimit="10"/>
<path d="M128.131 29.7307L125.97 27.4746" stroke="white" stroke-width="0.477986" stroke-miterlimit="10"/>
<path d="M114.518 34.9501L116.277 33.2485L115.244 32.1587L106.43 40.5904L109.222 43.5156L116.258 36.7665L114.518 34.9501Z" stroke="white" stroke-width="0.477986" stroke-miterlimit="10"/>
<path d="M113.485 34.0275L112.642 34.834L113.819 36.0632L114.661 35.2567L113.485 34.0275Z" stroke="white" stroke-width="0.477986" stroke-miterlimit="10"/>
<path d="M114.518 34.9501L116.391 33.1529L115.34 32.0439L106.43 40.5903L109.222 43.5156L116.258 36.7664L114.518 34.9501Z" stroke="white" stroke-width="0.477986" stroke-miterlimit="10"/>
<path d="M113.485 34.0275L112.642 34.834L113.819 36.0632L114.661 35.2567L113.485 34.0275Z" stroke="white" stroke-width="0.477986" stroke-miterlimit="10"/>
<path d="M43.6618 51.7754L57.5807 60.6277L48.4799 74.9099L34.5801 66.0767L35.4213 64.7575L41.1572 55.7522L43.6618 51.7754Z" stroke="white" stroke-width="0.477986" stroke-miterlimit="10"/>
<path d="M40.2574 49.6149L26.3576 40.7817L17.2759 55.0639L31.1757 63.9162L31.9978 62.597L37.7337 53.5726L40.2574 49.6149Z" stroke="white" stroke-width="0.477986" stroke-miterlimit="10"/>
<path d="M32.4002 20.8594L50.2195 32.1972L41.1378 46.4985L33.9871 41.9481L36.1668 38.5448L25.479 31.7383L32.4002 20.8594Z" stroke="white" stroke-width="0.477986" stroke-miterlimit="10"/>
<path d="M11.3686 31.2412L26.3582 40.7818L17.2765 55.064L9.15073 49.9018L1.00586 44.7395L7.27703 34.8548L8.55803 35.6769L11.3686 31.2412Z" stroke="white" stroke-width="0.477986" stroke-miterlimit="10"/>
<path d="M55.0375 55.3313L41.1377 46.4981L50.2385 32.1968L64.1384 41.03L63.2971 42.3492L57.5613 51.3544L55.0375 55.3313Z" stroke="white" stroke-width="0.477986" stroke-miterlimit="10"/>
<path d="M131.19 22.4843L118.361 34.759L106.66 22.5225L113.619 15.8498L120.579 9.19629L128.666 17.6471L127.576 18.6986L131.19 22.4843Z" stroke="white" stroke-width="0.477986" stroke-miterlimit="10"/>
<path d="M94.4998 61.9087L81.0015 74.8334L92.7217 87.0699L100.35 79.7471L107.31 73.0936L99.2223 64.6428L98.1325 65.6943L94.4998 61.9087Z" stroke="white" stroke-width="0.477986" stroke-miterlimit="10"/>
<path d="M94.4998 61.9087L81.0015 74.8334L92.7217 87.0699L100.35 79.7471L107.31 73.0936L99.2223 64.6428L98.1325 65.6943L94.4998 61.9087Z" stroke="white" stroke-width="0.477986" stroke-miterlimit="10"/>
<path d="M99.605 57.0141L113.103 44.0894L124.824 56.3258L117.195 63.6294L110.235 70.3021L102.148 61.8513L103.238 60.7997L99.605 57.0141Z" stroke="white" stroke-width="0.477986" stroke-miterlimit="10"/>
<path d="M99.605 57.0141L113.103 44.0894L124.824 56.3258L117.195 63.6294L110.235 70.3021L102.148 61.8513L103.238 60.7997L99.605 57.0141Z" stroke="white" stroke-width="0.477986" stroke-miterlimit="10"/>
<path d="M57.5803 60.6274L71.4802 69.4606L68.3255 74.4125L62.3793 83.7428L58.4407 81.2573L48.4795 74.9097L57.5803 60.6274Z" stroke="white" stroke-width="0.477986" stroke-miterlimit="10"/>
<path d="M106.66 22.5225L91.3833 37.1297L103.104 49.3661L109.222 43.5156L106.43 40.5903L115.569 31.8336L106.66 22.5225Z" stroke="white" stroke-width="0.477986" stroke-miterlimit="10"/>
<path d="M130.196 27.7422L113.104 44.0893L124.824 56.3257L136.047 45.5806L143.006 38.9271L134.919 30.4763L133.829 31.5278L130.196 27.7422Z" stroke="white" stroke-width="0.477986" stroke-miterlimit="10"/>
<path d="M65.8018 85.9228L71.9009 89.804C78.2485 93.8382 86.5081 93.0161 91.938 87.8156L92.7219 87.0699L82.7033 76.5925L71.4802 69.4609L68.3255 74.4129L62.3794 83.7623" stroke="white" stroke-width="0.477986" stroke-miterlimit="10"/>
<path d="M40.2583 49.6152L43.6616 51.7757" stroke="white" stroke-width="0.477986" stroke-miterlimit="10"/>
<path d="M94.4995 61.9092L99.6044 57.0146" stroke="white" stroke-width="0.477986" stroke-miterlimit="10"/>
<path d="M65.8018 85.9224L74.8835 71.6211" stroke="white" stroke-width="0.477986" stroke-miterlimit="10"/>
<path d="M3.33838 22.4652L23.2991 35.1605L32.3999 20.8592L19.284 12.5231L11.1582 7.36084L4.86793 17.2265L6.14893 18.0295L3.33838 22.4652Z" stroke="white" stroke-width="0.477986" stroke-miterlimit="10"/>
<g filter="url(#filter0_d_4197_44369)">
<path d="M71.3473 7.85848C71.3473 7.85848 71.4621 7.87759 71.5003 7.89671C71.5385 7.91583 71.5959 7.95407 71.6341 7.99231C71.6724 8.03055 71.7297 8.08791 71.768 8.14527L75.7257 13.1546C75.7257 13.0016 75.7066 12.8295 75.6874 12.6957C75.6874 12.5427 75.6874 12.4089 75.6874 12.2751V7.85848H77.3891V16.1945H76.3757C76.2228 16.1945 76.1081 16.1754 75.9934 16.1181C75.8786 16.0607 75.783 15.9842 75.6874 15.8695L71.7488 10.8985C71.7488 11.0514 71.768 11.1853 71.7871 11.3191C71.7871 11.4529 71.7871 11.5868 71.7871 11.7015V16.1754H70.0854V7.83936H71.0988C71.0988 7.83936 71.2517 7.83936 71.3091 7.83936L71.3473 7.85848Z" fill="white"/>
</g>
<path d="M73.5452 21.6622C68.4594 21.624 64.2914 17.3221 64.3487 12.1599C64.4061 7.03589 68.5932 2.7149 74.0423 2.84873C79.1089 2.98257 83.4108 7.2462 83.1622 12.7335C82.9519 17.5325 78.8604 21.7961 73.5452 21.6431V21.6622ZM73.4878 4.30181C69.2624 4.32093 65.7636 8.08745 65.8209 11.9878H66.7578V12.5423H65.8018C65.8209 17.1309 70.0654 20.343 73.4878 20.1518V19.2532H74.0614V20.2283C76.3557 20.0945 78.2677 19.1958 79.759 17.5133C81.0018 16.0985 81.6709 14.4542 81.7283 12.5232H80.7723V11.9496H81.6901C81.6518 7.43739 77.5985 4.18709 74.0232 4.30181V5.23866H73.4878V4.28269V4.30181Z" fill="white"/>
<path d="M80.0269 3.19294L86.2789 0L83.1624 6.29029L80.0269 3.19294Z" fill="white"/>
<defs>
<filter id="filter0_d_4197_44369" x="69.6648" y="7.41873" width="8.75679" height="9.80806" filterUnits="userSpaceOnUse" color-interpolation-filters="sRGB">
<feFlood flood-opacity="0" result="BackgroundImageFix"/>
<feColorMatrix in="SourceAlpha" type="matrix" values="0 0 0 0 0 0 0 0 0 0 0 0 0 0 0 0 0 0 127 0" result="hardAlpha"/>
<feOffset dx="0.305911" dy="0.305911"/>
<feGaussianBlur stdDeviation="0.363269"/>
<feColorMatrix type="matrix" values="0 0 0 0 0.137255 0 0 0 0 0.121569 0 0 0 0 0.12549 0 0 0 1 0"/>
<feBlend mode="normal" in2="BackgroundImageFix" result="effect1_dropShadow_4197_44369"/>
<feBlend mode="normal" in="SourceGraphic" in2="effect1_dropShadow_4197_44369" result="shape"/>
</filter>
</defs>
</svg>
