<svg width="144" height="93" viewBox="0 0 144 93" fill="none" xmlns="http://www.w3.org/2000/svg">
<path fill-rule="evenodd" clip-rule="evenodd" d="M125.015 56.3834L113.295 44.147L99.7966 57.0717L103.429 60.8574L102.34 61.9089L110.427 70.3597L117.387 63.7061L125.015 56.4025M99.4143 64.7004L98.3244 65.7519L94.6917 61.9663L81.1934 74.891L92.9136 87.1274L100.542 79.8238L107.502 73.1703L99.4143 64.7195V64.7004Z" fill="#E1BA5F"/>
<path d="M71.4807 69.461L57.5808 60.6279M57.5808 60.6279L48.499 74.9292L58.4603 81.2577L62.3989 83.7624L68.3451 74.413L71.4998 69.461M57.5808 60.6279L43.6809 51.7947L41.1571 55.7524L35.4213 64.7768L34.58 66.096L48.4799 74.9292L57.5617 60.6279M37.7347 53.5728L40.2585 49.6151L26.3586 40.7819L17.2769 55.0832L31.1767 63.9164L32.018 62.5972L37.7539 53.5728M63.2975 42.3497L64.1388 41.0304L50.2389 32.1973L41.1571 46.4986L55.057 55.3318L57.5808 51.3741L63.3167 42.3497H63.2975Z" stroke="white" stroke-width="0.477987" stroke-miterlimit="10"/>
<path d="M95.6294 54.146L96.8148 55.3888" stroke="white" stroke-width="0.477987" stroke-miterlimit="10"/>
<path d="M98.8789 51.0303L100.064 52.273" stroke="white" stroke-width="0.477987" stroke-miterlimit="10"/>
<path d="M92.674 44.5009L89.4146 47.6211L95.6418 54.1262L98.9013 51.0059L92.674 44.5009Z" stroke="white" stroke-width="0.477987" stroke-miterlimit="10"/>
<path d="M85.591 51.2806L82.3315 54.4009L88.5588 60.9059L91.8183 57.7857L85.591 51.2806Z" stroke="white" stroke-width="0.477987" stroke-miterlimit="10"/>
<path d="M82.3303 54.402L78.6289 57.9453L81.8549 61.3152L85.5563 57.7719L82.3303 54.402Z" stroke="white" stroke-width="0.477987" stroke-miterlimit="10"/>
<path d="M91.8247 57.7979L92.991 59.0406" stroke="white" stroke-width="0.477987" stroke-miterlimit="10"/>
<path d="M64.3387 48.5449L59.5068 56.144L63.3145 58.5651L68.1464 50.9659L64.3387 48.5449Z" stroke="white" stroke-width="0.477987" stroke-miterlimit="10"/>
<path d="M72.599 53.7924L67.7671 61.3916L71.5748 63.8127L76.4067 56.2135L72.599 53.7924Z" stroke="white" stroke-width="0.477987" stroke-miterlimit="10"/>
<path d="M68.1348 50.9536L72.5896 53.7833" stroke="white" stroke-width="0.477987" stroke-miterlimit="10"/>
<path d="M59.4929 56.1348L58.5752 57.5878" stroke="white" stroke-width="0.477987" stroke-miterlimit="10"/>
<path d="M81.4419 70.1109L100.064 52.2725" stroke="white" stroke-width="0.477987" stroke-miterlimit="10"/>
<path d="M78.7085 70.3785C79.5689 70.933 80.6969 70.8183 81.4235 70.1108" stroke="white" stroke-width="0.477987" stroke-miterlimit="10"/>
<path d="M58.5752 57.5879L78.7081 70.3788" stroke="white" stroke-width="0.477987" stroke-miterlimit="10"/>
<path d="M67.7713 61.3926L66.8535 62.8265" stroke="white" stroke-width="0.477987" stroke-miterlimit="10"/>
<path d="M63.2981 58.5625L62.3804 59.9965" stroke="white" stroke-width="0.477987" stroke-miterlimit="10"/>
<path d="M88.6691 61.0293L81.6714 67.7211" stroke="white" stroke-width="0.477987" stroke-miterlimit="10"/>
<path d="M88.5552 60.9146L88.6699 61.0293" stroke="white" stroke-width="0.477987" stroke-miterlimit="10"/>
<path d="M85.4771 51.1826L89.301 47.5308" stroke="white" stroke-width="0.477987" stroke-miterlimit="10"/>
<path d="M89.3964 47.6455L89.3008 47.5308" stroke="white" stroke-width="0.477987" stroke-miterlimit="10"/>
<path d="M85.5918 51.2973L85.4771 51.1826" stroke="white" stroke-width="0.477987" stroke-miterlimit="10"/>
<path d="M76.395 56.2109L78.8423 57.7596" stroke="white" stroke-width="0.477987" stroke-miterlimit="10"/>
<path d="M81.6714 67.7212L82.7612 68.8492" stroke="white" stroke-width="0.477987" stroke-miterlimit="10"/>
<path d="M84.8457 64.6807L85.9164 65.8087" stroke="white" stroke-width="0.477987" stroke-miterlimit="10"/>
<path d="M27.124 34.5871L25.0591 33.2678L25.8621 31.9868L36.1675 38.5448L33.9879 41.948L25.7665 36.7093L27.124 34.5871Z" stroke="white" stroke-width="0.477987" stroke-miterlimit="10"/>
<path d="M27.956 33.5118L27.043 34.9478L28.0272 35.5735L28.9402 34.1376L27.956 33.5118Z" stroke="white" stroke-width="0.477987" stroke-miterlimit="10"/>
<path d="M27.1231 34.5874L24.9243 33.1916L25.7273 31.9106L36.1666 38.5451L33.987 41.9483L25.7656 36.7096L27.1231 34.5874Z" stroke="white" stroke-width="0.477987" stroke-miterlimit="10"/>
<path d="M27.956 33.5118L27.043 34.9478L28.0272 35.5735L28.9402 34.1376L27.956 33.5118Z" stroke="white" stroke-width="0.477987" stroke-miterlimit="10"/>
<path d="M55.0376 55.332L58.5747 57.5881" stroke="white" stroke-width="0.477987" stroke-miterlimit="10"/>
<path d="M103.774 48.7163L100.065 52.2725" stroke="white" stroke-width="0.477987" stroke-miterlimit="10"/>
<path d="M128.132 29.7307L125.971 27.4746" stroke="white" stroke-width="0.477987" stroke-miterlimit="10"/>
<path d="M14.4286 29.5015L12.7461 32.1208" stroke="white" stroke-width="0.477987" stroke-miterlimit="10"/>
<path d="M114.519 34.9501L116.278 33.2485L115.246 32.1587L106.432 40.5904L109.223 43.5156L116.259 36.7665L114.519 34.9501Z" stroke="white" stroke-width="0.477987" stroke-miterlimit="10"/>
<path d="M113.486 34.028L112.644 34.8345L113.82 36.0637L114.663 35.2572L113.486 34.028Z" stroke="white" stroke-width="0.477987" stroke-miterlimit="10"/>
<path d="M114.519 34.9501L116.393 33.1529L115.341 32.0439L106.432 40.5903L109.223 43.5156L116.259 36.7664L114.519 34.9501Z" stroke="white" stroke-width="0.477987" stroke-miterlimit="10"/>
<path d="M113.486 34.028L112.644 34.8345L113.82 36.0637L114.663 35.2572L113.486 34.028Z" stroke="white" stroke-width="0.477987" stroke-miterlimit="10"/>
<path d="M95.6294 54.146L96.8148 55.3888" stroke="white" stroke-width="0.477987" stroke-miterlimit="10"/>
<path d="M98.8789 51.0303L100.064 52.273" stroke="white" stroke-width="0.477987" stroke-miterlimit="10"/>
<path d="M92.674 44.5009L89.4146 47.6211L95.6418 54.1262L98.9013 51.0059L92.674 44.5009Z" stroke="white" stroke-width="0.477987" stroke-miterlimit="10"/>
<path d="M85.591 51.2806L82.3315 54.4009L88.5588 60.9059L91.8183 57.7857L85.591 51.2806Z" stroke="white" stroke-width="0.477987" stroke-miterlimit="10"/>
<path d="M82.3303 54.402L78.6289 57.9453L81.8549 61.3152L85.5563 57.7719L82.3303 54.402Z" stroke="white" stroke-width="0.477987" stroke-miterlimit="10"/>
<path d="M91.8247 57.7979L92.991 59.0406" stroke="white" stroke-width="0.477987" stroke-miterlimit="10"/>
<path d="M64.3387 48.5449L59.5068 56.144L63.3145 58.5651L68.1464 50.9659L64.3387 48.5449Z" stroke="white" stroke-width="0.477987" stroke-miterlimit="10"/>
<path d="M72.599 53.7924L67.7671 61.3916L71.5748 63.8127L76.4067 56.2135L72.599 53.7924Z" stroke="white" stroke-width="0.477987" stroke-miterlimit="10"/>
<path d="M68.1348 50.9536L72.5896 53.7833" stroke="white" stroke-width="0.477987" stroke-miterlimit="10"/>
<path d="M59.4929 56.1348L58.5752 57.5878" stroke="white" stroke-width="0.477987" stroke-miterlimit="10"/>
<path d="M81.4419 70.1109L100.064 52.2725" stroke="white" stroke-width="0.477987" stroke-miterlimit="10"/>
<path d="M78.7085 70.3785C79.5689 70.933 80.6969 70.8183 81.4235 70.1108" stroke="white" stroke-width="0.477987" stroke-miterlimit="10"/>
<path d="M58.5752 57.5879L78.7081 70.3788" stroke="white" stroke-width="0.477987" stroke-miterlimit="10"/>
<path d="M67.7713 61.3926L66.8535 62.8265" stroke="white" stroke-width="0.477987" stroke-miterlimit="10"/>
<path d="M63.2981 58.5625L62.3804 59.9965" stroke="white" stroke-width="0.477987" stroke-miterlimit="10"/>
<path d="M88.6691 61.0293L81.6714 67.7211" stroke="white" stroke-width="0.477987" stroke-miterlimit="10"/>
<path d="M88.5552 60.9146L88.6699 61.0293" stroke="white" stroke-width="0.477987" stroke-miterlimit="10"/>
<path d="M85.4771 51.1826L89.301 47.5308" stroke="white" stroke-width="0.477987" stroke-miterlimit="10"/>
<path d="M89.3964 47.6455L89.3008 47.5308" stroke="white" stroke-width="0.477987" stroke-miterlimit="10"/>
<path d="M85.5918 51.2973L85.4771 51.1826" stroke="white" stroke-width="0.477987" stroke-miterlimit="10"/>
<path d="M76.395 56.2109L78.8423 57.7596" stroke="white" stroke-width="0.477987" stroke-miterlimit="10"/>
<path d="M81.6714 67.7212L82.7612 68.8492" stroke="white" stroke-width="0.477987" stroke-miterlimit="10"/>
<path d="M84.8457 64.6807L85.9164 65.8087" stroke="white" stroke-width="0.477987" stroke-miterlimit="10"/>
<path d="M27.124 34.5871L25.0591 33.2678L25.8621 31.9868L36.1675 38.5448L33.9879 41.948L25.7665 36.7093L27.124 34.5871Z" stroke="white" stroke-width="0.477987" stroke-miterlimit="10"/>
<path d="M27.956 33.5118L27.043 34.9478L28.0272 35.5735L28.9402 34.1376L27.956 33.5118Z" stroke="white" stroke-width="0.477987" stroke-miterlimit="10"/>
<path d="M27.1231 34.5874L24.9243 33.1916L25.7273 31.9106L36.1666 38.5451L33.987 41.9483L25.7656 36.7096L27.1231 34.5874Z" stroke="white" stroke-width="0.477987" stroke-miterlimit="10"/>
<path d="M27.956 33.5118L27.043 34.9478L28.0272 35.5735L28.9402 34.1376L27.956 33.5118Z" stroke="white" stroke-width="0.477987" stroke-miterlimit="10"/>
<path d="M55.0376 55.332L58.5747 57.5881" stroke="white" stroke-width="0.477987" stroke-miterlimit="10"/>
<path d="M103.774 48.7163L100.065 52.2725" stroke="white" stroke-width="0.477987" stroke-miterlimit="10"/>
<path d="M128.132 29.7307L125.971 27.4746" stroke="white" stroke-width="0.477987" stroke-miterlimit="10"/>
<path d="M114.519 34.9501L116.278 33.2485L115.246 32.1587L106.432 40.5904L109.223 43.5156L116.259 36.7665L114.519 34.9501Z" stroke="white" stroke-width="0.477987" stroke-miterlimit="10"/>
<path d="M113.486 34.028L112.644 34.8345L113.82 36.0637L114.663 35.2572L113.486 34.028Z" stroke="white" stroke-width="0.477987" stroke-miterlimit="10"/>
<path d="M114.519 34.9501L116.393 33.1529L115.341 32.0439L106.432 40.5903L109.223 43.5156L116.259 36.7664L114.519 34.9501Z" stroke="white" stroke-width="0.477987" stroke-miterlimit="10"/>
<path d="M113.486 34.028L112.644 34.8345L113.82 36.0637L114.663 35.2572L113.486 34.028Z" stroke="white" stroke-width="0.477987" stroke-miterlimit="10"/>
<path d="M43.6623 51.7749L57.5813 60.6272L48.4805 74.9094L34.5806 66.0762L35.4218 64.757L41.1577 55.7517L43.6623 51.7749Z" stroke="white" stroke-width="0.477987" stroke-miterlimit="10"/>
<path d="M40.2585 49.6149L26.3586 40.7817L17.2769 55.0639L31.1767 63.9162L31.9989 62.597L37.7347 53.5726L40.2585 49.6149Z" stroke="white" stroke-width="0.477987" stroke-miterlimit="10"/>
<path d="M32.4003 20.8594L50.2197 32.1972L41.1379 46.4985L33.9872 41.9481L36.1668 38.5448L25.479 31.7383L32.4003 20.8594Z" stroke="white" stroke-width="0.477987" stroke-miterlimit="10"/>
<path d="M11.3696 31.2412L26.3593 40.7818L17.2775 55.064L9.15175 49.9018L1.00684 44.7395L7.27804 34.8548L8.55905 35.6769L11.3696 31.2412Z" stroke="white" stroke-width="0.477987" stroke-miterlimit="10"/>
<path d="M55.0386 55.3313L41.1387 46.4981L50.2396 32.1968L64.1394 41.03L63.2982 42.3492L57.5623 51.3544L55.0386 55.3313Z" stroke="white" stroke-width="0.477987" stroke-miterlimit="10"/>
<path d="M131.191 22.4848L118.361 34.7595L106.66 22.523L113.62 15.8503L120.579 9.19678L128.667 17.6476L127.577 18.6991L131.191 22.4848Z" stroke="white" stroke-width="0.477987" stroke-miterlimit="10"/>
<path d="M94.5003 61.9092L81.002 74.8339L92.7222 87.0703L100.351 79.7476L107.31 73.094L99.2229 64.6433L98.133 65.6948L94.5003 61.9092Z" stroke="white" stroke-width="0.477987" stroke-miterlimit="10"/>
<path d="M94.5003 61.9092L81.002 74.8339L92.7222 87.0703L100.351 79.7476L107.31 73.094L99.2229 64.6433L98.133 65.6948L94.5003 61.9092Z" stroke="white" stroke-width="0.477987" stroke-miterlimit="10"/>
<path d="M99.6055 57.0141L113.104 44.0894L124.824 56.3258L117.195 63.6294L110.236 70.3021L102.148 61.8513L103.238 60.7997L99.6055 57.0141Z" stroke="white" stroke-width="0.477987" stroke-miterlimit="10"/>
<path d="M99.6055 57.0141L113.104 44.0894L124.824 56.3258L117.195 63.6294L110.236 70.3021L102.148 61.8513L103.238 60.7997L99.6055 57.0141Z" stroke="white" stroke-width="0.477987" stroke-miterlimit="10"/>
<path d="M57.5814 60.6279L71.4812 69.4611L68.3265 74.413L62.3804 83.7433L58.4417 81.2578L48.4805 74.9101L57.5814 60.6279Z" stroke="white" stroke-width="0.477987" stroke-miterlimit="10"/>
<path d="M106.661 22.5225L91.3848 37.1297L103.105 49.3661L109.223 43.5156L106.432 40.5903L115.571 31.8336L106.661 22.5225Z" stroke="white" stroke-width="0.477987" stroke-miterlimit="10"/>
<path d="M130.196 27.7422L113.104 44.0893L124.824 56.3257L136.047 45.5806L143.006 38.9271L134.919 30.4763L133.829 31.5278L130.196 27.7422Z" stroke="white" stroke-width="0.477987" stroke-miterlimit="10"/>
<path d="M65.8028 85.9228L71.9019 89.804C78.2496 93.8382 86.5092 93.0161 91.9391 87.8156L92.723 87.0699L82.7044 76.5925L71.4813 69.4609L68.3265 74.4129L62.3804 83.7623" stroke="white" stroke-width="0.477987" stroke-miterlimit="10"/>
<path d="M40.2583 49.6152L43.6616 51.7757" stroke="white" stroke-width="0.477987" stroke-miterlimit="10"/>
<path d="M94.5005 61.9087L99.6054 57.0142" stroke="white" stroke-width="0.477987" stroke-miterlimit="10"/>
<path d="M65.8027 85.9229L74.8845 71.6216" stroke="white" stroke-width="0.477987" stroke-miterlimit="10"/>
<path d="M3.33936 22.4652L23.3001 35.1605L32.401 20.8592L19.285 12.5231L11.1592 7.36084L4.86892 17.2265L6.14992 18.0295L3.33936 22.4652Z" stroke="white" stroke-width="0.477987" stroke-miterlimit="10"/>
<g filter="url(#filter0_d_4200_56633)">
<path d="M71.3473 7.85799C71.3473 7.85799 71.4621 7.87711 71.5003 7.89623C71.5385 7.91535 71.5959 7.95358 71.6341 7.99182C71.6724 8.03006 71.7297 8.08742 71.768 8.14478L75.7257 13.1541C75.7257 13.0011 75.7066 12.829 75.6875 12.6952C75.6875 12.5422 75.6875 12.4084 75.6875 12.2746V7.85799H77.3891V16.1941H76.3758C76.2228 16.1941 76.1081 16.1749 75.9934 16.1176C75.8787 16.0602 75.7831 15.9837 75.6875 15.869L71.7488 10.898C71.7488 11.0509 71.768 11.1848 71.7871 11.3186C71.7871 11.4524 71.7871 11.5863 71.7871 11.701V16.1749H70.0854V7.83887H71.0988C71.0988 7.83887 71.2517 7.83887 71.3091 7.83887L71.3473 7.85799Z" fill="white"/>
</g>
<path d="M73.5462 21.6622C68.4604 21.624 64.2923 17.3221 64.3497 12.1599C64.4071 7.03589 68.5942 2.7149 74.0433 2.84873C79.11 2.98257 83.4119 7.2462 83.1633 12.7335C82.953 17.5325 78.8614 21.7961 73.5462 21.6431V21.6622ZM73.4888 4.30181C69.2634 4.32093 65.7646 8.08745 65.8219 11.9878H66.7588V12.5423H65.8028C65.8219 17.1309 70.0664 20.343 73.4888 20.1518V19.2532H74.0624V20.2283C76.3568 20.0945 78.2687 19.1958 79.76 17.5133C81.0028 16.0985 81.672 14.4542 81.7293 12.5232H80.7734V11.9496H81.6911C81.6529 7.43739 77.5995 4.18709 74.0242 4.30181V5.23866H73.4888V4.28269V4.30181Z" fill="white"/>
<path d="M80.0278 3.19294L86.2799 0L83.1634 6.29029L80.0278 3.19294Z" fill="white"/>
<defs>
<filter id="filter0_d_4200_56633" x="69.6648" y="7.41824" width="8.75679" height="9.80806" filterUnits="userSpaceOnUse" color-interpolation-filters="sRGB">
<feFlood flood-opacity="0" result="BackgroundImageFix"/>
<feColorMatrix in="SourceAlpha" type="matrix" values="0 0 0 0 0 0 0 0 0 0 0 0 0 0 0 0 0 0 127 0" result="hardAlpha"/>
<feOffset dx="0.305912" dy="0.305912"/>
<feGaussianBlur stdDeviation="0.36327"/>
<feColorMatrix type="matrix" values="0 0 0 0 0.137255 0 0 0 0 0.121569 0 0 0 0 0.12549 0 0 0 1 0"/>
<feBlend mode="normal" in2="BackgroundImageFix" result="effect1_dropShadow_4200_56633"/>
<feBlend mode="normal" in="SourceGraphic" in2="effect1_dropShadow_4200_56633" result="shape"/>
</filter>
</defs>
</svg>
