<svg width="144" height="93" viewBox="0 0 144 93" fill="none" xmlns="http://www.w3.org/2000/svg">
<path fill-rule="evenodd" clip-rule="evenodd" d="M19.2845 12.5807L11.1588 7.41846L4.86843 17.2841L6.14944 18.1062L3.33887 22.5228L23.2996 35.2181L32.4005 20.9359L19.2845 12.5807Z" fill="#E1BA5F"/>
<path fill-rule="evenodd" clip-rule="evenodd" d="M143.006 38.9847L134.919 30.553L133.829 31.5855L130.196 27.7998L113.104 44.166L124.824 56.4025L136.047 45.6574L143.006 38.9847Z" fill="#E1BA5F"/>
<path d="M71.4812 69.461L57.5813 60.6279M57.5813 60.6279L48.4995 74.9292L58.4608 81.2577L62.3994 83.7624L68.3456 74.413L71.5003 69.461M57.5813 60.6279L43.6814 51.7947L41.1576 55.7524L35.4218 64.7768L34.5805 66.096L48.4804 74.9292L57.5622 60.6279M37.7352 53.5728L40.259 49.6151L26.3591 40.7819L17.2773 55.0832L31.1772 63.9164L32.0185 62.5972L37.7543 53.5728M63.298 42.3497L64.1393 41.0304L50.2394 32.1973L41.1576 46.4986L55.0575 55.3318L57.5813 51.3741L63.3171 42.3497H63.298Z" stroke="white" stroke-width="0.477987" stroke-miterlimit="10"/>
<path d="M95.6299 54.1465L96.8153 55.3892" stroke="white" stroke-width="0.477987" stroke-miterlimit="10"/>
<path d="M98.8799 51.0303L100.065 52.273" stroke="white" stroke-width="0.477987" stroke-miterlimit="10"/>
<path d="M92.6755 44.5013L89.416 47.6216L95.6433 54.1267L98.9027 51.0064L92.6755 44.5013Z" stroke="white" stroke-width="0.477987" stroke-miterlimit="10"/>
<path d="M85.5915 51.2806L82.332 54.4009L88.5593 60.906L91.8188 57.7857L85.5915 51.2806Z" stroke="white" stroke-width="0.477987" stroke-miterlimit="10"/>
<path d="M82.3313 54.402L78.6299 57.9453L81.8559 61.3152L85.5573 57.7719L82.3313 54.402Z" stroke="white" stroke-width="0.477987" stroke-miterlimit="10"/>
<path d="M91.8252 57.7979L92.9915 59.0406" stroke="white" stroke-width="0.477987" stroke-miterlimit="10"/>
<path d="M64.3387 48.5454L59.5068 56.1445L63.3145 58.5656L68.1464 50.9664L64.3387 48.5454Z" stroke="white" stroke-width="0.477987" stroke-miterlimit="10"/>
<path d="M72.5985 53.7929L67.7666 61.3921L71.5743 63.8132L76.4062 56.214L72.5985 53.7929Z" stroke="white" stroke-width="0.477987" stroke-miterlimit="10"/>
<path d="M68.1357 50.9531L72.5906 53.7828" stroke="white" stroke-width="0.477987" stroke-miterlimit="10"/>
<path d="M59.4939 56.1348L58.5762 57.5878" stroke="white" stroke-width="0.477987" stroke-miterlimit="10"/>
<path d="M81.4434 70.1109L100.066 52.2725" stroke="white" stroke-width="0.477987" stroke-miterlimit="10"/>
<path d="M78.708 70.379C79.5684 70.9335 80.6964 70.8187 81.423 70.1113" stroke="white" stroke-width="0.477987" stroke-miterlimit="10"/>
<path d="M58.5762 57.5879L78.709 70.3788" stroke="white" stroke-width="0.477987" stroke-miterlimit="10"/>
<path d="M67.7732 61.3926L66.8555 62.8265" stroke="white" stroke-width="0.477987" stroke-miterlimit="10"/>
<path d="M63.2976 58.5635L62.3799 59.9974" stroke="white" stroke-width="0.477987" stroke-miterlimit="10"/>
<path d="M88.6696 61.0293L81.6719 67.7211" stroke="white" stroke-width="0.477987" stroke-miterlimit="10"/>
<path d="M88.5557 60.9146L88.6704 61.0293" stroke="white" stroke-width="0.477987" stroke-miterlimit="10"/>
<path d="M85.4756 51.1831L89.2995 47.5312" stroke="white" stroke-width="0.477987" stroke-miterlimit="10"/>
<path d="M89.3964 47.646L89.3008 47.5312" stroke="white" stroke-width="0.477987" stroke-miterlimit="10"/>
<path d="M85.5903 51.2973L85.4756 51.1826" stroke="white" stroke-width="0.477987" stroke-miterlimit="10"/>
<path d="M76.3945 56.2114L78.8418 57.7601" stroke="white" stroke-width="0.477987" stroke-miterlimit="10"/>
<path d="M81.6719 67.7207L82.7617 68.8488" stroke="white" stroke-width="0.477987" stroke-miterlimit="10"/>
<path d="M84.8457 64.6816L85.9164 65.8097" stroke="white" stroke-width="0.477987" stroke-miterlimit="10"/>
<path d="M27.1245 34.5871L25.0596 33.2678L25.8626 31.9868L36.168 38.5448L33.9884 41.948L25.767 36.7093L27.1245 34.5871Z" stroke="white" stroke-width="0.477987" stroke-miterlimit="10"/>
<path d="M27.955 33.5128L27.042 34.9487L28.0262 35.5745L28.9392 34.1386L27.955 33.5128Z" stroke="white" stroke-width="0.477987" stroke-miterlimit="10"/>
<path d="M27.1235 34.5879L24.9248 33.1921L25.7278 31.9111L36.1671 38.5456L33.9875 41.9488L25.7661 36.7101L27.1235 34.5879Z" stroke="white" stroke-width="0.477987" stroke-miterlimit="10"/>
<path d="M27.955 33.5128L27.042 34.9487L28.0262 35.5745L28.9392 34.1386L27.955 33.5128Z" stroke="white" stroke-width="0.477987" stroke-miterlimit="10"/>
<path d="M55.0381 55.332L58.5752 57.5881" stroke="white" stroke-width="0.477987" stroke-miterlimit="10"/>
<path d="M103.774 48.7168L100.064 52.273" stroke="white" stroke-width="0.477987" stroke-miterlimit="10"/>
<path d="M128.133 29.7307L125.973 27.4746" stroke="white" stroke-width="0.477987" stroke-miterlimit="10"/>
<path d="M14.4286 29.502L12.7461 32.1213" stroke="white" stroke-width="0.477987" stroke-miterlimit="10"/>
<path d="M114.519 34.9506L116.278 33.249L115.246 32.1592L106.432 40.5909L109.223 43.5161L116.259 36.767L114.519 34.9506Z" stroke="white" stroke-width="0.477987" stroke-miterlimit="10"/>
<path d="M113.485 34.028L112.643 34.8345L113.819 36.0637L114.662 35.2572L113.485 34.028Z" stroke="white" stroke-width="0.477987" stroke-miterlimit="10"/>
<path d="M114.519 34.9506L116.393 33.1534L115.341 32.0444L106.432 40.5908L109.223 43.5161L116.259 36.7669L114.519 34.9506Z" stroke="white" stroke-width="0.477987" stroke-miterlimit="10"/>
<path d="M113.485 34.028L112.643 34.8345L113.819 36.0637L114.662 35.2572L113.485 34.028Z" stroke="white" stroke-width="0.477987" stroke-miterlimit="10"/>
<path d="M95.6299 54.1465L96.8153 55.3892" stroke="white" stroke-width="0.477987" stroke-miterlimit="10"/>
<path d="M98.8799 51.0303L100.065 52.273" stroke="white" stroke-width="0.477987" stroke-miterlimit="10"/>
<path d="M92.6755 44.5013L89.416 47.6216L95.6433 54.1267L98.9027 51.0064L92.6755 44.5013Z" stroke="white" stroke-width="0.477987" stroke-miterlimit="10"/>
<path d="M85.5915 51.2806L82.332 54.4009L88.5593 60.906L91.8188 57.7857L85.5915 51.2806Z" stroke="white" stroke-width="0.477987" stroke-miterlimit="10"/>
<path d="M82.3313 54.402L78.6299 57.9453L81.8559 61.3152L85.5573 57.7719L82.3313 54.402Z" stroke="white" stroke-width="0.477987" stroke-miterlimit="10"/>
<path d="M91.8252 57.7979L92.9915 59.0406" stroke="white" stroke-width="0.477987" stroke-miterlimit="10"/>
<path d="M64.3387 48.5454L59.5068 56.1445L63.3145 58.5656L68.1464 50.9664L64.3387 48.5454Z" stroke="white" stroke-width="0.477987" stroke-miterlimit="10"/>
<path d="M72.5985 53.7929L67.7666 61.3921L71.5743 63.8132L76.4062 56.214L72.5985 53.7929Z" stroke="white" stroke-width="0.477987" stroke-miterlimit="10"/>
<path d="M68.1357 50.9531L72.5906 53.7828" stroke="white" stroke-width="0.477987" stroke-miterlimit="10"/>
<path d="M59.4939 56.1348L58.5762 57.5878" stroke="white" stroke-width="0.477987" stroke-miterlimit="10"/>
<path d="M81.4434 70.1109L100.066 52.2725" stroke="white" stroke-width="0.477987" stroke-miterlimit="10"/>
<path d="M78.708 70.379C79.5684 70.9335 80.6964 70.8187 81.423 70.1113" stroke="white" stroke-width="0.477987" stroke-miterlimit="10"/>
<path d="M58.5762 57.5879L78.709 70.3788" stroke="white" stroke-width="0.477987" stroke-miterlimit="10"/>
<path d="M67.7732 61.3926L66.8555 62.8265" stroke="white" stroke-width="0.477987" stroke-miterlimit="10"/>
<path d="M63.2976 58.5635L62.3799 59.9974" stroke="white" stroke-width="0.477987" stroke-miterlimit="10"/>
<path d="M88.6696 61.0293L81.6719 67.7211" stroke="white" stroke-width="0.477987" stroke-miterlimit="10"/>
<path d="M88.5557 60.9146L88.6704 61.0293" stroke="white" stroke-width="0.477987" stroke-miterlimit="10"/>
<path d="M85.4756 51.1831L89.2995 47.5312" stroke="white" stroke-width="0.477987" stroke-miterlimit="10"/>
<path d="M89.3964 47.646L89.3008 47.5312" stroke="white" stroke-width="0.477987" stroke-miterlimit="10"/>
<path d="M85.5903 51.2973L85.4756 51.1826" stroke="white" stroke-width="0.477987" stroke-miterlimit="10"/>
<path d="M76.3945 56.2114L78.8418 57.7601" stroke="white" stroke-width="0.477987" stroke-miterlimit="10"/>
<path d="M81.6719 67.7207L82.7617 68.8488" stroke="white" stroke-width="0.477987" stroke-miterlimit="10"/>
<path d="M84.8457 64.6816L85.9164 65.8097" stroke="white" stroke-width="0.477987" stroke-miterlimit="10"/>
<path d="M27.1245 34.5871L25.0596 33.2678L25.8626 31.9868L36.168 38.5448L33.9884 41.948L25.767 36.7093L27.1245 34.5871Z" stroke="white" stroke-width="0.477987" stroke-miterlimit="10"/>
<path d="M27.955 33.5128L27.042 34.9487L28.0262 35.5745L28.9392 34.1386L27.955 33.5128Z" stroke="white" stroke-width="0.477987" stroke-miterlimit="10"/>
<path d="M27.1235 34.5879L24.9248 33.1921L25.7278 31.9111L36.1671 38.5456L33.9875 41.9488L25.7661 36.7101L27.1235 34.5879Z" stroke="white" stroke-width="0.477987" stroke-miterlimit="10"/>
<path d="M27.955 33.5128L27.042 34.9487L28.0262 35.5745L28.9392 34.1386L27.955 33.5128Z" stroke="white" stroke-width="0.477987" stroke-miterlimit="10"/>
<path d="M55.0381 55.332L58.5752 57.5881" stroke="white" stroke-width="0.477987" stroke-miterlimit="10"/>
<path d="M103.774 48.7168L100.064 52.273" stroke="white" stroke-width="0.477987" stroke-miterlimit="10"/>
<path d="M128.133 29.7307L125.973 27.4746" stroke="white" stroke-width="0.477987" stroke-miterlimit="10"/>
<path d="M114.519 34.9506L116.278 33.249L115.246 32.1592L106.432 40.5909L109.223 43.5161L116.259 36.767L114.519 34.9506Z" stroke="white" stroke-width="0.477987" stroke-miterlimit="10"/>
<path d="M113.485 34.028L112.643 34.8345L113.819 36.0637L114.662 35.2572L113.485 34.028Z" stroke="white" stroke-width="0.477987" stroke-miterlimit="10"/>
<path d="M114.519 34.9506L116.393 33.1534L115.341 32.0444L106.432 40.5908L109.223 43.5161L116.259 36.7669L114.519 34.9506Z" stroke="white" stroke-width="0.477987" stroke-miterlimit="10"/>
<path d="M113.485 34.028L112.643 34.8345L113.819 36.0637L114.662 35.2572L113.485 34.028Z" stroke="white" stroke-width="0.477987" stroke-miterlimit="10"/>
<path d="M43.6618 51.7754L57.5809 60.6277L48.48 74.9099L34.5801 66.0767L35.4213 64.7575L41.1572 55.7522L43.6618 51.7754Z" stroke="white" stroke-width="0.477987" stroke-miterlimit="10"/>
<path d="M40.259 49.6154L26.3591 40.7822L17.2773 55.0644L31.1772 63.9167L31.9994 62.5975L37.7352 53.5731L40.259 49.6154Z" stroke="white" stroke-width="0.477987" stroke-miterlimit="10"/>
<path d="M32.4008 20.8599L50.2201 32.1977L41.1384 46.499L33.9877 41.9486L36.1673 38.5453L25.4795 31.7388L32.4008 20.8599Z" stroke="white" stroke-width="0.477987" stroke-miterlimit="10"/>
<path d="M11.3706 31.2412L26.3603 40.7818L17.2785 55.064L9.15273 49.9018L1.00781 44.7395L7.27901 34.8548L8.56002 35.6769L11.3706 31.2412Z" stroke="white" stroke-width="0.477987" stroke-miterlimit="10"/>
<path d="M55.0395 55.3318L41.1396 46.4986L50.2405 32.1973L64.1404 41.0304L63.2992 42.3497L57.5633 51.3549L55.0395 55.3318Z" stroke="white" stroke-width="0.477987" stroke-miterlimit="10"/>
<path d="M131.191 22.4848L118.361 34.7595L106.66 22.523L113.62 15.8503L120.579 9.19678L128.667 17.6476L127.577 18.6991L131.191 22.4848Z" stroke="white" stroke-width="0.477987" stroke-miterlimit="10"/>
<path d="M94.5003 61.9092L81.002 74.8339L92.7222 87.0704L100.351 79.7476L107.31 73.094L99.2229 64.6433L98.133 65.6948L94.5003 61.9092Z" stroke="white" stroke-width="0.477987" stroke-miterlimit="10"/>
<path d="M94.5003 61.9092L81.002 74.8339L92.7222 87.0704L100.351 79.7476L107.31 73.094L99.2229 64.6433L98.133 65.6948L94.5003 61.9092Z" stroke="white" stroke-width="0.477987" stroke-miterlimit="10"/>
<path d="M99.6064 57.0141L113.105 44.0894L124.825 56.3258L117.196 63.6294L110.237 70.3021L102.149 61.8513L103.239 60.7997L99.6064 57.0141Z" stroke="white" stroke-width="0.477987" stroke-miterlimit="10"/>
<path d="M99.6064 57.0141L113.105 44.0894L124.825 56.3258L117.196 63.6294L110.237 70.3021L102.149 61.8513L103.239 60.7997L99.6064 57.0141Z" stroke="white" stroke-width="0.477987" stroke-miterlimit="10"/>
<path d="M57.5814 60.6279L71.4812 69.4611L68.3265 74.413L62.3804 83.7433L58.4417 81.2578L48.4805 74.9102L57.5814 60.6279Z" stroke="white" stroke-width="0.477987" stroke-miterlimit="10"/>
<path d="M106.66 22.5229L91.3838 37.1302L103.104 49.3666L109.222 43.5161L106.431 40.5908L115.57 31.8341L106.66 22.5229Z" stroke="white" stroke-width="0.477987" stroke-miterlimit="10"/>
<path d="M130.197 27.7427L113.104 44.0898L124.825 56.3262L136.048 45.5811L143.007 38.9275L134.92 30.4768L133.83 31.5283L130.197 27.7427Z" stroke="white" stroke-width="0.477987" stroke-miterlimit="10"/>
<path d="M65.8023 85.9233L71.9014 89.8045C78.2491 93.8387 86.5087 93.0166 91.9387 87.8161L92.7226 87.0704L82.7039 76.593L71.4808 69.4614L68.3261 74.4134L62.3799 83.7628" stroke="white" stroke-width="0.477987" stroke-miterlimit="10"/>
<path d="M40.2598 49.6152L43.663 51.7757" stroke="white" stroke-width="0.477987" stroke-miterlimit="10"/>
<path d="M94.502 61.9087L99.6069 57.0142" stroke="white" stroke-width="0.477987" stroke-miterlimit="10"/>
<path d="M65.8027 85.9234L74.8845 71.6221" stroke="white" stroke-width="0.477987" stroke-miterlimit="10"/>
<path d="M3.33887 22.4657L23.2996 35.161L32.4005 20.8596L19.2845 12.5236L11.1588 7.36133L4.86843 17.227L6.14944 18.03L3.33887 22.4657Z" stroke="white" stroke-width="0.477987" stroke-miterlimit="10"/>
<g filter="url(#filter0_d_4201_69003)">
<path d="M71.3478 7.8584C71.3478 7.8584 71.4625 7.87752 71.5008 7.89664C71.539 7.91576 71.5964 7.954 71.6346 7.99223C71.6729 8.03047 71.7302 8.08783 71.7685 8.14519L75.7262 13.1545C75.7262 13.0015 75.7071 12.8295 75.688 12.6956C75.688 12.5427 75.688 12.4088 75.688 12.275V7.8584H77.3896V16.1945H76.3763C76.2233 16.1945 76.1086 16.1754 75.9939 16.118C75.8983 16.0798 75.7836 15.9842 75.688 15.8694L71.7493 10.8984C71.7493 11.0513 71.7685 11.1852 71.7876 11.319C71.7876 11.4529 71.7876 11.5867 71.7876 11.7205V16.1945H70.0859V7.8584H71.0993C71.0993 7.8584 71.2522 7.8584 71.3096 7.8584H71.3478Z" fill="white"/>
</g>
<path d="M73.5467 21.6623C68.4609 21.624 64.2928 17.3221 64.3502 12.1599C64.4076 7.03589 68.5947 2.7149 74.0438 2.84873C79.1105 2.98257 83.4124 7.2462 83.1638 12.7335C82.9535 17.5325 78.8619 21.7961 73.5467 21.6431V21.6623ZM73.4893 4.30181C69.2639 4.32093 65.765 8.08746 65.8224 11.9878H66.7593V12.5423H65.8033C65.8224 17.1309 70.0669 20.343 73.4893 20.1518V19.2532H74.0629V20.2283C76.3573 20.0945 78.2692 19.1958 79.7605 17.5133C81.0033 16.0985 81.6725 14.4542 81.7298 12.5232H80.7739V11.9496H81.6916C81.6534 7.4374 77.6 4.18709 74.0247 4.30181V5.23866H73.4893V4.28269V4.30181Z" fill="white"/>
<path d="M80.0283 3.19295L86.2804 0L83.1639 6.29029L80.0283 3.19295Z" fill="white"/>
<defs>
<filter id="filter0_d_4201_69003" x="69.6653" y="7.43777" width="8.75679" height="9.78902" filterUnits="userSpaceOnUse" color-interpolation-filters="sRGB">
<feFlood flood-opacity="0" result="BackgroundImageFix"/>
<feColorMatrix in="SourceAlpha" type="matrix" values="0 0 0 0 0 0 0 0 0 0 0 0 0 0 0 0 0 0 127 0" result="hardAlpha"/>
<feOffset dx="0.305912" dy="0.305912"/>
<feGaussianBlur stdDeviation="0.36327"/>
<feColorMatrix type="matrix" values="0 0 0 0 0.137255 0 0 0 0 0.121569 0 0 0 0 0.12549 0 0 0 1 0"/>
<feBlend mode="normal" in2="BackgroundImageFix" result="effect1_dropShadow_4201_69003"/>
<feBlend mode="normal" in="SourceGraphic" in2="effect1_dropShadow_4201_69003" result="shape"/>
</filter>
</defs>
</svg>
